<?xml version="1.0" encoding="UTF-8" standalone="no"?>
<svg
   xmlns:dc="http://purl.org/dc/elements/1.1/"
   xmlns:cc="http://creativecommons.org/ns#"
   xmlns:rdf="http://www.w3.org/1999/02/22-rdf-syntax-ns#"
   xmlns:svg="http://www.w3.org/2000/svg"
   xmlns="http://www.w3.org/2000/svg"
   xmlns:sodipodi="http://sodipodi.sourceforge.net/DTD/sodipodi-0.dtd"
   xmlns:inkscape="http://www.inkscape.org/namespaces/inkscape"
   width="235.35699"
   height="190.366"
   viewBox="0 0 235.35699 190.366"
   version="1.1"
   id="svg3796"
   sodipodi:docname="Graph_2.svg"
   inkscape:version="0.92.2 5c3e80d, 2017-08-06">
  <metadata
     id="metadata3800">
    <rdf:RDF>
      <cc:Work
         rdf:about="">
        <dc:format>image/svg+xml</dc:format>
        <dc:type
           rdf:resource="http://purl.org/dc/dcmitype/StillImage" />
        <dc:title>Graph_2</dc:title>
      </cc:Work>
    </rdf:RDF>
  </metadata>
  <sodipodi:namedview
     pagecolor="#ffffff"
     bordercolor="#666666"
     borderopacity="1"
     objecttolerance="10"
     gridtolerance="10"
     guidetolerance="10"
     inkscape:pageopacity="0"
     inkscape:pageshadow="2"
     inkscape:window-width="1920"
     inkscape:window-height="955"
     id="namedview3798"
     showgrid="false"
     inkscape:zoom="2.4086687"
     inkscape:cx="175"
     inkscape:cy="128.28663"
     inkscape:window-x="0"
     inkscape:window-y="1"
     inkscape:window-maximized="1"
     inkscape:current-layer="svg3796" />
  <!-- Generator: Sketch 46.2 (44496) - http://www.bohemiancoding.com/sketch -->
  <title
     id="title3777">Graph_2</title>
  <desc
     id="desc3779">Created with Sketch.</desc>
  <defs
     id="defs3781" />
  <path
     style="fill:#454856;fill-rule:evenodd;stroke:none;stroke-width:1"
     inkscape:connector-curvature="0"
     id="Accidents"
     d="m 186.57793,9.11705 -0.85547,-2.37891 h -3.27539 l -0.83789,2.37891 h -1.47656 l 3.20508,-8.60156 h 1.52344 l 3.20507,8.60156 z m -1.22461,-3.58594 -0.80273,-2.33203 c -0.0586,-0.15625 -0.13965,-0.40234 -0.24317,-0.73828 -0.10351,-0.33594 -0.1748,-0.58203 -0.21386,-0.73828 -0.10547,0.48047 -0.25977,1.00585 -0.46289,1.57617 l -0.77344,2.23242 z m 6.31055,3.70313 c -0.98047,0 -1.72558,-0.28613 -2.23535,-0.8584 -0.50977,-0.57227 -0.76465,-1.39355 -0.76465,-2.46387 0,-1.08985 0.2666,-1.92773 0.7998,-2.51367 0.53321,-0.58594 1.30371,-0.87891 2.31153,-0.87891 0.68359,0 1.29882,0.12695 1.8457,0.38086 l -0.41601,1.10742 c -0.58204,-0.22656 -1.0625,-0.33984 -1.44141,-0.33984 -1.1211,0 -1.68164,0.74413 -1.68164,2.23242 0,0.72657 0.13965,1.27246 0.41894,1.6377 0.2793,0.36524 0.68848,0.54785 1.22754,0.54785 0.61329,0 1.19336,-0.15234 1.74024,-0.45703 v 1.20117 c -0.2461,0.14453 -0.50879,0.24805 -0.78809,0.31055 -0.2793,0.0625 -0.61816,0.0937 -1.0166,0.0937 z m 5.94141,0 c -0.98048,0 -1.72559,-0.28613 -2.23536,-0.8584 -0.50976,-0.57227 -0.76464,-1.39355 -0.76464,-2.46387 0,-1.08985 0.2666,-1.92773 0.7998,-2.51367 0.53321,-0.58594 1.30371,-0.87891 2.31152,-0.87891 0.6836,0 1.29883,0.12695 1.84571,0.38086 l -0.41602,1.10742 c -0.58203,-0.22656 -1.0625,-0.33984 -1.4414,-0.33984 -1.1211,0 -1.68165,0.74413 -1.68165,2.23242 0,0.72657 0.13965,1.27246 0.41895,1.6377 0.2793,0.36524 0.68847,0.54785 1.22754,0.54785 0.61328,0 1.19336,-0.15234 1.74023,-0.45703 v 1.20117 c -0.24609,0.14453 -0.50878,0.24805 -0.78808,0.31055 -0.2793,0.0625 -0.61816,0.0937 -1.0166,0.0937 z m 4.70507,-0.11719 H 200.9334 V 2.63658 h 1.37695 z m -1.45898,-8.19727 c 0,-0.24609 0.0674,-0.43554 0.20215,-0.56836 0.13476,-0.13281 0.32715,-0.19922 0.57715,-0.19922 0.24219,0 0.43066,0.0664 0.56543,0.19922 0.13476,0.13282 0.20214,0.32227 0.20214,0.56836 0,0.23438 -0.0674,0.41895 -0.20214,0.55371 -0.13477,0.13477 -0.32324,0.20215 -0.56543,0.20215 -0.25,0 -0.44239,-0.0674 -0.57715,-0.20215 -0.13477,-0.13476 -0.20215,-0.31933 -0.20215,-0.55371 z m 5.61328,8.31446 c -0.8086,0 -1.43945,-0.29297 -1.89258,-0.87891 -0.45312,-0.58594 -0.67968,-1.4082 -0.67968,-2.4668 0,-1.0625 0.22949,-1.88964 0.68847,-2.48144 0.45899,-0.5918 1.09472,-0.8877 1.90723,-0.8877 0.85157,0 1.5,0.31445 1.94531,0.94336 h 0.0703 C 208.4373,2.99791 208.4041,2.63072 208.4041,2.36119 V -1.4e-4 h 1.38282 v 9.11719 h -1.07813 l -0.24023,-0.84961 h -0.0645 c -0.4414,0.64454 -1.08788,0.9668 -1.93945,0.9668 z m 0.36914,-1.11328 c 0.56641,0 0.97852,-0.15918 1.23633,-0.47754 0.25781,-0.31836 0.39062,-0.83496 0.39844,-1.54981 V 5.90025 c 0,-0.81641 -0.13281,-1.39648 -0.39844,-1.74023 -0.26563,-0.34375 -0.68164,-0.51563 -1.24805,-0.51563 -0.48437,0 -0.85742,0.19629 -1.11914,0.58887 -0.26172,0.39258 -0.39258,0.95215 -0.39258,1.67871 0,0.71876 0.12696,1.2666 0.38086,1.64356 0.25391,0.37695 0.63477,0.56543 1.14258,0.56543 z m 7.75195,1.11328 c -1.00781,0 -1.79589,-0.29394 -2.36425,-0.88184 -0.56836,-0.58789 -0.85254,-1.39745 -0.85254,-2.42871 0,-1.0586 0.26367,-1.89062 0.79101,-2.49609 0.52735,-0.60548 1.25195,-0.90821 2.17383,-0.90821 0.85547,0 1.53125,0.25977 2.02735,0.7793 0.49609,0.51953 0.74414,1.23437 0.74414,2.14453 v 0.74414 h -4.31836 c 0.0195,0.62891 0.18945,1.11231 0.50976,1.4502 0.32032,0.33789 0.77148,0.50683 1.35352,0.50683 0.38281,0 0.73925,-0.0361 1.06933,-0.1084 0.33008,-0.0723 0.68457,-0.19238 1.06348,-0.36035 v 1.11914 c -0.33594,0.16016 -0.67578,0.27344 -1.01953,0.33985 -0.34375,0.0664 -0.73633,0.0996 -1.17774,0.0996 z m -0.25195,-5.67188 c -0.4375,0 -0.78808,0.13867 -1.05176,0.41602 -0.26367,0.27734 -0.42089,0.68163 -0.47168,1.21289 h 2.94141 c -0.008,-0.53516 -0.13672,-0.94043 -0.38672,-1.21582 -0.25,-0.2754 -0.59375,-0.41309 -1.03125,-0.41309 z m 10.03711,5.55469 h -1.38281 V 5.13268 c 0,-0.50001 -0.10059,-0.87305 -0.30176,-1.11915 -0.20117,-0.24609 -0.52051,-0.36914 -0.95801,-0.36914 -0.58203,0 -1.00781,0.17188 -1.27734,0.51563 -0.26953,0.34375 -0.4043,0.91992 -0.4043,1.72851 v 3.22852 h -1.37695 V 2.63658 h 1.07812 l 0.19336,0.84961 h 0.0703 c 0.19531,-0.3086 0.47265,-0.54688 0.83203,-0.71484 0.35937,-0.16797 0.75781,-0.25196 1.19531,-0.25196 1.55469,0 2.33203,0.79101 2.33203,2.37305 z m 4.33008,-0.99609 c 0.33594,0 0.67187,-0.0527 1.00781,-0.15821 v 1.03711 c -0.15234,0.0664 -0.34863,0.12207 -0.58887,0.167 -0.24023,0.0449 -0.48925,0.0674 -0.74707,0.0674 -1.30469,0 -1.95703,-0.6875 -1.95703,-2.0625 V 3.67955 h -0.88476 V 3.07017 l 0.94922,-0.5039 0.46875,-1.3711 h 0.84961 v 1.44141 h 1.8457 v 1.04297 h -1.8457 V 7.1483 c 0,0.33203 0.083,0.57715 0.24902,0.73535 0.16602,0.15821 0.38379,0.23731 0.65332,0.23731 z m 6.65625,-0.84961 c 0,0.63281 -0.23047,1.11816 -0.69141,1.45605 -0.46094,0.33789 -1.12109,0.50684 -1.98047,0.50684 -0.86328,0 -1.55663,-0.13086 -2.08007,-0.39258 V 7.65221 c 0.76172,0.35156 1.4707,0.52734 2.12695,0.52734 0.84766,0 1.27148,-0.25586 1.27148,-0.76758 0,-0.16406 -0.0469,-0.30078 -0.14062,-0.41015 -0.0937,-0.10938 -0.24805,-0.22266 -0.46289,-0.33985 -0.21485,-0.11719 -0.51367,-0.25 -0.89649,-0.39844 -0.74609,-0.28906 -1.25097,-0.57812 -1.51465,-0.86718 -0.26367,-0.28907 -0.3955,-0.66406 -0.3955,-1.125 0,-0.55469 0.22363,-0.98535 0.6709,-1.292 0.44726,-0.30664 1.05566,-0.45996 1.82519,-0.45996 0.76172,0 1.48242,0.1543 2.16211,0.46289 l -0.44531,1.03711 c -0.69922,-0.28906 -1.28711,-0.43359 -1.76367,-0.43359 -0.72657,0 -1.08985,0.20703 -1.08985,0.62109 0,0.20313 0.0947,0.375 0.28418,0.51563 0.18946,0.14062 0.60254,0.33398 1.23926,0.58008 0.53516,0.20703 0.92383,0.39648 1.16602,0.56836 0.24218,0.17187 0.42187,0.37011 0.53906,0.59472 0.11719,0.22461 0.17578,0.49317 0.17578,0.80567 z" />
  <g
     style="fill:none;fill-rule:evenodd;stroke:none;stroke-width:1"
     transform="rotate(-126,93.379471,94.26997)"
     id="#ece8f5:10%-+-#d2b5f0:20%-+-#b07ce8:40%-+-#7732bb:10%-+-#44216a:20%-Mask">
    <circle
       style="fill:#9753e1"
       r="91"
       cy="91"
       cx="91"
       id="Mask" />
    <path
       style="fill:#ece8f5;fill-rule:nonzero"
       inkscape:connector-curvature="0"
       transform="rotate(126,38.073934,85.945971)"
       id="#ece8f5:10%"
       d="M 65.142917,114.27483 C 49.952729,125.34822 31.241886,131.88219 11.004951,131.88219 V 40.009748 Z" />
    <path
       style="fill:#d2b5f0;fill-rule:nonzero"
       inkscape:connector-curvature="0"
       transform="rotate(-162,63.307167,33.701286)"
       id="#d2b5f0:20%"
       d="m 19.524028,79.68774 v -91.972902 c 0.01435,-0.0091 29.203114,9.4141472 87.566282,28.269759 C 95.15401,52.949636 60.461528,79.68774 19.524028,79.68774 Z" />
    <path
       style="fill:#b07ce8;fill-rule:nonzero"
       inkscape:connector-curvature="0"
       transform="rotate(90,82.318131,137)"
       id="#b07ce8:40%"
       d="m 128.31813,128.31813 c 0,50.8102 -41.189802,92 -91.999999,92 v -92 l 53.80219,-74.636262 c 23.139009,16.709194 38.197809,43.914143 38.197809,74.636262 z" />
    <path
       style="fill:#7732bb;fill-rule:nonzero"
       inkscape:connector-curvature="0"
       transform="rotate(-127,111.22543,41.328321)"
       id="#7732bb:10%"
       d="M 138.29441,69.657185 C 123.10423,80.73057 104.39338,87.264544 84.156449,87.264544 V -4.6079018 Z" />
    <path
       style="fill:#44216a;fill-rule:nonzero"
       inkscape:connector-curvature="0"
       transform="rotate(-55,153.32106,81.632474)"
       id="#44216a:20%"
       d="M 197.10419,63.915785 C 185.1679,100.88083 150.47542,127.61893 109.53792,127.61893 V 35.646026 c 0.0143,-0.0091 29.20311,9.414148 87.56627,28.269759 z" />
  </g>
  <polyline
     style="fill:none;fill-rule:evenodd;stroke:#454856;stroke-width:2"
     points="245 128 258 115 291 115"
     id="Path-2"
     transform="translate(-76.867375,-94.882952)" />
</svg>
