<?xml version="1.0" encoding="UTF-8" standalone="no"?>
<svg
   xmlns:dc="http://purl.org/dc/elements/1.1/"
   xmlns:cc="http://creativecommons.org/ns#"
   xmlns:rdf="http://www.w3.org/1999/02/22-rdf-syntax-ns#"
   xmlns:svg="http://www.w3.org/2000/svg"
   xmlns="http://www.w3.org/2000/svg"
   xmlns:sodipodi="http://sodipodi.sourceforge.net/DTD/sodipodi-0.dtd"
   xmlns:inkscape="http://www.inkscape.org/namespaces/inkscape"
   width="1090px"
   height="241px"
   viewBox="0 0 1090 241"
   version="1.1"
   id="svg2"
   inkscape:version="0.91 r13725"
   sodipodi:docname="Graph_1.svg">
  <metadata
     id="metadata36">
    <rdf:RDF>
      <cc:Work
         rdf:about="">
        <dc:format>image/svg+xml</dc:format>
        <dc:type
           rdf:resource="http://purl.org/dc/dcmitype/StillImage" />
      </cc:Work>
    </rdf:RDF>
  </metadata>
  <sodipodi:namedview
     pagecolor="#ffffff"
     bordercolor="#666666"
     borderopacity="1"
     objecttolerance="10"
     gridtolerance="10"
     guidetolerance="10"
     inkscape:pageopacity="0"
     inkscape:pageshadow="2"
     inkscape:window-width="1947"
     inkscape:window-height="953"
     id="namedview34"
     showgrid="false"
     inkscape:zoom="11.375986"
     inkscape:cx="269.10722"
     inkscape:cy="183.79122"
     inkscape:window-x="0"
     inkscape:window-y="0"
     inkscape:window-maximized="0"
     inkscape:current-layer="svg2" />
  <!-- Generator: Sketch 46.2 (44496) - http://www.bohemiancoding.com/sketch -->
  <title
     id="title4">Graph_1</title>
  <desc
     id="desc6">Created with Sketch.</desc>
  <defs
     id="defs8" />
  <path
     style="fill:#454856;fill-rule:evenodd;stroke:none;stroke-width:1"
     inkscape:connector-curvature="0"
     id="Claim-History"
     d="m 36.460937,36.601562 c -1.255214,0 -2.24609,0.417965 -2.972656,1.253907 -0.726566,0.835941 -1.089844,1.980461 -1.089844,3.433593 0,1.4948 0.350257,2.649736 1.050782,3.464844 0.700524,0.815109 1.699212,1.222656 2.996093,1.222656 0.796879,0 1.705725,-0.143227 2.726563,-0.429687 l 0,1.164062 c -0.791671,0.296877 -1.768223,0.445313 -2.929688,0.445313 -1.6823,0 -2.980464,-0.510412 -3.894531,-1.53125 -0.914067,-1.020838 -1.371094,-2.471345 -1.371094,-4.351563 0,-1.177089 0.22005,-2.208328 0.660157,-3.09375 0.440106,-0.885421 1.075516,-1.567705 1.90625,-2.046875 0.830733,-0.479169 1.808588,-0.71875 2.933593,-0.71875 1.197923,0 2.244788,0.218748 3.140625,0.65625 l -0.5625,1.140625 C 38.1901,36.804685 37.325525,36.601562 36.460937,36.601562 Z M 42.765625,47 l -1.296875,0 0,-12.15625 1.296875,0 0,12.15625 z m 8.015625,0 -0.257813,-1.21875 -0.0625,0 c -0.427085,0.536461 -0.852862,0.899739 -1.277343,1.089844 -0.424482,0.190105 -0.954424,0.285156 -1.589844,0.285156 -0.848963,0 -1.51432,-0.218748 -1.996094,-0.65625 C 45.115883,46.062498 44.875,45.440108 44.875,44.632812 c 0,-1.729175 1.382799,-2.635416 4.148437,-2.71875 l 1.453125,-0.04687 0,-0.53125 c 0,-0.671878 -0.144529,-1.167967 -0.433593,-1.488281 -0.289064,-0.320314 -0.751299,-0.480469 -1.386719,-0.480469 -0.713545,0 -1.520829,0.218748 -2.421875,0.65625 L 45.835937,39.03125 c 0.421878,-0.229168 0.884113,-0.408854 1.386719,-0.539063 0.502607,-0.130209 1.006508,-0.195312 1.511719,-0.195312 1.020838,0 1.777341,0.22656 2.269531,0.679687 0.49219,0.453128 0.738281,1.179683 0.738281,2.179688 l 0,5.84375 -0.960937,0 z m -2.929688,-0.914063 c 0.807296,0 1.441404,-0.221352 1.902344,-0.664062 0.46094,-0.44271 0.691406,-1.062496 0.691406,-1.859375 l 0,-0.773438 -1.296875,0.05469 c -1.031255,0.03646 -1.774737,0.196613 -2.230468,0.480469 -0.455732,0.283855 -0.683594,0.725257 -0.683594,1.324218 0,0.468753 0.141926,0.82552 0.425781,1.070313 0.283856,0.244793 0.680987,0.367187 1.191406,0.367187 z M 55.710937,47 l -1.296875,0 0,-8.5625 1.296875,0 0,8.5625 z m -1.40625,-10.882813 c 0,-0.296876 0.07292,-0.514322 0.21875,-0.652343 0.145835,-0.138022 0.328124,-0.207032 0.546875,-0.207032 0.208335,0 0.388021,0.07031 0.539063,0.210938 0.151042,0.140626 0.226562,0.356769 0.226562,0.648437 0,0.291669 -0.07552,0.509114 -0.226562,0.652344 -0.151042,0.14323 -0.330728,0.214844 -0.539063,0.214844 -0.218751,0 -0.40104,-0.07161 -0.546875,-0.214844 -0.145834,-0.14323 -0.21875,-0.360675 -0.21875,-0.652344 z M 69.375,47 l 0,-5.570313 c 0,-0.682295 -0.145832,-1.194008 -0.4375,-1.535156 -0.291668,-0.341147 -0.744789,-0.511719 -1.359375,-0.511719 -0.807296,0 -1.403644,0.231769 -1.789063,0.695313 -0.385418,0.463544 -0.578125,1.177078 -0.578125,2.140625 l 0,4.78125 -1.296875,0 0,-5.570313 c 0,-0.682295 -0.145831,-1.194008 -0.4375,-1.535156 -0.291668,-0.341147 -0.747392,-0.511719 -1.367187,-0.511719 -0.812504,0 -1.40755,0.243488 -1.785156,0.730469 -0.377606,0.486982 -0.566407,1.285151 -0.566407,2.394531 l 0,4.492188 -1.296875,0 0,-8.5625 1.054688,0 0.210937,1.171875 0.0625,0 c 0.244793,-0.416669 0.589842,-0.742186 1.035157,-0.976563 0.445315,-0.234376 0.944007,-0.351562 1.496093,-0.351562 1.338549,0 2.21354,0.48437 2.625,1.453125 l 0.0625,0 c 0.25521,-0.447919 0.624998,-0.802082 1.109375,-1.0625 0.484378,-0.260418 1.036456,-0.390625 1.65625,-0.390625 0.968755,0 1.694008,0.248695 2.175782,0.746094 0.481773,0.497398 0.722656,1.292963 0.722656,2.386718 l 0,5.585938 -1.296875,0 z m 16.992187,0 -1.328125,0 0,-5.375 -6.015625,0 0,5.375 -1.328125,0 0,-11.421875 1.328125,0 0,4.859375 6.015625,0 0,-4.859375 1.328125,0 0,11.421875 z m 4.234375,0 -1.296875,0 0,-8.5625 1.296875,0 0,8.5625 z m -1.40625,-10.882813 c 0,-0.296876 0.07292,-0.514322 0.21875,-0.652343 0.145835,-0.138022 0.328124,-0.207032 0.546875,-0.207032 0.208335,0 0.388021,0.07031 0.539063,0.210938 0.151042,0.140626 0.226562,0.356769 0.226562,0.648437 0,0.291669 -0.07552,0.509114 -0.226562,0.652344 -0.151042,0.14323 -0.330728,0.214844 -0.539063,0.214844 -0.218751,0 -0.40104,-0.07161 -0.546875,-0.214844 -0.145834,-0.14323 -0.21875,-0.360675 -0.21875,-0.652344 z M 98.875,44.664062 c 0,0.796879 -0.296872,1.411457 -0.890625,1.84375 -0.593753,0.432294 -1.427078,0.648438 -2.5,0.648438 -1.135422,0 -2.02083,-0.179686 -2.65625,-0.539063 l 0,-1.203125 c 0.41146,0.208335 0.852862,0.372396 1.324219,0.492188 0.471356,0.119792 0.925779,0.179687 1.363281,0.179687 0.677087,0 1.197915,-0.108071 1.5625,-0.324218 0.364585,-0.216147 0.546875,-0.545571 0.546875,-0.988282 0,-0.333334 -0.14453,-0.618488 -0.433594,-0.855468 -0.289064,-0.236981 -0.85286,-0.516926 -1.691406,-0.839844 -0.796879,-0.296877 -1.36328,-0.555988 -1.699219,-0.777344 -0.335939,-0.221355 -0.585936,-0.472655 -0.75,-0.753906 -0.164063,-0.281251 -0.246094,-0.617185 -0.246094,-1.007813 0,-0.69792 0.283852,-1.248695 0.851563,-1.652343 0.567711,-0.403648 1.346349,-0.605469 2.335937,-0.605469 0.92188,0 1.822913,0.187498 2.703125,0.5625 l -0.460937,1.054687 c -0.859379,-0.354168 -1.638017,-0.53125 -2.335938,-0.53125 -0.614586,0 -1.078123,0.09635 -1.390625,0.289063 -0.312501,0.192709 -0.46875,0.458332 -0.46875,0.796875 0,0.229168 0.05859,0.424478 0.175782,0.585937 0.117188,0.16146 0.305988,0.315104 0.566406,0.460938 0.260418,0.145834 0.760413,0.356769 1.5,0.632812 1.01563,0.369794 1.701821,0.742186 2.058594,1.117188 0.356772,0.375002 0.535156,0.846351 0.535156,1.414062 z m 4.875,1.421875 c 0.22917,0 0.45052,-0.01693 0.66406,-0.05078 0.21355,-0.03385 0.38281,-0.06901 0.50782,-0.105469 l 0,0.992188 c -0.14063,0.06771 -0.34766,0.123698 -0.6211,0.167969 -0.27344,0.04427 -0.51953,0.06641 -0.73828,0.06641 -1.65626,0 -2.48437,-0.872387 -2.48437,-2.617188 l 0,-5.09375 -1.226568,0 0,-0.625 1.226568,-0.539062 0.54687,-1.828125 0.75,0 0,1.984375 2.48438,0 0,1.007812 -2.48438,0 0,5.039063 c 0,0.515628 0.12239,0.911457 0.36719,1.1875 0.24479,0.276043 0.58072,0.414062 1.00781,0.414062 z m 10.27344,-3.375 c 0,1.395841 -0.35156,2.485674 -1.05469,3.269532 -0.70313,0.783858 -1.67447,1.175781 -2.91406,1.175781 -0.76563,0 -1.44531,-0.179686 -2.03906,-0.539063 -0.59376,-0.359376 -1.05209,-0.874996 -1.375,-1.546875 -0.32292,-0.671878 -0.48438,-1.458328 -0.48438,-2.359375 0,-1.39584 0.34896,-2.483069 1.04688,-3.261718 0.69791,-0.77865 1.66665,-1.167969 2.90625,-1.167969 1.19792,0 2.14973,0.398434 2.85546,1.195312 0.70574,0.796879 1.0586,1.874994 1.0586,3.234375 z m -6.52344,0 c 0,1.093756 0.21875,1.927081 0.65625,2.5 0.4375,0.57292 1.08073,0.859375 1.92969,0.859375 0.84896,0 1.49349,-0.285153 1.93359,-0.855468 0.44011,-0.570316 0.66016,-1.404943 0.66016,-2.503907 0,-1.088547 -0.22005,-1.915361 -0.66016,-2.480468 -0.4401,-0.565107 -1.08984,-0.847657 -1.94922,-0.847657 -0.84896,0 -1.48958,0.278644 -1.92187,0.835938 -0.4323,0.557294 -0.64844,1.388015 -0.64844,2.492187 z m 12.70313,-4.429687 c 0.38021,0 0.72135,0.03125 1.02343,0.09375 l -0.17968,1.203125 c -0.35417,-0.07813 -0.66667,-0.117188 -0.9375,-0.117188 -0.69272,0 -1.28516,0.281248 -1.77735,0.84375 -0.49219,0.562503 -0.73828,1.263017 -0.73828,2.101563 l 0,4.59375 -1.29687,0 0,-8.5625 1.07031,0 0.14844,1.585937 0.0625,0 c 0.31771,-0.557294 0.70051,-0.986977 1.14843,-1.289062 0.44792,-0.302085 0.9401,-0.453125 1.47657,-0.453125 z m 1.26562,0.15625 1.39063,0 1.875,4.882812 c 0.41146,1.114589 0.66666,1.919269 0.76562,2.414063 l 0.0625,0 c 0.0677,-0.265626 0.20963,-0.720049 0.42578,-1.363281 0.21615,-0.643233 0.92317,-2.621077 2.12109,-5.933594 l 1.39063,0 -3.67969,9.75 c -0.36458,0.963546 -0.79036,1.647133 -1.27734,2.050781 -0.48698,0.403648 -1.08463,0.605469 -1.79297,0.605469 -0.39584,0 -0.78646,-0.04427 -1.17187,-0.132813 l 0,-1.039062 c 0.28646,0.0625 0.60676,0.09375 0.96093,0.09375 0.89063,0 1.52604,-0.499995 1.90625,-1.5 l 0.47657,-1.21875 -3.45313,-8.609375 z" />
  <path
     style="opacity:0.5;fill:#454856;fill-rule:evenodd;stroke:none;stroke-width:1"
     inkscape:connector-curvature="0"
     id="January"
     d="m 33.046875,224.39062 c -0.382814,0 -0.703124,-0.0488 -0.960938,-0.14648 l 0,-1.17773 c 0.328127,0.082 0.613281,0.12304 0.855469,0.12304 0.765629,0 1.148438,-0.48437 1.148438,-1.45312 l 0,-8.30274 1.40625,0 0,8.25586 c 0,0.87501 -0.208006,1.54395 -0.624024,2.00684 -0.416017,0.46289 -1.02441,0.69433 -1.825195,0.69433 z M 41.625,222 l -0.275391,-0.90234 -0.04687,0 c -0.312501,0.39453 -0.626951,0.66308 -0.943359,0.80566 -0.316408,0.14258 -0.722654,0.21387 -1.21875,0.21387 -0.636722,0 -1.133787,-0.17188 -1.491211,-0.51563 -0.357424,-0.34375 -0.536133,-0.83007 -0.536133,-1.45898 0,-0.66797 0.248045,-1.17188 0.744141,-1.51172 0.496096,-0.33985 1.251948,-0.52539 2.267578,-0.55664 l 1.119141,-0.0352 0,-0.3457 c 0,-0.41407 -0.09668,-0.72363 -0.290039,-0.92871 -0.193361,-0.20508 -0.493162,-0.30762 -0.899415,-0.30762 -0.332032,0 -0.650389,0.0488 -0.955078,0.14649 -0.304689,0.0976 -0.597655,0.21289 -0.878906,0.3457 l -0.445312,-0.98438 c 0.351564,-0.18359 0.736326,-0.32324 1.154296,-0.41894 0.417971,-0.0957 0.812499,-0.14356 1.183594,-0.14356 0.824223,0 1.446287,0.17969 1.866211,0.53907 0.419924,0.35937 0.629883,0.92382 0.629883,1.69336 l 0,4.36523 -0.984375,0 z m -2.050781,-0.9375 c 0.500002,0 0.901365,-0.13965 1.204101,-0.41895 0.302736,-0.27929 0.454102,-0.67089 0.454102,-1.1748 l 0,-0.5625 -0.832031,0.0352 c -0.648441,0.0234 -1.120116,0.13183 -1.415039,0.32519 -0.294924,0.19336 -0.442383,0.48926 -0.442383,0.8877 0,0.28906 0.08594,0.51269 0.257812,0.67089 0.171876,0.15821 0.429686,0.23731 0.773438,0.23731 z M 50.232422,222 l -1.382813,0 0,-3.98438 c 0,-0.5 -0.100585,-0.87304 -0.301757,-1.11914 -0.201173,-0.24609 -0.520506,-0.36914 -0.958008,-0.36914 -0.582034,0 -1.007811,0.17188 -1.277344,0.51563 -0.269533,0.34375 -0.404297,0.91992 -0.404297,1.72851 l 0,3.22852 -1.376953,0 0,-6.48047 1.078125,0 0.193359,0.84961 0.07031,0 c 0.195313,-0.3086 0.472654,-0.54687 0.832031,-0.71484 0.359377,-0.16797 0.75781,-0.25196 1.195313,-0.25196 1.554695,0 2.332031,0.79101 2.332031,2.37305 l 0,4.22461 z m 6.486328,0 -0.193359,-0.84961 -0.07031,0 c -0.191407,0.30078 -0.463865,0.53711 -0.817383,0.70898 -0.353517,0.17188 -0.756833,0.25782 -1.209961,0.25782 -0.78516,0 -1.371091,-0.19531 -1.757812,-0.58594 -0.386721,-0.39063 -0.580078,-0.98242 -0.580078,-1.77539 l 0,-4.23633 1.388672,0 0,3.99609 c 0,0.4961 0.101561,0.86817 0.304687,1.11622 0.203126,0.24804 0.521482,0.37207 0.955078,0.37207 0.578128,0 1.002929,-0.17285 1.274414,-0.51856 0.271486,-0.3457 0.407227,-0.9248 0.407227,-1.7373 l 0,-3.22852 1.382812,0 0,6.48047 -1.083984,0 z m 7.101562,0 -0.27539,-0.90234 -0.04687,0 c -0.312502,0.39453 -0.626952,0.66308 -0.94336,0.80566 -0.316407,0.14258 -0.722653,0.21387 -1.21875,0.21387 -0.636721,0 -1.133787,-0.17188 -1.49121,-0.51563 -0.357424,-0.34375 -0.536133,-0.83007 -0.536133,-1.45898 0,-0.66797 0.248044,-1.17188 0.74414,-1.51172 0.496097,-0.33985 1.251948,-0.52539 2.267578,-0.55664 l 1.119141,-0.0352 0,-0.3457 c 0,-0.41407 -0.09668,-0.72363 -0.290039,-0.92871 -0.19336,-0.20508 -0.493162,-0.30762 -0.899414,-0.30762 -0.332033,0 -0.650389,0.0488 -0.955078,0.14649 -0.304689,0.0976 -0.597655,0.21289 -0.878906,0.3457 l -0.445313,-0.98438 c 0.351564,-0.18359 0.736326,-0.32324 1.154297,-0.41894 0.417971,-0.0957 0.812498,-0.14356 1.183594,-0.14356 0.824223,0 1.446287,0.17969 1.866211,0.53907 0.419924,0.35937 0.629882,0.92382 0.629882,1.69336 l 0,4.36523 -0.984375,0 z m -2.050781,-0.9375 c 0.500003,0 0.901366,-0.13965 1.204102,-0.41895 0.302736,-0.27929 0.454101,-0.67089 0.454101,-1.1748 l 0,-0.5625 -0.832031,0.0352 c -0.648441,0.0234 -1.120116,0.13183 -1.415039,0.32519 -0.294923,0.19336 -0.442383,0.48926 -0.442383,0.8877 0,0.28906 0.08594,0.51269 0.257813,0.67089 0.171876,0.15821 0.429685,0.23731 0.773437,0.23731 z m 8.244141,-5.66016 c 0.277345,0 0.505858,0.0195 0.685547,0.0586 l -0.134766,1.2832 c -0.195313,-0.0469 -0.398436,-0.0703 -0.609375,-0.0703 -0.550784,0 -0.997068,0.17968 -1.338867,0.53906 -0.341799,0.35938 -0.512695,0.82617 -0.512695,1.40039 l 0,3.38672 -1.376954,0 0,-6.48047 1.078125,0 0.181641,1.14258 0.07031,0 c 0.214844,-0.38672 0.495115,-0.69336 0.84082,-0.91992 0.345705,-0.22657 0.717771,-0.33985 1.116211,-0.33985 z m 0.902344,0.11719 1.5,0 1.318359,3.67383 c 0.19922,0.52344 0.332031,1.01562 0.398437,1.47656 l 0.04687,0 c 0.03516,-0.21484 0.09961,-0.47558 0.19336,-0.78223 0.09375,-0.30664 0.589839,-1.76268 1.488281,-4.36816 l 1.488281,0 -2.771484,7.3418 c -0.503909,1.34766 -1.343744,2.02148 -2.519531,2.02148 -0.304689,0 -0.601561,-0.0332 -0.890625,-0.0996 l 0,-1.08984 c 0.207032,0.0469 0.443358,0.0703 0.708984,0.0703 0.664066,0 1.130858,-0.38476 1.400391,-1.1543 L 73.517578,222 70.916016,215.51953 Z" />
  <path
     style="opacity:0.5;fill:#454856;fill-rule:evenodd;stroke:none;stroke-width:1"
     inkscape:connector-curvature="0"
     id="February"
     d="m 151.51953,222 -1.38867,0 0,-8.56641 4.83398,0 0,1.1836 -3.44531,0 0,2.67773 3.22852,0 0,1.18945 -3.22852,0 0,3.51563 z m 7.68164,0.11719 c -1.00782,0 -1.79589,-0.29395 -2.36426,-0.88184 -0.56836,-0.58789 -0.85254,-1.39745 -0.85254,-2.42871 0,-1.0586 0.26367,-1.89062 0.79102,-2.49609 0.52735,-0.60548 1.25195,-0.90821 2.17383,-0.90821 0.85547,0 1.53125,0.25977 2.02734,0.7793 0.4961,0.51953 0.74414,1.23437 0.74414,2.14453 l 0,0.74414 -4.31836,0 c 0.0195,0.62891 0.18945,1.1123 0.50977,1.4502 0.32031,0.33789 0.77148,0.50683 1.35351,0.50683 0.38282,0 0.73926,-0.0361 1.06934,-0.1084 0.33008,-0.0723 0.68457,-0.19238 1.06348,-0.36035 l 0,1.11914 c -0.33594,0.16016 -0.67578,0.27344 -1.01953,0.33985 -0.34376,0.0664 -0.73633,0.0996 -1.17774,0.0996 z m -0.25195,-5.67188 c -0.4375,0 -0.78809,0.13867 -1.05176,0.41602 -0.26367,0.27734 -0.4209,0.68164 -0.47168,1.21289 l 2.94141,0 c -0.008,-0.53516 -0.13672,-0.94043 -0.38672,-1.21582 -0.25,-0.27539 -0.59375,-0.41309 -1.03125,-0.41309 z m 7.64648,-1.04297 c 0.8086,0 1.43848,0.29297 1.88965,0.87891 0.45118,0.58594 0.67676,1.4082 0.67676,2.4668 0,1.0625 -0.22851,1.88964 -0.68555,2.48144 -0.45703,0.5918 -1.09179,0.8877 -1.90429,0.8877 -0.82032,0 -1.45703,-0.29492 -1.91016,-0.88477 l -0.0937,0 -0.25195,0.76758 -1.03125,0 0,-9.11719 1.37695,0 0,2.16797 c 0,0.16016 -0.008,0.39844 -0.0234,0.71484 -0.0156,0.31641 -0.0273,0.51758 -0.0351,0.60352 l 0.0586,0 c 0.4375,-0.64453 1.08203,-0.9668 1.93359,-0.9668 z m -0.35742,1.125 c -0.55469,0 -0.9541,0.16309 -1.19824,0.48926 -0.24414,0.32617 -0.37012,0.87207 -0.37793,1.6377 l 0,0.0937 c 0,0.78906 0.125,1.36035 0.375,1.71386 0.25,0.35352 0.6582,0.53028 1.22461,0.53028 0.48828,0 0.8584,-0.19336 1.11035,-0.58008 0.25195,-0.38672 0.37793,-0.94531 0.37793,-1.67578 0,-1.47267 -0.5039,-2.20899 -1.51172,-2.20899 z m 7.81055,-1.125 c 0.27734,0 0.50586,0.0195 0.68554,0.0586 l -0.13476,1.2832 c -0.19531,-0.0469 -0.39844,-0.0703 -0.60938,-0.0703 -0.55078,0 -0.99706,0.17968 -1.33886,0.53906 -0.3418,0.35938 -0.5127,0.82617 -0.5127,1.40039 l 0,3.38672 -1.37695,0 0,-6.48047 1.07812,0 0.18164,1.14258 0.0703,0 c 0.21484,-0.38672 0.49511,-0.69336 0.84082,-0.91992 0.3457,-0.22657 0.71777,-0.33985 1.11621,-0.33985 z m 6.45703,6.59766 -0.19336,-0.84961 -0.0703,0 c -0.19141,0.30078 -0.46387,0.53711 -0.81739,0.70898 -0.35351,0.17188 -0.75683,0.25782 -1.20996,0.25782 -0.78516,0 -1.37109,-0.19531 -1.75781,-0.58594 -0.38672,-0.39063 -0.58008,-0.98242 -0.58008,-1.77539 l 0,-4.23633 1.38867,0 0,3.99609 c 0,0.4961 0.10157,0.86817 0.30469,1.11622 0.20313,0.24804 0.52148,0.37207 0.95508,0.37207 0.57813,0 1.00293,-0.17285 1.27441,-0.51856 0.27149,-0.3457 0.40723,-0.9248 0.40723,-1.7373 l 0,-3.22852 1.38281,0 0,6.48047 -1.08398,0 z m 7.10156,0 -0.27539,-0.90234 -0.0469,0 c -0.31251,0.39453 -0.62696,0.66308 -0.94336,0.80566 -0.31641,0.14258 -0.72266,0.21387 -1.21875,0.21387 -0.63673,0 -1.13379,-0.17188 -1.49121,-0.51563 -0.35743,-0.34375 -0.53614,-0.83007 -0.53614,-1.45898 0,-0.66797 0.24805,-1.17188 0.74414,-1.51172 0.4961,-0.33985 1.25195,-0.52539 2.26758,-0.55664 l 1.11914,-0.0352 0,-0.3457 c 0,-0.41407 -0.0967,-0.72363 -0.29004,-0.92871 -0.19336,-0.20508 -0.49316,-0.30762 -0.89941,-0.30762 -0.33203,0 -0.65039,0.0488 -0.95508,0.14649 -0.30469,0.0976 -0.59765,0.21289 -0.87891,0.3457 l -0.44531,-0.98438 c 0.35157,-0.18359 0.73633,-0.32324 1.1543,-0.41894 0.41797,-0.0957 0.8125,-0.14356 1.18359,-0.14356 0.82423,0 1.44629,0.17969 1.86621,0.53907 0.41993,0.35937 0.62989,0.92382 0.62989,1.69336 l 0,4.36523 -0.98438,0 z m -2.05078,-0.9375 c 0.5,0 0.90137,-0.13965 1.2041,-0.41895 0.30274,-0.27929 0.4541,-0.67089 0.4541,-1.1748 l 0,-0.5625 -0.83203,0.0352 c -0.64844,0.0234 -1.12011,0.13183 -1.41504,0.32519 -0.29492,0.19336 -0.44238,0.48926 -0.44238,0.8877 0,0.28906 0.0859,0.51269 0.25781,0.67089 0.17188,0.15821 0.42969,0.23731 0.77344,0.23731 z m 8.24414,-5.66016 c 0.27735,0 0.50586,0.0195 0.68555,0.0586 l -0.13477,1.2832 c -0.19531,-0.0469 -0.39843,-0.0703 -0.60937,-0.0703 -0.55079,0 -0.99707,0.17968 -1.33887,0.53906 -0.3418,0.35938 -0.5127,0.82617 -0.5127,1.40039 l 0,3.38672 -1.37695,0 0,-6.48047 1.07813,0 0.18164,1.14258 0.0703,0 c 0.21484,-0.38672 0.49511,-0.69336 0.84082,-0.91992 0.3457,-0.22657 0.71777,-0.33985 1.11621,-0.33985 z m 0.90234,0.11719 1.5,0 1.31836,3.67383 c 0.19922,0.52344 0.33203,1.01562 0.39844,1.47656 l 0.0469,0 c 0.0351,-0.21484 0.0996,-0.47558 0.19336,-0.78223 0.0937,-0.30664 0.58984,-1.76268 1.48828,-4.36816 l 1.48828,0 -2.77149,7.3418 c -0.5039,1.34766 -1.34374,2.02148 -2.51953,2.02148 -0.30469,0 -0.60156,-0.0332 -0.89062,-0.0996 l 0,-1.08984 c 0.20703,0.0469 0.44336,0.0703 0.70898,0.0703 0.66407,0 1.13086,-0.38476 1.40039,-1.1543 L 197.30469,222 l -2.60157,-6.48047 z" />
  <path
     style="opacity:0.5;fill:#454856;fill-rule:evenodd;stroke:none;stroke-width:1"
     inkscape:connector-curvature="0"
     id="March"
     d="m 277.83398,222 -2.48437,-7.1543 -0.0469,0 c 0.0664,1.06251 0.0996,2.05859 0.0996,2.98828 l 0,4.16602 -1.27148,0 0,-8.56641 1.97461,0 2.3789,6.81446 0.0352,0 2.44922,-6.81446 1.98047,0 0,8.56641 -1.34766,0 0,-4.23633 c 0,-0.42578 0.0107,-0.98046 0.0322,-1.66406 0.0215,-0.6836 0.04,-1.09766 0.0557,-1.24219 l -0.0469,0 -2.57227,7.14258 -1.23633,0 z m 11.2793,0 -0.27539,-0.90234 -0.0469,0 c -0.31251,0.39453 -0.62696,0.66308 -0.94336,0.80566 -0.31641,0.14258 -0.72266,0.21387 -1.21875,0.21387 -0.63673,0 -1.13379,-0.17188 -1.49122,-0.51563 -0.35742,-0.34375 -0.53613,-0.83007 -0.53613,-1.45898 0,-0.66797 0.24805,-1.17188 0.74414,-1.51172 0.4961,-0.33985 1.25195,-0.52539 2.26758,-0.55664 l 1.11914,-0.0352 0,-0.3457 c 0,-0.41407 -0.0967,-0.72363 -0.29004,-0.92871 -0.19336,-0.20508 -0.49316,-0.30762 -0.89941,-0.30762 -0.33203,0 -0.65039,0.0488 -0.95508,0.14649 -0.30469,0.0976 -0.59765,0.21289 -0.87891,0.3457 l -0.44531,-0.98438 c 0.35157,-0.18359 0.73633,-0.32324 1.1543,-0.41894 0.41797,-0.0957 0.8125,-0.14356 1.18359,-0.14356 0.82423,0 1.44629,0.17969 1.86621,0.53907 0.41993,0.35937 0.62989,0.92382 0.62989,1.69336 l 0,4.36523 -0.98438,0 z m -2.05078,-0.9375 c 0.5,0 0.90137,-0.13965 1.2041,-0.41895 0.30274,-0.27929 0.4541,-0.67089 0.4541,-1.1748 l 0,-0.5625 -0.83203,0.0352 c -0.64844,0.0234 -1.12011,0.13183 -1.41504,0.32519 -0.29492,0.19336 -0.44238,0.48926 -0.44238,0.8877 0,0.28906 0.0859,0.51269 0.25781,0.67089 0.17188,0.15821 0.42969,0.23731 0.77344,0.23731 z m 8.24414,-5.66016 c 0.27735,0 0.50586,0.0195 0.68555,0.0586 l -0.13477,1.2832 c -0.19531,-0.0469 -0.39844,-0.0703 -0.60937,-0.0703 -0.55079,0 -0.99707,0.17968 -1.33887,0.53906 -0.3418,0.35938 -0.5127,0.82617 -0.5127,1.40039 l 0,3.38672 -1.37695,0 0,-6.48047 1.07813,0 0.18164,1.14258 0.0703,0 c 0.21484,-0.38672 0.49511,-0.69336 0.84082,-0.91992 0.3457,-0.22657 0.71777,-0.33985 1.11621,-0.33985 z m 4.5,6.71485 c -0.98047,0 -1.72558,-0.28613 -2.23535,-0.8584 -0.50977,-0.57227 -0.76465,-1.39355 -0.76465,-2.46387 0,-1.08985 0.2666,-1.92773 0.7998,-2.51367 0.53321,-0.58594 1.30371,-0.87891 2.31153,-0.87891 0.6836,0 1.29882,0.12696 1.8457,0.38086 l -0.41601,1.10742 c -0.58204,-0.22656 -1.0625,-0.33984 -1.44141,-0.33984 -1.1211,0 -1.68164,0.74413 -1.68164,2.23242 0,0.72657 0.13965,1.27246 0.41894,1.6377 0.2793,0.36523 0.68848,0.54785 1.22754,0.54785 0.61329,0 1.19336,-0.15234 1.74024,-0.45703 l 0,1.20117 c -0.2461,0.14453 -0.50879,0.24805 -0.78809,0.31055 -0.2793,0.0625 -0.61816,0.0937 -1.0166,0.0937 z m 9.0293,-0.11719 -1.38282,0 0,-3.98438 c 0,-0.5 -0.10058,-0.87304 -0.30175,-1.11914 -0.20118,-0.24609 -0.52051,-0.36914 -0.95801,-0.36914 -0.57813,0 -1.00293,0.17285 -1.27442,0.51856 -0.27148,0.3457 -0.40722,0.9248 -0.40722,1.7373 l 0,3.2168 -1.37695,0 0,-9.11719 1.37695,0 0,2.31446 c 0,0.37109 -0.0234,0.76757 -0.0703,1.18945 l 0.0879,0 c 0.1875,-0.3125 0.44824,-0.55469 0.78222,-0.72656 0.33399,-0.17188 0.72363,-0.25782 1.16895,-0.25782 1.57032,0 2.35547,0.79101 2.35547,2.37305 l 0,4.22461 z" />
  <path
     style="opacity:0.5;fill:#454856;fill-rule:evenodd;stroke:none;stroke-width:1"
     inkscape:connector-curvature="0"
     id="April"
     d="m 387.44531,222 -0.85547,-2.37891 -3.27539,0 L 382.47656,222 381,222 l 3.20508,-8.60156 1.52344,0 3.20507,8.60156 -1.48828,0 z m -1.22461,-3.58594 -0.80273,-2.33203 c -0.0586,-0.15625 -0.13965,-0.40234 -0.24317,-0.73828 -0.10351,-0.33594 -0.1748,-0.58203 -0.21386,-0.73828 -0.10547,0.48047 -0.25977,1.00585 -0.46289,1.57617 l -0.77344,2.23242 2.49609,0 z m 6.98438,3.70313 c -0.82032,0 -1.45703,-0.29492 -1.91016,-0.88477 l -0.082,0 c 0.0547,0.54688 0.082,0.87891 0.082,0.9961 l 0,2.65429 -1.37695,0 0,-9.36328 1.11328,0 c 0.0312,0.1211 0.0957,0.41015 0.19336,0.86719 l 0.0703,0 c 0.42969,-0.65626 1.07422,-0.98438 1.9336,-0.98438 0.80859,0 1.43847,0.29297 1.88964,0.87891 0.45118,0.58594 0.67676,1.4082 0.67676,2.4668 0,1.0586 -0.22949,1.88476 -0.68848,2.47851 -0.45898,0.59375 -1.09276,0.89063 -1.90136,0.89063 z m -0.33399,-5.58985 c -0.54687,0 -0.94628,0.16016 -1.19824,0.48047 -0.25195,0.32032 -0.37793,0.83203 -0.37793,1.53516 l 0,0.20508 c 0,0.78906 0.125,1.36035 0.375,1.71386 0.25,0.35352 0.6582,0.53028 1.22461,0.53028 0.47657,0 0.84375,-0.19531 1.10156,-0.58594 0.25782,-0.39063 0.38672,-0.94726 0.38672,-1.66992 0,-0.72657 -0.12793,-1.27637 -0.38379,-1.64942 -0.25586,-0.37305 -0.63183,-0.55957 -1.12793,-0.55957 z m 7.81055,-1.125 c 0.27735,0 0.50586,0.0195 0.68555,0.0586 l -0.13477,1.2832 c -0.19531,-0.0469 -0.39844,-0.0703 -0.60937,-0.0703 -0.55079,0 -0.99707,0.17968 -1.33887,0.53906 -0.3418,0.35938 -0.5127,0.82617 -0.5127,1.40039 l 0,3.38672 -1.37695,0 0,-6.48047 1.07813,0 0.18164,1.14258 0.0703,0 c 0.21484,-0.38672 0.49511,-0.69336 0.84082,-0.91992 0.3457,-0.22657 0.71777,-0.33985 1.11621,-0.33985 z m 3.26367,6.59766 -1.37695,0 0,-6.48047 1.37695,0 0,6.48047 z m -1.45898,-8.19727 c 0,-0.24609 0.0674,-0.43554 0.20215,-0.56836 0.13476,-0.13281 0.32714,-0.19921 0.57714,-0.19921 0.24219,0 0.43067,0.0664 0.56543,0.19921 0.13477,0.13282 0.20215,0.32227 0.20215,0.56836 0,0.23438 -0.0674,0.41895 -0.20215,0.55371 -0.13476,0.13477 -0.32324,0.20215 -0.56543,0.20215 -0.25,0 -0.44238,-0.0674 -0.57714,-0.20215 -0.13477,-0.13476 -0.20215,-0.31933 -0.20215,-0.55371 z m 4.80469,8.19727 -1.37696,0 0,-9.11719 1.37696,0 0,9.11719 z" />
  <path
     style="opacity:0.5;fill:#454856;fill-rule:evenodd;stroke:none;stroke-width:1"
     inkscape:connector-curvature="0"
     id="May"
     d="m 484.83398,222 -2.48437,-7.1543 -0.0469,0 c 0.0664,1.06251 0.0996,2.05859 0.0996,2.98828 l 0,4.16602 -1.27148,0 0,-8.56641 1.97461,0 2.3789,6.81446 0.0352,0 2.44922,-6.81446 1.98047,0 0,8.56641 -1.34766,0 0,-4.23633 c 0,-0.42578 0.0107,-0.98046 0.0322,-1.66406 0.0215,-0.6836 0.04,-1.09766 0.0557,-1.24219 l -0.0469,0 -2.57227,7.14258 -1.23633,0 z m 11.2793,0 -0.27539,-0.90234 -0.0469,0 c -0.31251,0.39453 -0.62696,0.66308 -0.94336,0.80566 -0.31641,0.14258 -0.72266,0.21387 -1.21875,0.21387 -0.63673,0 -1.13379,-0.17188 -1.49122,-0.51563 -0.35742,-0.34375 -0.53613,-0.83007 -0.53613,-1.45898 0,-0.66797 0.24805,-1.17188 0.74414,-1.51172 0.4961,-0.33985 1.25195,-0.52539 2.26758,-0.55664 l 1.11914,-0.0352 0,-0.3457 c 0,-0.41407 -0.0967,-0.72363 -0.29004,-0.92871 -0.19336,-0.20508 -0.49316,-0.30762 -0.89941,-0.30762 -0.33203,0 -0.65039,0.0488 -0.95508,0.14649 -0.30469,0.0976 -0.59765,0.21289 -0.87891,0.3457 l -0.44531,-0.98438 c 0.35157,-0.18359 0.73633,-0.32324 1.1543,-0.41894 0.41797,-0.0957 0.8125,-0.14356 1.18359,-0.14356 0.82423,0 1.44629,0.17969 1.86621,0.53907 0.41993,0.35937 0.62989,0.92382 0.62989,1.69336 l 0,4.36523 -0.98438,0 z m -2.05078,-0.9375 c 0.5,0 0.90137,-0.13965 1.2041,-0.41895 0.30274,-0.27929 0.4541,-0.67089 0.4541,-1.1748 l 0,-0.5625 -0.83203,0.0352 c -0.64844,0.0234 -1.12011,0.13183 -1.41504,0.32519 -0.29492,0.19336 -0.44238,0.48926 -0.44238,0.8877 0,0.28906 0.0859,0.51269 0.25781,0.67089 0.17188,0.15821 0.42969,0.23731 0.77344,0.23731 z m 3.97266,-5.54297 1.5,0 1.31836,3.67383 c 0.19921,0.52344 0.33203,1.01562 0.39843,1.47656 l 0.0469,0 c 0.0351,-0.21484 0.0996,-0.47558 0.19336,-0.78223 0.0937,-0.30664 0.58984,-1.76268 1.48828,-4.36816 l 1.48828,0 -2.77148,7.3418 c -0.50391,1.34766 -1.34375,2.02148 -2.51954,2.02148 -0.30469,0 -0.60156,-0.0332 -0.89062,-0.0996 l 0,-1.08984 c 0.20703,0.0469 0.44336,0.0703 0.70898,0.0703 0.66407,0 1.13086,-0.38476 1.40039,-1.1543 L 500.63672,222 l -2.60156,-6.48047 z" />
  <path
     style="opacity:0.5;fill:#454856;fill-rule:evenodd;stroke:none;stroke-width:1"
     inkscape:connector-curvature="0"
     id="June"
     d="m 576.04687,224.39062 c -0.38281,0 -0.70312,-0.0488 -0.96093,-0.14648 l 0,-1.17773 c 0.32812,0.082 0.61328,0.12304 0.85547,0.12304 0.76563,0 1.14843,-0.48437 1.14843,-1.45312 l 0,-8.30274 1.40625,0 0,8.25586 c 0,0.87501 -0.208,1.54395 -0.62402,2.00684 -0.41602,0.46289 -1.02441,0.69433 -1.8252,0.69433 z M 585.14062,222 l -0.19335,-0.84961 -0.0703,0 c -0.1914,0.30078 -0.46386,0.53711 -0.81738,0.70898 -0.35352,0.17188 -0.75683,0.25782 -1.20996,0.25782 -0.78516,0 -1.37109,-0.19531 -1.75781,-0.58594 -0.38672,-0.39063 -0.58008,-0.98242 -0.58008,-1.77539 l 0,-4.23633 1.38867,0 0,3.99609 c 0,0.4961 0.10156,0.86817 0.30469,1.11622 0.20312,0.24804 0.52148,0.37207 0.95508,0.37207 0.57812,0 1.00293,-0.17285 1.27441,-0.51856 0.27149,-0.3457 0.40723,-0.9248 0.40723,-1.7373 l 0,-3.22852 1.38281,0 0,6.48047 -1.08399,0 z m 8.74805,0 -1.38281,0 0,-3.98438 c 0,-0.5 -0.10059,-0.87304 -0.30176,-1.11914 -0.20117,-0.24609 -0.5205,-0.36914 -0.95801,-0.36914 -0.58203,0 -1.00781,0.17188 -1.27734,0.51563 -0.26953,0.34375 -0.4043,0.91992 -0.4043,1.72851 l 0,3.22852 -1.37695,0 0,-6.48047 1.07812,0 0.19336,0.84961 0.0703,0 c 0.19531,-0.3086 0.47265,-0.54687 0.83203,-0.71484 0.35937,-0.16797 0.75781,-0.25196 1.19531,-0.25196 1.5547,0 2.33203,0.79101 2.33203,2.37305 l 0,4.22461 z m 4.7461,0.11719 c -1.00782,0 -1.7959,-0.29395 -2.36426,-0.88184 -0.56836,-0.58789 -0.85254,-1.39745 -0.85254,-2.42871 0,-1.0586 0.26367,-1.89062 0.79101,-2.49609 0.52735,-0.60548 1.25195,-0.90821 2.17383,-0.90821 0.85548,0 1.53125,0.25977 2.02735,0.7793 0.49609,0.51953 0.74414,1.23437 0.74414,2.14453 l 0,0.74414 -4.31836,0 c 0.0195,0.62891 0.18945,1.1123 0.50976,1.4502 0.32032,0.33789 0.77148,0.50683 1.35352,0.50683 0.38281,0 0.73926,-0.0361 1.06933,-0.1084 0.33008,-0.0723 0.68457,-0.19238 1.06348,-0.36035 l 0,1.11914 c -0.33594,0.16016 -0.67578,0.27344 -1.01953,0.33985 -0.34375,0.0664 -0.73633,0.0996 -1.17773,0.0996 z m -0.25196,-5.67188 c -0.4375,0 -0.78808,0.13867 -1.05176,0.41602 -0.26367,0.27734 -0.42089,0.68164 -0.47168,1.21289 l 2.94141,0 c -0.008,-0.53516 -0.13672,-0.94043 -0.38672,-1.21582 -0.25,-0.27539 -0.59374,-0.41309 -1.03125,-0.41309 z" />
  <path
     style="opacity:0.5;fill:#454856;fill-rule:evenodd;stroke:none;stroke-width:1"
     inkscape:connector-curvature="0"
     id="July"
     d="m 673.04687,224.39062 c -0.38281,0 -0.70312,-0.0488 -0.96093,-0.14648 l 0,-1.17773 c 0.32812,0.082 0.61328,0.12304 0.85547,0.12304 0.76563,0 1.14843,-0.48437 1.14843,-1.45312 l 0,-8.30274 1.40625,0 0,8.25586 c 0,0.87501 -0.208,1.54395 -0.62402,2.00684 -0.41602,0.46289 -1.02441,0.69433 -1.8252,0.69433 z M 682.14062,222 l -0.19335,-0.84961 -0.0703,0 c -0.1914,0.30078 -0.46386,0.53711 -0.81738,0.70898 -0.35352,0.17188 -0.75683,0.25782 -1.20996,0.25782 -0.78516,0 -1.37109,-0.19531 -1.75781,-0.58594 -0.38672,-0.39063 -0.58008,-0.98242 -0.58008,-1.77539 l 0,-4.23633 1.38867,0 0,3.99609 c 0,0.4961 0.10156,0.86817 0.30469,1.11622 0.20312,0.24804 0.52148,0.37207 0.95508,0.37207 0.57812,0 1.00293,-0.17285 1.27441,-0.51856 0.27149,-0.3457 0.40723,-0.9248 0.40723,-1.7373 l 0,-3.22852 1.38281,0 0,6.48047 -1.08399,0 z m 4.42383,0 -1.37695,0 0,-9.11719 1.37695,0 0,9.11719 z m 0.98438,-6.48047 1.5,0 1.31836,3.67383 c 0.19922,0.52344 0.33203,1.01562 0.39843,1.47656 l 0.0469,0 c 0.0352,-0.21484 0.0996,-0.47558 0.19336,-0.78223 0.0937,-0.30664 0.58984,-1.76268 1.48828,-4.36816 l 1.48828,0 -2.77148,7.3418 c -0.50391,1.34766 -1.34375,2.02148 -2.51953,2.02148 -0.30469,0 -0.60157,-0.0332 -0.89063,-0.0996 l 0,-1.08984 c 0.20703,0.0469 0.44336,0.0703 0.70899,0.0703 0.66406,0 1.13085,-0.38476 1.40039,-1.1543 L 690.15039,222 l -2.60156,-6.48047 z" />
  <path
     style="opacity:0.5;fill:#454856;fill-rule:evenodd;stroke:none;stroke-width:1"
     inkscape:connector-curvature="0"
     id="August"
     d="m 771.44531,222 -0.85547,-2.37891 -3.27539,0 L 766.47656,222 765,222 l 3.20508,-8.60156 1.52344,0 3.20507,8.60156 -1.48828,0 z m -1.22461,-3.58594 -0.80273,-2.33203 c -0.0586,-0.15625 -0.13965,-0.40234 -0.24317,-0.73828 -0.10351,-0.33594 -0.1748,-0.58203 -0.21386,-0.73828 -0.10547,0.48047 -0.25977,1.00585 -0.46289,1.57617 l -0.77344,2.23242 2.49609,0 z m 8.26758,3.58594 -0.19336,-0.84961 -0.0703,0 c -0.19141,0.30078 -0.46387,0.53711 -0.81738,0.70898 -0.35352,0.17188 -0.75684,0.25782 -1.20996,0.25782 -0.78517,0 -1.3711,-0.19531 -1.75782,-0.58594 -0.38672,-0.39063 -0.58008,-0.98242 -0.58008,-1.77539 l 0,-4.23633 1.38868,0 0,3.99609 c 0,0.4961 0.10156,0.86817 0.30468,1.11622 0.20313,0.24804 0.52149,0.37207 0.95508,0.37207 0.57813,0 1.00293,-0.17285 1.27442,-0.51856 0.27148,-0.3457 0.40722,-0.9248 0.40722,-1.7373 l 0,-3.22852 1.38282,0 0,6.48047 -1.08399,0 z m 8.51953,-6.48047 0,0.75586 -1.10742,0.20508 c 0.10156,0.13672 0.18555,0.30468 0.25195,0.5039 0.0664,0.19922 0.0996,0.41016 0.0996,0.63282 0,0.66797 -0.23046,1.19335 -0.6914,1.57617 -0.46094,0.38281 -1.0957,0.57422 -1.9043,0.57422 -0.20703,0 -0.39453,-0.0156 -0.5625,-0.0469 -0.29688,0.1836 -0.44531,0.39844 -0.44531,0.64453 0,0.14844 0.0693,0.25977 0.208,0.33399 0.13868,0.0742 0.39356,0.11133 0.76465,0.11133 l 1.13086,0 c 0.71485,0 1.25781,0.15234 1.62891,0.45703 0.37109,0.30469 0.55664,0.74414 0.55664,1.31836 0,0.73438 -0.30273,1.30078 -0.9082,1.69922 -0.60548,0.39844 -1.48047,0.59765 -2.625,0.59765 -0.88282,0 -1.55664,-0.15625 -2.02149,-0.46875 -0.46484,-0.3125 -0.69726,-0.75781 -0.69726,-1.33594 0,-0.39843 0.12597,-0.73339 0.37793,-1.00488 0.25195,-0.27148 0.60449,-0.45996 1.05761,-0.56543 -0.18359,-0.0781 -0.33496,-0.2041 -0.4541,-0.37793 -0.11914,-0.17383 -0.17871,-0.35644 -0.17871,-0.54785 0,-0.24219 0.0684,-0.44726 0.20508,-0.61523 0.13672,-0.16797 0.33984,-0.33399 0.60937,-0.49805 -0.33593,-0.14453 -0.60839,-0.37988 -0.81738,-0.70606 -0.20898,-0.32617 -0.31348,-0.708 -0.31348,-1.1455 0,-0.70313 0.22168,-1.24805 0.66504,-1.63477 0.44337,-0.38672 1.07519,-0.58008 1.89551,-0.58008 0.1836,0 0.37598,0.0127 0.57715,0.0381 0.20117,0.0254 0.35254,0.0518 0.4541,0.0791 l 2.24414,0 z m -5.09179,7.48828 c 0,0.29688 0.13378,0.52539 0.40136,0.68555 0.26758,0.16016 0.64355,0.24023 1.12793,0.24023 0.75001,0 1.30859,-0.10742 1.67578,-0.32226 0.36719,-0.21485 0.55078,-0.5 0.55078,-0.85547 0,-0.28125 -0.10058,-0.48145 -0.30175,-0.60059 -0.20118,-0.11914 -0.57519,-0.17871 -1.12207,-0.17871 l -1.04297,0 c -0.39453,0 -0.70801,0.0928 -0.94043,0.27832 -0.23242,0.18555 -0.34863,0.43652 -0.34863,0.75293 z m 0.59179,-5.39062 c 0,0.40625 0.10449,0.71875 0.31348,0.9375 0.20898,0.21875 0.50879,0.32812 0.89941,0.32812 0.79688,0 1.19532,-0.42577 1.19532,-1.27734 0,-0.42188 -0.0986,-0.74707 -0.2959,-0.97559 -0.19727,-0.22851 -0.49707,-0.34277 -0.89942,-0.34277 -0.39844,0 -0.70019,0.11328 -0.90527,0.33984 -0.20508,0.22657 -0.30762,0.55664 -0.30762,0.99024 z M 792.7793,222 l -0.19336,-0.84961 -0.0703,0 c -0.1914,0.30078 -0.46386,0.53711 -0.81738,0.70898 -0.35351,0.17188 -0.75683,0.25782 -1.20996,0.25782 -0.78516,0 -1.37109,-0.19531 -1.75781,-0.58594 -0.38672,-0.39063 -0.58008,-0.98242 -0.58008,-1.77539 l 0,-4.23633 1.38867,0 0,3.99609 c 0,0.4961 0.10156,0.86817 0.30469,1.11622 0.20313,0.24804 0.52148,0.37207 0.95508,0.37207 0.57813,0 1.00293,-0.17285 1.27441,-0.51856 0.27149,-0.3457 0.40723,-0.9248 0.40723,-1.7373 l 0,-3.22852 1.38281,0 0,6.48047 -1.08398,0 z m 7.40039,-1.8457 c 0,0.63281 -0.23047,1.11816 -0.69141,1.45605 -0.46094,0.33789 -1.12109,0.50684 -1.98047,0.50684 -0.86328,0 -1.55664,-0.13086 -2.08008,-0.39258 l 0,-1.18945 c 0.76173,0.35156 1.4707,0.52734 2.12696,0.52734 0.84766,0 1.27148,-0.25586 1.27148,-0.76758 0,-0.16406 -0.0469,-0.30078 -0.14062,-0.41015 -0.0937,-0.10938 -0.24805,-0.22266 -0.46289,-0.33985 -0.21485,-0.11719 -0.51367,-0.25 -0.89649,-0.39844 -0.7461,-0.28906 -1.25097,-0.57812 -1.51465,-0.86718 -0.26367,-0.28907 -0.3955,-0.66406 -0.3955,-1.125 0,-0.55469 0.22363,-0.98535 0.67089,-1.292 0.44727,-0.30664 1.05566,-0.45996 1.8252,-0.45996 0.76172,0 1.48242,0.1543 2.16211,0.46289 l -0.44531,1.03711 c -0.69923,-0.28906 -1.28711,-0.43359 -1.76368,-0.43359 -0.72656,0 -1.08984,0.20703 -1.08984,0.62109 0,0.20313 0.0947,0.375 0.28418,0.51563 0.18945,0.14062 0.60254,0.33398 1.23926,0.58008 0.53516,0.20703 0.92383,0.39648 1.16601,0.56836 0.24219,0.17187 0.42188,0.37011 0.53907,0.59472 0.11718,0.22461 0.17578,0.49316 0.17578,0.80567 z m 3.90234,0.84961 c 0.33594,0 0.67188,-0.0527 1.00781,-0.15821 l 0,1.03711 c -0.15234,0.0664 -0.34863,0.12207 -0.58886,0.16699 -0.24024,0.0449 -0.48926,0.0674 -0.74707,0.0674 -1.3047,0 -1.95704,-0.6875 -1.95704,-2.0625 l 0,-3.49219 -0.88476,0 0,-0.60938 0.94922,-0.5039 0.46875,-1.3711 0.84961,0 0,1.44141 1.8457,0 0,1.04297 -1.8457,0 0,3.46875 c 0,0.33203 0.083,0.57715 0.24902,0.73535 0.16602,0.1582 0.38379,0.23731 0.65332,0.23731 z" />
  <path
     style="opacity:0.5;fill:#454856;fill-rule:evenodd;stroke:none;stroke-width:1"
     inkscape:connector-curvature="0"
     id="September"
     d="m 883.07031,219.67383 c 0,0.76172 -0.27538,1.35937 -0.82617,1.79297 -0.55078,0.43359 -1.31054,0.65039 -2.2793,0.65039 -0.96875,0 -1.76171,-0.15039 -2.3789,-0.45117 l 0,-1.32422 c 0.39062,0.18359 0.80566,0.32812 1.24511,0.43359 0.43946,0.10547 0.84864,0.1582 1.22754,0.1582 0.55469,0 0.96387,-0.10546 1.22754,-0.3164 0.26368,-0.21094 0.39551,-0.49414 0.39551,-0.84961 0,-0.32032 -0.12109,-0.5918 -0.36328,-0.81446 -0.24219,-0.22265 -0.74218,-0.48632 -1.5,-0.79101 -0.78126,-0.31641 -1.33203,-0.67773 -1.65234,-1.08399 -0.32032,-0.40625 -0.48047,-0.89452 -0.48047,-1.46484 0,-0.71485 0.2539,-1.27734 0.76172,-1.6875 0.50781,-0.41016 1.18944,-0.61523 2.04492,-0.61523 0.82031,0 1.63671,0.17968 2.44922,0.53906 l -0.44532,1.14258 c -0.76172,-0.32032 -1.4414,-0.48047 -2.03906,-0.48047 -0.45313,0 -0.79687,0.0986 -1.03125,0.2959 -0.23437,0.19726 -0.35156,0.458 -0.35156,0.78222 0,0.22266 0.0469,0.41309 0.14062,0.57129 0.0937,0.15821 0.24805,0.30762 0.46289,0.44824 0.21485,0.14063 0.60156,0.32618 1.16016,0.55665 0.62891,0.26172 1.08984,0.50585 1.38281,0.73242 0.29297,0.22656 0.50782,0.48242 0.64453,0.76758 0.13672,0.28515 0.20508,0.62109 0.20508,1.00781 z m 4.3418,2.44336 c -1.00782,0 -1.7959,-0.29395 -2.36426,-0.88184 -0.56836,-0.58789 -0.85254,-1.39745 -0.85254,-2.42871 0,-1.0586 0.26367,-1.89062 0.79102,-2.49609 0.52735,-0.60548 1.25195,-0.90821 2.17383,-0.90821 0.85547,0 1.53124,0.25977 2.02734,0.7793 0.4961,0.51953 0.74414,1.23437 0.74414,2.14453 l 0,0.74414 -4.31836,0 c 0.0195,0.62891 0.18945,1.1123 0.50977,1.4502 0.32031,0.33789 0.77148,0.50683 1.35351,0.50683 0.38282,0 0.73926,-0.0361 1.06934,-0.1084 0.33008,-0.0723 0.68457,-0.19238 1.06347,-0.36035 l 0,1.11914 c -0.33593,0.16016 -0.67578,0.27344 -1.01953,0.33985 -0.34375,0.0664 -0.73632,0.0996 -1.17773,0.0996 z m -0.25195,-5.67188 c -0.43751,0 -0.78809,0.13867 -1.05176,0.41602 -0.26367,0.27734 -0.4209,0.68164 -0.47168,1.21289 l 2.9414,0 c -0.008,-0.53516 -0.13671,-0.94043 -0.38671,-1.21582 -0.25,-0.27539 -0.59375,-0.41309 -1.03125,-0.41309 z m 7.62304,5.67188 c -0.82031,0 -1.45703,-0.29492 -1.91015,-0.88477 l -0.082,0 c 0.0547,0.54688 0.082,0.87891 0.082,0.9961 l 0,2.65429 -1.37696,0 0,-9.36328 1.11328,0 c 0.0312,0.1211 0.0957,0.41015 0.19336,0.86719 l 0.0703,0 c 0.42969,-0.65626 1.07421,-0.98438 1.93359,-0.98438 0.8086,0 1.43848,0.29297 1.88965,0.87891 0.45117,0.58594 0.67676,1.4082 0.67676,2.4668 0,1.0586 -0.22949,1.88476 -0.68848,2.47851 -0.45899,0.59375 -1.09277,0.89063 -1.90137,0.89063 z m -0.33398,-5.58985 c -0.54688,0 -0.94629,0.16016 -1.19824,0.48047 -0.25196,0.32032 -0.37793,0.83203 -0.37793,1.53516 l 0,0.20508 c 0,0.78906 0.125,1.36035 0.375,1.71386 0.25,0.35352 0.6582,0.53028 1.22461,0.53028 0.47656,0 0.84375,-0.19531 1.10156,-0.58594 0.25781,-0.39063 0.38672,-0.94726 0.38672,-1.66992 0,-0.72657 -0.12793,-1.27637 -0.38379,-1.64942 -0.25586,-0.37305 -0.63183,-0.55957 -1.12793,-0.55957 z m 6.9375,4.47657 c 0.33594,0 0.67187,-0.0527 1.00781,-0.15821 l 0,1.03711 c -0.15234,0.0664 -0.34863,0.12207 -0.58887,0.16699 -0.24023,0.0449 -0.48925,0.0674 -0.74707,0.0674 -1.30469,0 -1.95703,-0.6875 -1.95703,-2.0625 l 0,-3.49219 -0.88476,0 0,-0.60938 0.94922,-0.5039 0.46875,-1.3711 0.8496,0 0,1.44141 1.84571,0 0,1.04297 -1.84571,0 0,3.46875 c 0,0.33203 0.083,0.57715 0.24903,0.73535 0.16601,0.1582 0.38379,0.23731 0.65332,0.23731 z m 5.13281,1.11328 c -1.00782,0 -1.79589,-0.29395 -2.36426,-0.88184 -0.56836,-0.58789 -0.85254,-1.39745 -0.85254,-2.42871 0,-1.0586 0.26367,-1.89062 0.79102,-2.49609 0.52735,-0.60548 1.25195,-0.90821 2.17383,-0.90821 0.85547,0 1.53125,0.25977 2.02734,0.7793 0.4961,0.51953 0.74414,1.23437 0.74414,2.14453 l 0,0.74414 -4.31836,0 c 0.0195,0.62891 0.18946,1.1123 0.50977,1.4502 0.32031,0.33789 0.77148,0.50683 1.35351,0.50683 0.38282,0 0.73926,-0.0361 1.06934,-0.1084 0.33008,-0.0723 0.68457,-0.19238 1.06348,-0.36035 l 0,1.11914 c -0.33594,0.16016 -0.67578,0.27344 -1.01953,0.33985 -0.34376,0.0664 -0.73633,0.0996 -1.17774,0.0996 z m -0.25195,-5.67188 c -0.4375,0 -0.78809,0.13867 -1.05176,0.41602 -0.26367,0.27734 -0.4209,0.68164 -0.47168,1.21289 l 2.94141,0 c -0.008,-0.53516 -0.13672,-0.94043 -0.38672,-1.21582 -0.25,-0.27539 -0.59375,-0.41309 -1.03125,-0.41309 z m 9.79687,5.55469 -1.38281,0 0,-3.99609 c 0,-0.4961 -0.0937,-0.86621 -0.28125,-1.11036 -0.1875,-0.24414 -0.48047,-0.36621 -0.87891,-0.36621 -0.53125,0 -0.92089,0.17285 -1.16894,0.51856 -0.24805,0.3457 -0.37207,0.92089 -0.37207,1.72558 l 0,3.22852 -1.37695,0 0,-6.48047 1.07812,0 0.19336,0.84961 0.0703,0 c 0.17969,-0.3086 0.44043,-0.54687 0.78223,-0.71484 0.3418,-0.16797 0.71777,-0.25196 1.12793,-0.25196 0.9961,0 1.65625,0.33984 1.98047,1.01953 l 0.0937,0 c 0.1914,-0.32031 0.46093,-0.57031 0.80859,-0.75 0.34766,-0.17968 0.74609,-0.26953 1.19531,-0.26953 0.77345,0 1.33692,0.19531 1.69043,0.58594 0.35352,0.39063 0.53028,0.98632 0.53028,1.78711 l 0,4.22461 -1.37696,0 0,-3.99609 c 0,-0.4961 -0.0947,-0.86621 -0.28418,-1.11036 -0.18945,-0.24414 -0.48339,-0.36621 -0.88183,-0.36621 -0.53516,0 -0.92676,0.16699 -1.17481,0.50098 -0.24804,0.33399 -0.37207,0.84668 -0.37207,1.53809 l 0,3.43359 z m 9.32227,-6.59766 c 0.8086,0 1.43847,0.29297 1.88965,0.87891 0.45117,0.58594 0.67675,1.4082 0.67675,2.4668 0,1.0625 -0.22851,1.88964 -0.68554,2.48144 -0.45703,0.5918 -1.09179,0.8877 -1.9043,0.8877 -0.82032,0 -1.45703,-0.29492 -1.91016,-0.88477 l -0.0937,0 -0.25195,0.76758 -1.03125,0 0,-9.11719 1.37695,0 0,2.16797 c 0,0.16016 -0.008,0.39844 -0.0234,0.71484 -0.0156,0.31641 -0.0274,0.51758 -0.0352,0.60352 l 0.0586,0 c 0.43751,-0.64453 1.08203,-0.9668 1.9336,-0.9668 z m -0.35742,1.125 c -0.55469,0 -0.9541,0.16309 -1.19825,0.48926 -0.24414,0.32617 -0.37011,0.87207 -0.37793,1.6377 l 0,0.0937 c 0,0.78906 0.125,1.36035 0.375,1.71386 0.25001,0.35352 0.6582,0.53028 1.22461,0.53028 0.48829,0 0.8584,-0.19336 1.11036,-0.58008 0.25195,-0.38672 0.37793,-0.94531 0.37793,-1.67578 0,-1.47267 -0.50391,-2.20899 -1.51172,-2.20899 z m 7.35351,5.58985 c -1.00781,0 -1.79589,-0.29395 -2.36426,-0.88184 -0.56836,-0.58789 -0.85253,-1.39745 -0.85253,-2.42871 0,-1.0586 0.26366,-1.89062 0.79101,-2.49609 0.52735,-0.60548 1.25195,-0.90821 2.17383,-0.90821 0.85547,0 1.53125,0.25977 2.02734,0.7793 0.4961,0.51953 0.74414,1.23437 0.74414,2.14453 l 0,0.74414 -4.31836,0 c 0.0195,0.62891 0.18946,1.1123 0.50977,1.4502 0.32031,0.33789 0.77148,0.50683 1.35352,0.50683 0.38281,0 0.73925,-0.0361 1.06933,-0.1084 0.33008,-0.0723 0.68457,-0.19238 1.06348,-0.36035 l 0,1.11914 c -0.33594,0.16016 -0.67578,0.27344 -1.01953,0.33985 -0.34375,0.0664 -0.73633,0.0996 -1.17774,0.0996 z m -0.25195,-5.67188 c -0.4375,0 -0.78809,0.13867 -1.05176,0.41602 -0.26367,0.27734 -0.4209,0.68164 -0.47168,1.21289 l 2.94141,0 c -0.008,-0.53516 -0.13672,-0.94043 -0.38672,-1.21582 -0.25,-0.27539 -0.59375,-0.41309 -1.03125,-0.41309 z m 7.62305,-1.04297 c 0.27734,0 0.50586,0.0195 0.68554,0.0586 l -0.13476,1.2832 c -0.19532,-0.0469 -0.39844,-0.0703 -0.60938,-0.0703 -0.55078,0 -0.99707,0.17968 -1.33887,0.53906 -0.34179,0.35938 -0.51269,0.82617 -0.51269,1.40039 l 0,3.38672 -1.37695,0 0,-6.48047 1.07812,0 0.18164,1.14258 0.0703,0 c 0.21485,-0.38672 0.49512,-0.69336 0.84082,-0.91992 0.34571,-0.22657 0.71778,-0.33985 1.11622,-0.33985 z" />
  <path
     style="opacity:0.5;fill:#454856;fill-rule:evenodd;stroke:none;stroke-width:1"
     inkscape:connector-curvature="0"
     id="October"
     d="m 1020.7363,217.70508 c 0,1.39454 -0.3486,2.47851 -1.0459,3.25195 -0.6972,0.77344 -1.6845,1.16016 -2.9619,1.16016 -1.293,0 -2.2861,-0.38379 -2.9795,-1.15137 -0.6933,-0.76758 -1.04,-1.85839 -1.04,-3.27246 0,-1.41407 0.3486,-2.5 1.0459,-3.25781 0.6972,-0.75782 1.6924,-1.13672 2.9853,-1.13672 1.2735,0 2.2578,0.38476 2.9532,1.15429 0.6953,0.76954 1.0429,1.85351 1.0429,3.25196 z m -6.539,0 c 0,1.05469 0.2129,1.85449 0.6386,2.39941 0.4258,0.54493 1.0567,0.81738 1.8926,0.81738 0.8321,0 1.46,-0.26952 1.8838,-0.80859 0.4238,-0.53906 0.6358,-1.34179 0.6358,-2.4082 0,-1.05079 -0.21,-1.84766 -0.6299,-2.39063 -0.42,-0.54297 -1.0459,-0.81445 -1.878,-0.81445 -0.8398,0 -1.4736,0.27148 -1.9013,0.81445 -0.4278,0.54297 -0.6416,1.33984 -0.6416,2.39063 z m 10.8457,4.41211 c -0.9805,0 -1.7256,-0.28613 -2.2354,-0.8584 -0.5097,-0.57227 -0.7646,-1.39355 -0.7646,-2.46387 0,-1.08985 0.2666,-1.92773 0.7998,-2.51367 0.5332,-0.58594 1.3037,-0.87891 2.3115,-0.87891 0.6836,0 1.2988,0.12696 1.8457,0.38086 l -0.416,1.10742 c -0.582,-0.22656 -1.0625,-0.33984 -1.4414,-0.33984 -1.1211,0 -1.6817,0.74413 -1.6817,2.23242 0,0.72657 0.1397,1.27246 0.419,1.6377 0.2793,0.36523 0.6885,0.54785 1.2275,0.54785 0.6133,0 1.1934,-0.15234 1.7403,-0.45703 l 0,1.20117 c -0.2461,0.14453 -0.5088,0.24805 -0.7881,0.31055 -0.2793,0.0625 -0.6182,0.0937 -1.0166,0.0937 z m 5.7422,-1.11328 c 0.3359,0 0.6718,-0.0527 1.0078,-0.15821 l 0,1.03711 c -0.1524,0.0664 -0.3487,0.12207 -0.5889,0.16699 -0.2402,0.0449 -0.4892,0.0674 -0.7471,0.0674 -1.3047,0 -1.957,-0.6875 -1.957,-2.0625 l 0,-3.49219 -0.8848,0 0,-0.60938 0.9493,-0.5039 0.4687,-1.3711 0.8496,0 0,1.44141 1.8457,0 0,1.04297 -1.8457,0 0,3.46875 c 0,0.33203 0.083,0.57715 0.249,0.73535 0.1661,0.1582 0.3838,0.23731 0.6534,0.23731 z m 8.0507,-2.25586 c 0,1.0586 -0.2714,1.88476 -0.8144,2.47851 -0.543,0.59375 -1.2988,0.89063 -2.2676,0.89063 -0.6055,0 -1.1406,-0.13672 -1.6055,-0.41016 -0.4648,-0.27344 -0.8222,-0.66601 -1.0722,-1.17773 -0.25,-0.51172 -0.375,-1.10547 -0.375,-1.78125 0,-1.05079 0.2695,-1.87109 0.8086,-2.46094 0.539,-0.58985 1.2988,-0.88477 2.2793,-0.88477 0.9375,0 1.6797,0.30176 2.2265,0.90528 0.5469,0.60352 0.8203,1.41698 0.8203,2.44043 z m -4.7168,0 c 0,1.4961 0.5528,2.24414 1.6582,2.24414 1.0938,0 1.6407,-0.74804 1.6407,-2.24414 0,-1.48048 -0.5508,-2.22071 -1.6524,-2.22071 -0.5781,0 -0.997,0.19141 -1.2568,0.57422 -0.2598,0.38282 -0.3897,0.93164 -0.3897,1.64649 z m 9.6094,-3.34571 c 0.8086,0 1.4385,0.29297 1.8897,0.87891 0.4511,0.58594 0.6767,1.4082 0.6767,2.4668 0,1.0625 -0.2285,1.88964 -0.6855,2.48144 -0.4571,0.5918 -1.0918,0.8877 -1.9043,0.8877 -0.8203,0 -1.457,-0.29492 -1.9102,-0.88477 l -0.094,0 -0.252,0.76758 -1.0312,0 0,-9.11719 1.3769,0 0,2.16797 c 0,0.16016 -0.01,0.39844 -0.023,0.71484 -0.016,0.31641 -0.027,0.51758 -0.035,0.60352 l 0.059,0 c 0.4375,-0.64453 1.0821,-0.9668 1.9336,-0.9668 z m -0.3574,1.125 c -0.5547,0 -0.9541,0.16309 -1.1982,0.48926 -0.2442,0.32617 -0.3702,0.87207 -0.378,1.6377 l 0,0.0937 c 0,0.78906 0.125,1.36035 0.375,1.71386 0.25,0.35352 0.6582,0.53028 1.2246,0.53028 0.4883,0 0.8584,-0.19336 1.1104,-0.58008 0.2519,-0.38672 0.3779,-0.94531 0.3779,-1.67578 0,-1.47267 -0.5039,-2.20899 -1.5117,-2.20899 z m 7.3535,5.58985 c -1.0078,0 -1.7959,-0.29395 -2.3642,-0.88184 -0.5684,-0.58789 -0.8526,-1.39745 -0.8526,-2.42871 0,-1.0586 0.2637,-1.89062 0.791,-2.49609 0.5274,-0.60548 1.252,-0.90821 2.1739,-0.90821 0.8554,0 1.5312,0.25977 2.0273,0.7793 0.4961,0.51953 0.7441,1.23437 0.7441,2.14453 l 0,0.74414 -4.3183,0 c 0.02,0.62891 0.1894,1.1123 0.5098,1.4502 0.3203,0.33789 0.7714,0.50683 1.3535,0.50683 0.3828,0 0.7392,-0.0361 1.0693,-0.1084 0.3301,-0.0723 0.6846,-0.19238 1.0635,-0.36035 l 0,1.11914 c -0.336,0.16016 -0.6758,0.27344 -1.0196,0.33985 -0.3437,0.0664 -0.7363,0.0996 -1.1777,0.0996 z m -0.2519,-5.67188 c -0.4375,0 -0.7881,0.13867 -1.0518,0.41602 -0.2637,0.27734 -0.4209,0.68164 -0.4717,1.21289 l 2.9414,0 c -0.01,-0.53516 -0.1367,-0.94043 -0.3867,-1.21582 -0.25,-0.27539 -0.5937,-0.41309 -1.0312,-0.41309 z m 7.623,-1.04297 c 0.2774,0 0.5059,0.0195 0.6856,0.0586 l -0.1348,1.2832 c -0.1953,-0.0469 -0.3984,-0.0703 -0.6094,-0.0703 -0.5508,0 -0.9971,0.17968 -1.3389,0.53906 -0.3418,0.35938 -0.5126,0.82617 -0.5126,1.40039 l 0,3.38672 -1.377,0 0,-6.48047 1.0781,0 0.1817,1.14258 0.07,0 c 0.2148,-0.38672 0.4951,-0.69336 0.8408,-0.91992 0.3457,-0.22657 0.7178,-0.33985 1.1162,-0.33985 z" />
  <path
     style="fill:none;fill-rule:evenodd;stroke:#dcd4f7;stroke-width:1;stroke-linecap:square"
     inkscape:connector-curvature="0"
     id="Line-4"
     d="m 33.5,201.5 1025.4102,0" />
  <path
     style="fill:none;fill-rule:evenodd;stroke:#5a3ec8;stroke-width:2;stroke-linecap:round;stroke-linejoin:round"
     inkscape:connector-curvature="0"
     id="Stroke-3-Copy"
     d="m 33,115.02822 27.530105,-9.34994 17.192209,-19.73737 26.450026,-5.19441 9.25694,0 17.19221,17.140861 15.7762,12.985329 11.99637,8.31106 21.15896,0 19.8373,-11.4277 31.73933,5.19441 15.86966,22.15866 39.6746,26.66671 18.42923,0 19.92282,0 15.86967,-6.23329 14.548,6.23329 7.93439,14.88857 10.58036,11.0821 17.19221,-11.0821 25.1266,-13.84968 23.80493,-21.81583 29.09424,0 18.51475,10.38882 22.30694,-16.27859 39.84917,-9.69208 25.12748,8.82981 27.77169,15.06309 19.76765,-5.19441 33.13153,-18.69849 42.31968,1.03819 18.51476,-9.34924 37.02951,-9.34994 27.70997,6.23329 c 0,0 22.54411,11.4277 26.51174,11.4277 3.96764,0 30.41679,-1.03888 30.41679,-1.03888 l 22.48239,10.73096 18.51475,14.20082 31.73933,-15.06309 43.64135,-14.02422 32.47025,-2.07776" />
  <path
     style="opacity:0.3;fill:none;fill-rule:evenodd;stroke:#5a3ec8;stroke-width:2;stroke-linecap:round;stroke-linejoin:round"
     inkscape:connector-curvature="0"
     id="Stroke-3-Copy-2"
     d="m 33,152.18729 27.530105,3.8426 17.192209,8.1116 26.450026,2.13478 9.25694,-13.85176 17.19221,-15.35555 15.7762,4.35957 11.99637,2.12505 21.15896,6.92588 19.8373,10.92981 31.73933,-2.13478 15.86966,-9.10669 39.6746,-10.95939 38.35205,0 15.86967,2.56173 14.548,-2.56173 7.93439,-6.11885 10.58036,-4.55449 17.19221,4.55449 25.1266,5.69189 23.80493,8.9658 29.09424,0 18.51475,-4.26957 22.30694,6.69012 39.84917,3.98322 25.12748,-3.62884 27.77169,-6.19058 19.76765,2.13478 33.13153,7.68464 42.31968,-0.42667 18.51476,3.84232 37.02951,3.8426 27.70997,-2.56173 c 0,0 22.54411,-4.69652 26.51174,-4.69652 3.96764,0 30.41679,0.42695 30.41679,0.42695 l 22.48239,-4.41017 18.51475,8.70814 31.73933,-8.35376 43.64135,5.76362 32.47025,0.85391" />
  <rect
     id="Rectangle-5"
     x="191"
     y="35"
     width="15"
     height="15"
     style="fill:#cdc5ee;fill-rule:evenodd;stroke:none;stroke-width:1" />
  <rect
     id="rect32"
     x="279"
     y="35"
     width="15"
     height="15"
     style="fill:#473793;fill-rule:evenodd;stroke:none;stroke-width:1" />
  <text
     xml:space="preserve"
     style="font-style:normal;font-weight:normal;font-size:11.94792366px;line-height:125%;font-family:sans-serif;letter-spacing:0px;word-spacing:0px;fill:#454956;fill-opacity:0.49019608;stroke:none;stroke-width:1px;stroke-linecap:butt;stroke-linejoin:miter;stroke-opacity:1"
     x="309.09616"
     y="45.974628"
     id="text4229"
     sodipodi:linespacing="125%"><tspan
       sodipodi:role="line"
       id="tspan4231"
       x="309.09616"
       y="45.974628"
       style="font-style:normal;font-variant:normal;font-weight:600;font-stretch:normal;font-family:'Open Sans';-inkscape-font-specification:'Open Sans Semi-Bold';fill:#454956;fill-opacity:0.49019608">2019</tspan></text>
  <text
     sodipodi:linespacing="125%"
     id="text4243"
     y="45.886723"
     x="221.10379"
     style="font-style:normal;font-weight:normal;font-size:11.94792366px;line-height:125%;font-family:sans-serif;letter-spacing:0px;word-spacing:0px;fill:#454956;fill-opacity:0.49019608;stroke:none;stroke-width:1px;stroke-linecap:butt;stroke-linejoin:miter;stroke-opacity:1"
     xml:space="preserve"><tspan
       style="font-style:normal;font-variant:normal;font-weight:600;font-stretch:normal;font-family:'Open Sans';-inkscape-font-specification:'Open Sans Semi-Bold';fill:#454956;fill-opacity:0.49019608"
       y="45.886723"
       x="221.10379"
       id="tspan4245"
       sodipodi:role="line">2018</tspan></text>
</svg>
