<?xml version="1.0" encoding="UTF-8"?>
<svg width="17px" height="17px" viewBox="0 0 17 17" version="1.1" xmlns="http://www.w3.org/2000/svg" xmlns:xlink="http://www.w3.org/1999/xlink">
    <!-- Generator: Sketch 46.2 (44496) - http://www.bohemiancoding.com/sketch -->
    <title>2</title>
    <desc>Created with Sketch.</desc>
    <defs></defs>
    <g id="Mobile-Scratch-3" stroke="none" stroke-width="1" fill="none" fill-rule="evenodd">
        <path d="M15.3,0 L1.7,0 C0.765000076,0 0.0084999915,0.765000076 0.0084999915,1.7 L0,17 L3.4,13.6 L15.3,13.6 C16.2350003,13.6 17,12.8350003 17,11.9 L17,1.7 C17,0.765000076 16.2350003,0 15.3,0 Z M5.1,10.2 L3.4,10.2 L3.4,8.5 L5.1,8.5 L5.1,10.2 Z M5.1,7.65 L3.4,7.65 L3.4,5.95 L5.1,5.95 L5.1,7.65 Z M5.1,5.1 L3.4,5.1 L3.4,3.4 L5.1,3.4 L5.1,5.1 Z M11.05,10.2 L6.8,10.2 L6.8,8.5 L11.05,8.5 L11.05,10.2 Z M13.6,7.65 L6.8,7.65 L6.8,5.95 L13.6,5.95 L13.6,7.65 Z M13.6,5.1 L6.8,5.1 L6.8,3.4 L13.6,3.4 L13.6,5.1 Z" id="2" fill="#473793"></path>
    </g>
</svg>