<?xml version="1.0" encoding="UTF-8"?>
<svg width="1090px" height="241px" viewBox="0 0 1090 241" version="1.1" xmlns="http://www.w3.org/2000/svg" xmlns:xlink="http://www.w3.org/1999/xlink">
    <!-- Generator: Sketch 46.2 (44496) - http://www.bohemiancoding.com/sketch -->
    <title>Graph_1</title>
    <desc>Created with Sketch.</desc>
    <defs></defs>
    <g id="Mobile-Scratch-3" stroke="none" stroke-width="1" fill="none" fill-rule="evenodd">
        <g id="Desktop-HD-Copy-8" transform="translate(-303.000000, -382.000000)">
            <g id="Graph_1" transform="translate(303.000000, 382.000000)">
                <path d="M36.4609375,36.6015625 C35.2057229,36.6015625 34.2148474,37.0195271 33.4882812,37.8554688 C32.7617151,38.6914104 32.3984375,39.8359302 32.3984375,41.2890625 C32.3984375,42.7838616 32.7486944,43.938798 33.4492188,44.7539062 C34.1497431,45.5690145 35.148431,45.9765625 36.4453125,45.9765625 C37.2421915,45.9765625 38.1510366,45.8333348 39.171875,45.546875 L39.171875,46.7109375 C38.3802044,47.007814 37.4036516,47.15625 36.2421875,47.15625 C34.5598874,47.15625 33.2617233,46.6458384 32.3476562,45.625 C31.4335892,44.6041616 30.9765625,43.1536552 30.9765625,41.2734375 C30.9765625,40.0963483 31.1966124,39.0651086 31.6367188,38.1796875 C32.0768251,37.2942664 32.7122354,36.6119816 33.5429688,36.1328125 C34.3737021,35.6536434 35.3515569,35.4140625 36.4765625,35.4140625 C37.6744852,35.4140625 38.7213497,35.6328103 39.6171875,36.0703125 L39.0546875,37.2109375 C38.1900998,36.8046855 37.3255252,36.6015625 36.4609375,36.6015625 Z M42.765625,47 L41.46875,47 L41.46875,34.84375 L42.765625,34.84375 L42.765625,47 Z M50.78125,47 L50.5234375,45.78125 L50.4609375,45.78125 C50.033852,46.317711 49.608075,46.6809886 49.1835938,46.8710938 C48.7591125,47.0611989 48.2291698,47.15625 47.59375,47.15625 C46.7447874,47.15625 46.0794295,46.9375022 45.5976562,46.5 C45.115883,46.0624978 44.875,45.4401082 44.875,44.6328125 C44.875,42.9036372 46.2577987,41.9973963 49.0234375,41.9140625 L50.4765625,41.8671875 L50.4765625,41.3359375 C50.4765625,40.6640591 50.3320327,40.1679704 50.0429688,39.8476562 C49.7539048,39.5273421 49.2916698,39.3671875 48.65625,39.3671875 C47.9427048,39.3671875 47.1354212,39.5859353 46.234375,40.0234375 L45.8359375,39.03125 C46.2578146,38.8020822 46.7200496,38.6223965 47.2226562,38.4921875 C47.7252629,38.3619785 48.2291641,38.296875 48.734375,38.296875 C49.7552134,38.296875 50.5117163,38.5234352 51.0039062,38.9765625 C51.4960962,39.4296898 51.7421875,40.156245 51.7421875,41.15625 L51.7421875,47 L50.78125,47 Z M47.8515625,46.0859375 C48.6588582,46.0859375 49.2929664,45.8645855 49.7539062,45.421875 C50.2148461,44.9791645 50.4453125,44.359379 50.4453125,43.5625 L50.4453125,42.7890625 L49.1484375,42.84375 C48.1171823,42.8802085 47.3737002,43.0403632 46.9179688,43.3242188 C46.4622373,43.6080743 46.234375,44.0494762 46.234375,44.6484375 C46.234375,45.1171898 46.3763007,45.4739571 46.6601562,45.71875 C46.9440118,45.9635429 47.3411433,46.0859375 47.8515625,46.0859375 Z M55.7109375,47 L54.4140625,47 L54.4140625,38.4375 L55.7109375,38.4375 L55.7109375,47 Z M54.3046875,36.1171875 C54.3046875,35.820311 54.3776034,35.6028653 54.5234375,35.4648438 C54.6692716,35.3268222 54.8515614,35.2578125 55.0703125,35.2578125 C55.2786469,35.2578125 55.4583326,35.3281243 55.609375,35.46875 C55.7604174,35.6093757 55.8359375,35.8255194 55.8359375,36.1171875 C55.8359375,36.4088556 55.7604174,36.6263014 55.609375,36.7695312 C55.4583326,36.9127611 55.2786469,36.984375 55.0703125,36.984375 C54.8515614,36.984375 54.6692716,36.9127611 54.5234375,36.7695312 C54.3776034,36.6263014 54.3046875,36.4088556 54.3046875,36.1171875 Z M69.375,47 L69.375,41.4296875 C69.375,40.7473924 69.2291681,40.2356788 68.9375,39.8945312 C68.6458319,39.5533837 68.1927114,39.3828125 67.578125,39.3828125 C66.7708293,39.3828125 66.1744811,39.614581 65.7890625,40.078125 C65.4036439,40.541669 65.2109375,41.2552035 65.2109375,42.21875 L65.2109375,47 L63.9140625,47 L63.9140625,41.4296875 C63.9140625,40.7473924 63.7682306,40.2356788 63.4765625,39.8945312 C63.1848944,39.5533837 62.7291698,39.3828125 62.109375,39.3828125 C61.2968709,39.3828125 60.7018248,39.6262996 60.3242187,40.1132812 C59.9466127,40.6002629 59.7578125,41.398432 59.7578125,42.5078125 L59.7578125,47 L58.4609375,47 L58.4609375,38.4375 L59.515625,38.4375 L59.7265625,39.609375 L59.7890625,39.609375 C60.0338554,39.1927063 60.378904,38.8671887 60.8242187,38.6328125 C61.2695335,38.3984363 61.7682264,38.28125 62.3203125,38.28125 C63.6588609,38.28125 64.5338521,38.7656202 64.9453125,39.734375 L65.0078125,39.734375 C65.2630221,39.2864561 65.6328101,38.932293 66.1171875,38.671875 C66.6015649,38.411457 67.1536427,38.28125 67.7734375,38.28125 C68.7421923,38.28125 69.4674455,38.5299454 69.9492188,39.0273438 C70.430992,39.5247421 70.671875,40.320307 70.671875,41.4140625 L70.671875,47 L69.375,47 Z M86.3671875,47 L85.0390625,47 L85.0390625,41.625 L79.0234375,41.625 L79.0234375,47 L77.6953125,47 L77.6953125,35.578125 L79.0234375,35.578125 L79.0234375,40.4375 L85.0390625,40.4375 L85.0390625,35.578125 L86.3671875,35.578125 L86.3671875,47 Z M90.6015625,47 L89.3046875,47 L89.3046875,38.4375 L90.6015625,38.4375 L90.6015625,47 Z M89.1953125,36.1171875 C89.1953125,35.820311 89.2682284,35.6028653 89.4140625,35.4648438 C89.5598966,35.3268222 89.7421864,35.2578125 89.9609375,35.2578125 C90.1692719,35.2578125 90.3489576,35.3281243 90.5,35.46875 C90.6510424,35.6093757 90.7265625,35.8255194 90.7265625,36.1171875 C90.7265625,36.4088556 90.6510424,36.6263014 90.5,36.7695312 C90.3489576,36.9127611 90.1692719,36.984375 89.9609375,36.984375 C89.7421864,36.984375 89.5598966,36.9127611 89.4140625,36.7695312 C89.2682284,36.6263014 89.1953125,36.4088556 89.1953125,36.1171875 Z M98.875,44.6640625 C98.875,45.4609415 98.578128,46.0755187 97.984375,46.5078125 C97.390622,46.9401063 96.557297,47.15625 95.484375,47.15625 C94.3489527,47.15625 93.4635448,46.9765643 92.828125,46.6171875 L92.828125,45.4140625 C93.2395854,45.6223969 93.6809872,45.7864577 94.1523438,45.90625 C94.6237003,46.0260423 95.0781228,46.0859375 95.515625,46.0859375 C96.1927117,46.0859375 96.7135398,45.9778657 97.078125,45.7617188 C97.4427102,45.5455718 97.625,45.216148 97.625,44.7734375 C97.625,44.4401025 97.4804702,44.1549491 97.1914062,43.9179688 C96.9023423,43.6809884 96.3385459,43.4010433 95.5,43.078125 C94.703121,42.7812485 94.1367204,42.5221365 93.8007812,42.3007812 C93.4648421,42.079426 93.2148446,41.8281264 93.0507812,41.546875 C92.8867179,41.2656236 92.8046875,40.9296895 92.8046875,40.5390625 C92.8046875,39.8411423 93.0885388,39.2903666 93.65625,38.8867188 C94.2239612,38.4830709 95.0025992,38.28125 95.9921875,38.28125 C96.9140671,38.28125 97.8150998,38.4687481 98.6953125,38.84375 L98.234375,39.8984375 C97.3749957,39.5442691 96.5963577,39.3671875 95.8984375,39.3671875 C95.2838511,39.3671875 94.8203141,39.4635407 94.5078125,39.65625 C94.1953109,39.8489593 94.0390625,40.1145816 94.0390625,40.453125 C94.0390625,40.6822928 94.0976557,40.8776034 94.2148438,41.0390625 C94.3320318,41.2005216 94.520832,41.3541659 94.78125,41.5 C95.041668,41.6458341 95.541663,41.8567695 96.28125,42.1328125 C97.2968801,42.502606 97.9830711,42.8749981 98.3398438,43.25 C98.6966164,43.6250019 98.875,44.0963513 98.875,44.6640625 Z M103.75,46.0859375 C103.979168,46.0859375 104.20052,46.0690106 104.414062,46.0351562 C104.627605,46.0013019 104.796874,45.966146 104.921875,45.9296875 L104.921875,46.921875 C104.781249,46.9895837 104.57422,47.0455727 104.300781,47.0898438 C104.027342,47.1341148 103.781251,47.15625 103.5625,47.15625 C101.906242,47.15625 101.078125,46.2838629 101.078125,44.5390625 L101.078125,39.4453125 L99.8515625,39.4453125 L99.8515625,38.8203125 L101.078125,38.28125 L101.625,36.453125 L102.375,36.453125 L102.375,38.4375 L104.859375,38.4375 L104.859375,39.4453125 L102.375,39.4453125 L102.375,44.484375 C102.375,45.0000026 102.497395,45.395832 102.742188,45.671875 C102.98698,45.947918 103.322915,46.0859375 103.75,46.0859375 Z M114.023438,42.7109375 C114.023438,44.1067778 113.671879,45.1966107 112.96875,45.9804688 C112.265621,46.7643268 111.294277,47.15625 110.054688,47.15625 C109.289059,47.15625 108.609378,46.9765643 108.015625,46.6171875 C107.421872,46.2578107 106.963543,45.7421909 106.640625,45.0703125 C106.317707,44.3984341 106.15625,43.6119837 106.15625,42.7109375 C106.15625,41.3150972 106.505205,40.2278685 107.203125,39.4492188 C107.901045,38.670569 108.869785,38.28125 110.109375,38.28125 C111.307298,38.28125 112.259111,38.6796835 112.964844,39.4765625 C113.670576,40.2734415 114.023438,41.3515557 114.023438,42.7109375 Z M107.5,42.7109375 C107.5,43.804693 107.718748,44.638018 108.15625,45.2109375 C108.593752,45.783857 109.236975,46.0703125 110.085938,46.0703125 C110.9349,46.0703125 111.579425,45.7851591 112.019531,45.2148438 C112.459638,44.6445284 112.679688,43.8099013 112.679688,42.7109375 C112.679688,41.6223904 112.459638,40.7955757 112.019531,40.2304688 C111.579425,39.6653618 110.929692,39.3828125 110.070312,39.3828125 C109.22135,39.3828125 108.580731,39.6614555 108.148438,40.21875 C107.716144,40.7760445 107.5,41.6067653 107.5,42.7109375 Z M120.203125,38.28125 C120.583335,38.28125 120.924478,38.3124997 121.226562,38.375 L121.046875,39.578125 C120.692707,39.4999996 120.38021,39.4609375 120.109375,39.4609375 C119.416663,39.4609375 118.824221,39.7421847 118.332031,40.3046875 C117.839841,40.8671903 117.59375,41.5677041 117.59375,42.40625 L117.59375,47 L116.296875,47 L116.296875,38.4375 L117.367188,38.4375 L117.515625,40.0234375 L117.578125,40.0234375 C117.895835,39.466143 118.278644,39.0364598 118.726562,38.734375 C119.174481,38.4322902 119.666664,38.28125 120.203125,38.28125 Z M121.46875,38.4375 L122.859375,38.4375 L124.734375,43.3203125 C125.145835,44.4349014 125.401041,45.2395809 125.5,45.734375 L125.5625,45.734375 C125.630209,45.4687487 125.772134,45.0143261 125.988281,44.3710938 C126.204428,43.7278614 126.911452,41.7500166 128.109375,38.4375 L129.5,38.4375 L125.820312,48.1875 C125.455727,49.1510465 125.02995,49.8346334 124.542969,50.2382812 C124.055987,50.6419291 123.458337,50.84375 122.75,50.84375 C122.354165,50.84375 121.963544,50.7994796 121.578125,50.7109375 L121.578125,49.671875 C121.864585,49.7343753 122.184894,49.765625 122.539062,49.765625 C123.429692,49.765625 124.065102,49.26563 124.445312,48.265625 L124.921875,47.046875 L121.46875,38.4375 Z" id="Claim-History" fill="#454856"></path>
                <path d="M33.046875,224.390625 C32.6640606,224.390625 32.3437513,224.341797 32.0859375,224.244141 L32.0859375,223.066406 C32.4140641,223.148438 32.6992175,223.189453 32.9414062,223.189453 C33.7070351,223.189453 34.0898438,222.705083 34.0898438,221.736328 L34.0898438,213.433594 L35.4960938,213.433594 L35.4960938,221.689453 C35.4960938,222.564458 35.288088,223.233396 34.8720703,223.696289 C34.4560526,224.159182 33.8476603,224.390625 33.046875,224.390625 Z M41.625,222 L41.3496094,221.097656 L41.3027344,221.097656 C40.9902328,221.492189 40.6757828,221.760741 40.359375,221.90332 C40.0429672,222.045899 39.6367212,222.117188 39.140625,222.117188 C38.5039031,222.117188 38.0068377,221.945314 37.6494141,221.601562 C37.2919904,221.257811 37.1132812,220.771488 37.1132812,220.142578 C37.1132812,219.474606 37.3613256,218.970705 37.8574219,218.630859 C38.3535181,218.291014 39.1093699,218.105469 40.125,218.074219 L41.2441406,218.039062 L41.2441406,217.693359 C41.2441406,217.279295 41.1474619,216.969728 40.9541016,216.764648 C40.7607412,216.559569 40.4609395,216.457031 40.0546875,216.457031 C39.7226546,216.457031 39.4042984,216.505859 39.0996094,216.603516 C38.7949204,216.701172 38.5019545,216.816406 38.2207031,216.949219 L37.7753906,215.964844 C38.1269549,215.781249 38.5117167,215.641602 38.9296875,215.545898 C39.3476583,215.450195 39.7421856,215.402344 40.1132812,215.402344 C40.9375041,215.402344 41.5595682,215.582029 41.9794922,215.941406 C42.3994162,216.300783 42.609375,216.865231 42.609375,217.634766 L42.609375,222 L41.625,222 Z M39.5742188,221.0625 C40.0742213,221.0625 40.4755844,220.922853 40.7783203,220.643555 C41.0810562,220.364256 41.2324219,219.972659 41.2324219,219.46875 L41.2324219,218.90625 L40.4003906,218.941406 C39.7519499,218.964844 39.2802749,219.073241 38.9853516,219.266602 C38.6904282,219.459962 38.5429688,219.755857 38.5429688,220.154297 C38.5429688,220.443361 38.6289054,220.666991 38.8007812,220.825195 C38.9726571,220.983399 39.230467,221.0625 39.5742188,221.0625 Z M50.2324219,222 L48.8496094,222 L48.8496094,218.015625 C48.8496094,217.515623 48.7490244,217.142579 48.5478516,216.896484 C48.3466787,216.650389 48.0273459,216.527344 47.5898438,216.527344 C47.0078096,216.527344 46.5820326,216.699217 46.3125,217.042969 C46.0429674,217.38672 45.9082031,217.962887 45.9082031,218.771484 L45.9082031,222 L44.53125,222 L44.53125,215.519531 L45.609375,215.519531 L45.8027344,216.369141 L45.8730469,216.369141 C46.0683604,216.060545 46.3457013,215.822266 46.7050781,215.654297 C47.0644549,215.486327 47.4628884,215.402344 47.9003906,215.402344 C49.4550859,215.402344 50.2324219,216.193351 50.2324219,217.775391 L50.2324219,222 Z M56.71875,222 L56.5253906,221.150391 L56.4550781,221.150391 C56.2636709,221.451173 55.9912127,221.687499 55.6376953,221.859375 C55.2841779,222.031251 54.8808616,222.117188 54.4277344,222.117188 C53.6425742,222.117188 53.0566426,221.921877 52.6699219,221.53125 C52.2832012,221.140623 52.0898438,220.548832 52.0898438,219.755859 L52.0898438,215.519531 L53.4785156,215.519531 L53.4785156,219.515625 C53.4785156,220.011721 53.5800771,220.383788 53.7832031,220.631836 C53.9863291,220.879884 54.3046853,221.003906 54.7382812,221.003906 C55.3164091,221.003906 55.7412096,220.831056 56.0126953,220.485352 C56.284181,220.139647 56.4199219,219.560551 56.4199219,218.748047 L56.4199219,215.519531 L57.8027344,215.519531 L57.8027344,222 L56.71875,222 Z M63.8203125,222 L63.5449219,221.097656 L63.4980469,221.097656 C63.1855453,221.492189 62.8710953,221.760741 62.5546875,221.90332 C62.2382797,222.045899 61.8320337,222.117188 61.3359375,222.117188 C60.6992156,222.117188 60.2021502,221.945314 59.8447266,221.601562 C59.4873029,221.257811 59.3085938,220.771488 59.3085938,220.142578 C59.3085938,219.474606 59.5566381,218.970705 60.0527344,218.630859 C60.5488306,218.291014 61.3046824,218.105469 62.3203125,218.074219 L63.4394531,218.039062 L63.4394531,217.693359 C63.4394531,217.279295 63.3427744,216.969728 63.1494141,216.764648 C62.9560537,216.559569 62.656252,216.457031 62.25,216.457031 C61.9179671,216.457031 61.5996109,216.505859 61.2949219,216.603516 C60.9902329,216.701172 60.697267,216.816406 60.4160156,216.949219 L59.9707031,215.964844 C60.3222674,215.781249 60.7070292,215.641602 61.125,215.545898 C61.5429708,215.450195 61.9374981,215.402344 62.3085938,215.402344 C63.1328166,215.402344 63.7548807,215.582029 64.1748047,215.941406 C64.5947287,216.300783 64.8046875,216.865231 64.8046875,217.634766 L64.8046875,222 L63.8203125,222 Z M61.7695312,221.0625 C62.2695338,221.0625 62.6708969,220.922853 62.9736328,220.643555 C63.2763687,220.364256 63.4277344,219.972659 63.4277344,219.46875 L63.4277344,218.90625 L62.5957031,218.941406 C61.9472624,218.964844 61.4755874,219.073241 61.1806641,219.266602 C60.8857407,219.459962 60.7382812,219.755857 60.7382812,220.154297 C60.7382812,220.443361 60.8242179,220.666991 60.9960938,220.825195 C61.1679696,220.983399 61.4257795,221.0625 61.7695312,221.0625 Z M70.0136719,215.402344 C70.291017,215.402344 70.5195304,215.421875 70.6992188,215.460938 L70.5644531,216.744141 C70.3691396,216.697265 70.1660167,216.673828 69.9550781,216.673828 C69.4042941,216.673828 68.9580095,216.853514 68.6162109,217.212891 C68.2744124,217.572267 68.1035156,218.03906 68.1035156,218.613281 L68.1035156,222 L66.7265625,222 L66.7265625,215.519531 L67.8046875,215.519531 L67.9863281,216.662109 L68.0566406,216.662109 C68.2714854,216.275389 68.5517561,215.968751 68.8974609,215.742188 C69.2431658,215.515624 69.6152324,215.402344 70.0136719,215.402344 Z M70.9160156,215.519531 L72.4160156,215.519531 L73.734375,219.193359 C73.9335947,219.716799 74.0664059,220.208982 74.1328125,220.669922 L74.1796875,220.669922 C74.2148439,220.455077 74.2792964,220.194337 74.3730469,219.887695 C74.4667973,219.581053 74.9628861,218.125013 75.8613281,215.519531 L77.3496094,215.519531 L74.578125,222.861328 C74.0742162,224.208991 73.2343809,224.882812 72.0585938,224.882812 C71.7539047,224.882812 71.4570327,224.84961 71.1679688,224.783203 L71.1679688,223.693359 C71.375001,223.740235 71.6113268,223.763672 71.8769531,223.763672 C72.5410189,223.763672 73.0078112,223.37891 73.2773438,222.609375 L73.5175781,222 L70.9160156,215.519531 Z" id="January" fill="#454856" opacity="0.5"></path>
                <path d="M151.519531,222 L150.130859,222 L150.130859,213.433594 L154.964844,213.433594 L154.964844,214.617188 L151.519531,214.617188 L151.519531,217.294922 L154.748047,217.294922 L154.748047,218.484375 L151.519531,218.484375 L151.519531,222 Z M159.201172,222.117188 C158.193354,222.117188 157.405276,221.823245 156.836914,221.235352 C156.268552,220.647458 155.984375,219.837896 155.984375,218.806641 C155.984375,217.748042 156.248044,216.916019 156.775391,216.310547 C157.302737,215.705075 158.027339,215.402344 158.949219,215.402344 C159.804692,215.402344 160.480466,215.662107 160.976562,216.181641 C161.472659,216.701174 161.720703,217.416011 161.720703,218.326172 L161.720703,219.070312 L157.402344,219.070312 C157.421875,219.699222 157.591795,220.182615 157.912109,220.520508 C158.232423,220.8584 158.683591,221.027344 159.265625,221.027344 C159.648439,221.027344 160.004881,220.991211 160.334961,220.918945 C160.665041,220.846679 161.019529,220.726563 161.398438,220.558594 L161.398438,221.677734 C161.062498,221.837891 160.722658,221.951172 160.378906,222.017578 C160.035155,222.083985 159.64258,222.117188 159.201172,222.117188 Z M158.949219,216.445312 C158.511717,216.445312 158.161134,216.583983 157.897461,216.861328 C157.633788,217.138673 157.476563,217.542966 157.425781,218.074219 L160.367188,218.074219 C160.359375,217.53906 160.23047,217.13379 159.980469,216.858398 C159.730468,216.583006 159.386721,216.445312 158.949219,216.445312 Z M166.595703,215.402344 C167.404301,215.402344 168.034177,215.69531 168.485352,216.28125 C168.936526,216.86719 169.162109,217.689448 169.162109,218.748047 C169.162109,219.810552 168.933596,220.637692 168.476562,221.229492 C168.019529,221.821292 167.38477,222.117188 166.572266,222.117188 C165.751949,222.117188 165.115237,221.822269 164.662109,221.232422 L164.568359,221.232422 L164.316406,222 L163.285156,222 L163.285156,212.882812 L164.662109,212.882812 L164.662109,215.050781 C164.662109,215.210938 164.654297,215.449217 164.638672,215.765625 C164.623047,216.082033 164.611328,216.283203 164.603516,216.369141 L164.662109,216.369141 C165.099612,215.724606 165.744136,215.402344 166.595703,215.402344 Z M166.238281,216.527344 C165.683591,216.527344 165.284181,216.690428 165.040039,217.016602 C164.795897,217.342775 164.669922,217.888668 164.662109,218.654297 L164.662109,218.748047 C164.662109,219.537113 164.787108,220.108397 165.037109,220.461914 C165.287111,220.815431 165.69531,220.992188 166.261719,220.992188 C166.750002,220.992188 167.120116,220.79883 167.37207,220.412109 C167.624025,220.025389 167.75,219.466801 167.75,218.736328 C167.75,217.263665 167.246099,216.527344 166.238281,216.527344 Z M174.048828,215.402344 C174.326173,215.402344 174.554687,215.421875 174.734375,215.460938 L174.599609,216.744141 C174.404296,216.697265 174.201173,216.673828 173.990234,216.673828 C173.43945,216.673828 172.993166,216.853514 172.651367,217.212891 C172.309569,217.572267 172.138672,218.03906 172.138672,218.613281 L172.138672,222 L170.761719,222 L170.761719,215.519531 L171.839844,215.519531 L172.021484,216.662109 L172.091797,216.662109 C172.306642,216.275389 172.586912,215.968751 172.932617,215.742188 C173.278322,215.515624 173.650389,215.402344 174.048828,215.402344 Z M180.505859,222 L180.3125,221.150391 L180.242188,221.150391 C180.05078,221.451173 179.778322,221.687499 179.424805,221.859375 C179.071287,222.031251 178.667971,222.117188 178.214844,222.117188 C177.429684,222.117188 176.843752,221.921877 176.457031,221.53125 C176.070311,221.140623 175.876953,220.548832 175.876953,219.755859 L175.876953,215.519531 L177.265625,215.519531 L177.265625,219.515625 C177.265625,220.011721 177.367186,220.383788 177.570312,220.631836 C177.773439,220.879884 178.091795,221.003906 178.525391,221.003906 C179.103519,221.003906 179.528319,220.831056 179.799805,220.485352 C180.07129,220.139647 180.207031,219.560551 180.207031,218.748047 L180.207031,215.519531 L181.589844,215.519531 L181.589844,222 L180.505859,222 Z M187.607422,222 L187.332031,221.097656 L187.285156,221.097656 C186.972655,221.492189 186.658205,221.760741 186.341797,221.90332 C186.025389,222.045899 185.619143,222.117188 185.123047,222.117188 C184.486325,222.117188 183.98926,221.945314 183.631836,221.601562 C183.274412,221.257811 183.095703,220.771488 183.095703,220.142578 C183.095703,219.474606 183.343748,218.970705 183.839844,218.630859 C184.33594,218.291014 185.091792,218.105469 186.107422,218.074219 L187.226562,218.039062 L187.226562,217.693359 C187.226562,217.279295 187.129884,216.969728 186.936523,216.764648 C186.743163,216.559569 186.443361,216.457031 186.037109,216.457031 C185.705076,216.457031 185.38672,216.505859 185.082031,216.603516 C184.777342,216.701172 184.484376,216.816406 184.203125,216.949219 L183.757812,215.964844 C184.109377,215.781249 184.494139,215.641602 184.912109,215.545898 C185.33008,215.450195 185.724608,215.402344 186.095703,215.402344 C186.919926,215.402344 187.54199,215.582029 187.961914,215.941406 C188.381838,216.300783 188.591797,216.865231 188.591797,217.634766 L188.591797,222 L187.607422,222 Z M185.556641,221.0625 C186.056643,221.0625 186.458006,220.922853 186.760742,220.643555 C187.063478,220.364256 187.214844,219.972659 187.214844,219.46875 L187.214844,218.90625 L186.382812,218.941406 C185.734372,218.964844 185.262697,219.073241 184.967773,219.266602 C184.67285,219.459962 184.525391,219.755857 184.525391,220.154297 C184.525391,220.443361 184.611327,220.666991 184.783203,220.825195 C184.955079,220.983399 185.212889,221.0625 185.556641,221.0625 Z M193.800781,215.402344 C194.078126,215.402344 194.30664,215.421875 194.486328,215.460938 L194.351562,216.744141 C194.156249,216.697265 193.953126,216.673828 193.742188,216.673828 C193.191403,216.673828 192.745119,216.853514 192.40332,217.212891 C192.061522,217.572267 191.890625,218.03906 191.890625,218.613281 L191.890625,222 L190.513672,222 L190.513672,215.519531 L191.591797,215.519531 L191.773438,216.662109 L191.84375,216.662109 C192.058595,216.275389 192.338865,215.968751 192.68457,215.742188 C193.030275,215.515624 193.402342,215.402344 193.800781,215.402344 Z M194.703125,215.519531 L196.203125,215.519531 L197.521484,219.193359 C197.720704,219.716799 197.853515,220.208982 197.919922,220.669922 L197.966797,220.669922 C198.001953,220.455077 198.066406,220.194337 198.160156,219.887695 C198.253907,219.581053 198.749996,218.125013 199.648438,215.519531 L201.136719,215.519531 L198.365234,222.861328 C197.861326,224.208991 197.02149,224.882812 195.845703,224.882812 C195.541014,224.882812 195.244142,224.84961 194.955078,224.783203 L194.955078,223.693359 C195.16211,223.740235 195.398436,223.763672 195.664062,223.763672 C196.328128,223.763672 196.794921,223.37891 197.064453,222.609375 L197.304688,222 L194.703125,215.519531 Z" id="February" fill="#454856" opacity="0.5"></path>
                <path d="M277.833984,222 L275.349609,214.845703 L275.302734,214.845703 C275.369141,215.908208 275.402344,216.904292 275.402344,217.833984 L275.402344,222 L274.130859,222 L274.130859,213.433594 L276.105469,213.433594 L278.484375,220.248047 L278.519531,220.248047 L280.96875,213.433594 L282.949219,213.433594 L282.949219,222 L281.601562,222 L281.601562,217.763672 C281.601562,217.337888 281.612305,216.783207 281.633789,216.099609 C281.655274,215.416012 281.673828,215.001954 281.689453,214.857422 L281.642578,214.857422 L279.070312,222 L277.833984,222 Z M289.113281,222 L288.837891,221.097656 L288.791016,221.097656 C288.478514,221.492189 288.164064,221.760741 287.847656,221.90332 C287.531248,222.045899 287.125002,222.117188 286.628906,222.117188 C285.992184,222.117188 285.495119,221.945314 285.137695,221.601562 C284.780272,221.257811 284.601562,220.771488 284.601562,220.142578 C284.601562,219.474606 284.849607,218.970705 285.345703,218.630859 C285.841799,218.291014 286.597651,218.105469 287.613281,218.074219 L288.732422,218.039062 L288.732422,217.693359 C288.732422,217.279295 288.635743,216.969728 288.442383,216.764648 C288.249022,216.559569 287.949221,216.457031 287.542969,216.457031 C287.210936,216.457031 286.89258,216.505859 286.587891,216.603516 C286.283202,216.701172 285.990236,216.816406 285.708984,216.949219 L285.263672,215.964844 C285.615236,215.781249 285.999998,215.641602 286.417969,215.545898 C286.83594,215.450195 287.230467,215.402344 287.601562,215.402344 C288.425785,215.402344 289.047849,215.582029 289.467773,215.941406 C289.887697,216.300783 290.097656,216.865231 290.097656,217.634766 L290.097656,222 L289.113281,222 Z M287.0625,221.0625 C287.562502,221.0625 287.963866,220.922853 288.266602,220.643555 C288.569337,220.364256 288.720703,219.972659 288.720703,219.46875 L288.720703,218.90625 L287.888672,218.941406 C287.240231,218.964844 286.768556,219.073241 286.473633,219.266602 C286.178709,219.459962 286.03125,219.755857 286.03125,220.154297 C286.03125,220.443361 286.117187,220.666991 286.289062,220.825195 C286.460938,220.983399 286.718748,221.0625 287.0625,221.0625 Z M295.306641,215.402344 C295.583986,215.402344 295.812499,215.421875 295.992188,215.460938 L295.857422,216.744141 C295.662108,216.697265 295.458985,216.673828 295.248047,216.673828 C294.697263,216.673828 294.250978,216.853514 293.90918,217.212891 C293.567381,217.572267 293.396484,218.03906 293.396484,218.613281 L293.396484,222 L292.019531,222 L292.019531,215.519531 L293.097656,215.519531 L293.279297,216.662109 L293.349609,216.662109 C293.564454,216.275389 293.844725,215.968751 294.19043,215.742188 C294.536135,215.515624 294.908201,215.402344 295.306641,215.402344 Z M299.806641,222.117188 C298.826167,222.117188 298.081057,221.831058 297.571289,221.258789 C297.061521,220.686521 296.806641,219.86524 296.806641,218.794922 C296.806641,217.705073 297.07324,216.86719 297.606445,216.28125 C298.139651,215.69531 298.910151,215.402344 299.917969,215.402344 C300.601566,215.402344 301.216794,215.529296 301.763672,215.783203 L301.347656,216.890625 C300.765622,216.664061 300.285158,216.550781 299.90625,216.550781 C298.785151,216.550781 298.224609,217.294914 298.224609,218.783203 C298.224609,219.509769 298.364256,220.055662 298.643555,220.420898 C298.922853,220.786135 299.332029,220.96875 299.871094,220.96875 C300.484378,220.96875 301.06445,220.816408 301.611328,220.511719 L301.611328,221.712891 C301.365233,221.857423 301.10254,221.960937 300.823242,222.023438 C300.543944,222.085938 300.20508,222.117188 299.806641,222.117188 Z M308.835938,222 L307.453125,222 L307.453125,218.015625 C307.453125,217.515623 307.35254,217.142579 307.151367,216.896484 C306.950194,216.650389 306.630862,216.527344 306.193359,216.527344 C305.615231,216.527344 305.190431,216.700194 304.918945,217.045898 C304.64746,217.391603 304.511719,217.970699 304.511719,218.783203 L304.511719,222 L303.134766,222 L303.134766,212.882812 L304.511719,212.882812 L304.511719,215.197266 C304.511719,215.568361 304.488281,215.964842 304.441406,216.386719 L304.529297,216.386719 C304.716798,216.074217 304.977537,215.832032 305.311523,215.660156 C305.645509,215.48828 306.035154,215.402344 306.480469,215.402344 C308.050789,215.402344 308.835938,216.193351 308.835938,217.775391 L308.835938,222 Z" id="March" fill="#454856" opacity="0.5"></path>
                <path d="M387.445312,222 L386.589844,219.621094 L383.314453,219.621094 L382.476562,222 L381,222 L384.205078,213.398438 L385.728516,213.398438 L388.933594,222 L387.445312,222 Z M386.220703,218.414062 L385.417969,216.082031 C385.359375,215.92578 385.278321,215.679689 385.174805,215.34375 C385.071289,215.007811 385,214.76172 384.960938,214.605469 C384.855468,215.08594 384.701173,215.611325 384.498047,216.181641 L383.724609,218.414062 L386.220703,218.414062 Z M393.205078,222.117188 C392.384762,222.117188 391.748049,221.822269 391.294922,221.232422 L391.212891,221.232422 C391.267578,221.7793 391.294922,222.111328 391.294922,222.228516 L391.294922,224.882812 L389.917969,224.882812 L389.917969,215.519531 L391.03125,215.519531 C391.0625,215.640626 391.126953,215.929685 391.224609,216.386719 L391.294922,216.386719 C391.724612,215.730465 392.369136,215.402344 393.228516,215.402344 C394.037113,215.402344 394.66699,215.69531 395.118164,216.28125 C395.569338,216.86719 395.794922,217.689448 395.794922,218.748047 C395.794922,219.806646 395.565432,220.63281 395.106445,221.226562 C394.647459,221.820315 394.013676,222.117188 393.205078,222.117188 Z M392.871094,216.527344 C392.324216,216.527344 391.924806,216.687498 391.672852,217.007812 C391.420897,217.328127 391.294922,217.83984 391.294922,218.542969 L391.294922,218.748047 C391.294922,219.537113 391.419921,220.108397 391.669922,220.461914 C391.919923,220.815431 392.328122,220.992188 392.894531,220.992188 C393.371096,220.992188 393.73828,220.796877 393.996094,220.40625 C394.253908,220.015623 394.382812,219.458988 394.382812,218.736328 C394.382812,218.009762 394.254884,217.459963 393.999023,217.086914 C393.743163,216.713865 393.36719,216.527344 392.871094,216.527344 Z M400.681641,215.402344 C400.958986,215.402344 401.187499,215.421875 401.367188,215.460938 L401.232422,216.744141 C401.037108,216.697265 400.833985,216.673828 400.623047,216.673828 C400.072263,216.673828 399.625978,216.853514 399.28418,217.212891 C398.942381,217.572267 398.771484,218.03906 398.771484,218.613281 L398.771484,222 L397.394531,222 L397.394531,215.519531 L398.472656,215.519531 L398.654297,216.662109 L398.724609,216.662109 C398.939454,216.275389 399.219725,215.968751 399.56543,215.742188 C399.911135,215.515624 400.283201,215.402344 400.681641,215.402344 Z M403.945312,222 L402.568359,222 L402.568359,215.519531 L403.945312,215.519531 L403.945312,222 Z M402.486328,213.802734 C402.486328,213.556639 402.55371,213.367188 402.688477,213.234375 C402.823243,213.101562 403.015624,213.035156 403.265625,213.035156 C403.507814,213.035156 403.696288,213.101562 403.831055,213.234375 C403.965821,213.367188 404.033203,213.556639 404.033203,213.802734 C404.033203,214.037111 403.965821,214.221679 403.831055,214.356445 C403.696288,214.491212 403.507814,214.558594 403.265625,214.558594 C403.015624,214.558594 402.823243,214.491212 402.688477,214.356445 C402.55371,214.221679 402.486328,214.037111 402.486328,213.802734 Z M407.291016,222 L405.914062,222 L405.914062,212.882812 L407.291016,212.882812 L407.291016,222 Z" id="April" fill="#454856" opacity="0.5"></path>
                <path d="M484.833984,222 L482.349609,214.845703 L482.302734,214.845703 C482.369141,215.908208 482.402344,216.904292 482.402344,217.833984 L482.402344,222 L481.130859,222 L481.130859,213.433594 L483.105469,213.433594 L485.484375,220.248047 L485.519531,220.248047 L487.96875,213.433594 L489.949219,213.433594 L489.949219,222 L488.601562,222 L488.601562,217.763672 C488.601562,217.337888 488.612305,216.783207 488.633789,216.099609 C488.655274,215.416012 488.673828,215.001954 488.689453,214.857422 L488.642578,214.857422 L486.070312,222 L484.833984,222 Z M496.113281,222 L495.837891,221.097656 L495.791016,221.097656 C495.478514,221.492189 495.164064,221.760741 494.847656,221.90332 C494.531248,222.045899 494.125002,222.117188 493.628906,222.117188 C492.992184,222.117188 492.495119,221.945314 492.137695,221.601562 C491.780272,221.257811 491.601562,220.771488 491.601562,220.142578 C491.601562,219.474606 491.849607,218.970705 492.345703,218.630859 C492.841799,218.291014 493.597651,218.105469 494.613281,218.074219 L495.732422,218.039062 L495.732422,217.693359 C495.732422,217.279295 495.635743,216.969728 495.442383,216.764648 C495.249022,216.559569 494.949221,216.457031 494.542969,216.457031 C494.210936,216.457031 493.89258,216.505859 493.587891,216.603516 C493.283202,216.701172 492.990236,216.816406 492.708984,216.949219 L492.263672,215.964844 C492.615236,215.781249 492.999998,215.641602 493.417969,215.545898 C493.83594,215.450195 494.230467,215.402344 494.601562,215.402344 C495.425785,215.402344 496.047849,215.582029 496.467773,215.941406 C496.887697,216.300783 497.097656,216.865231 497.097656,217.634766 L497.097656,222 L496.113281,222 Z M494.0625,221.0625 C494.562502,221.0625 494.963866,220.922853 495.266602,220.643555 C495.569337,220.364256 495.720703,219.972659 495.720703,219.46875 L495.720703,218.90625 L494.888672,218.941406 C494.240231,218.964844 493.768556,219.073241 493.473633,219.266602 C493.178709,219.459962 493.03125,219.755857 493.03125,220.154297 C493.03125,220.443361 493.117187,220.666991 493.289062,220.825195 C493.460938,220.983399 493.718748,221.0625 494.0625,221.0625 Z M498.035156,215.519531 L499.535156,215.519531 L500.853516,219.193359 C501.052735,219.716799 501.185547,220.208982 501.251953,220.669922 L501.298828,220.669922 C501.333985,220.455077 501.398437,220.194337 501.492188,219.887695 C501.585938,219.581053 502.082027,218.125013 502.980469,215.519531 L504.46875,215.519531 L501.697266,222.861328 C501.193357,224.208991 500.353522,224.882812 499.177734,224.882812 C498.873045,224.882812 498.576173,224.84961 498.287109,224.783203 L498.287109,223.693359 C498.494142,223.740235 498.730467,223.763672 498.996094,223.763672 C499.66016,223.763672 500.126952,223.37891 500.396484,222.609375 L500.636719,222 L498.035156,215.519531 Z" id="May" fill="#454856" opacity="0.5"></path>
                <path d="M576.046875,224.390625 C575.664061,224.390625 575.343751,224.341797 575.085938,224.244141 L575.085938,223.066406 C575.414064,223.148438 575.699218,223.189453 575.941406,223.189453 C576.707035,223.189453 577.089844,222.705083 577.089844,221.736328 L577.089844,213.433594 L578.496094,213.433594 L578.496094,221.689453 C578.496094,222.564458 578.288088,223.233396 577.87207,223.696289 C577.456053,224.159182 576.84766,224.390625 576.046875,224.390625 Z M585.140625,222 L584.947266,221.150391 L584.876953,221.150391 C584.685546,221.451173 584.413088,221.687499 584.05957,221.859375 C583.706053,222.031251 583.302737,222.117188 582.849609,222.117188 C582.064449,222.117188 581.478518,221.921877 581.091797,221.53125 C580.705076,221.140623 580.511719,220.548832 580.511719,219.755859 L580.511719,215.519531 L581.900391,215.519531 L581.900391,219.515625 C581.900391,220.011721 582.001952,220.383788 582.205078,220.631836 C582.408204,220.879884 582.72656,221.003906 583.160156,221.003906 C583.738284,221.003906 584.163085,220.831056 584.43457,220.485352 C584.706056,220.139647 584.841797,219.560551 584.841797,218.748047 L584.841797,215.519531 L586.224609,215.519531 L586.224609,222 L585.140625,222 Z M593.888672,222 L592.505859,222 L592.505859,218.015625 C592.505859,217.515623 592.405274,217.142579 592.204102,216.896484 C592.002929,216.650389 591.683596,216.527344 591.246094,216.527344 C590.66406,216.527344 590.238283,216.699217 589.96875,217.042969 C589.699217,217.38672 589.564453,217.962887 589.564453,218.771484 L589.564453,222 L588.1875,222 L588.1875,215.519531 L589.265625,215.519531 L589.458984,216.369141 L589.529297,216.369141 C589.72461,216.060545 590.001951,215.822266 590.361328,215.654297 C590.720705,215.486327 591.119138,215.402344 591.556641,215.402344 C593.111336,215.402344 593.888672,216.193351 593.888672,217.775391 L593.888672,222 Z M598.634766,222.117188 C597.626948,222.117188 596.83887,221.823245 596.270508,221.235352 C595.702146,220.647458 595.417969,219.837896 595.417969,218.806641 C595.417969,217.748042 595.681638,216.916019 596.208984,216.310547 C596.736331,215.705075 597.460933,215.402344 598.382812,215.402344 C599.238286,215.402344 599.91406,215.662107 600.410156,216.181641 C600.906252,216.701174 601.154297,217.416011 601.154297,218.326172 L601.154297,219.070312 L596.835938,219.070312 C596.855469,219.699222 597.025389,220.182615 597.345703,220.520508 C597.666017,220.8584 598.117185,221.027344 598.699219,221.027344 C599.082033,221.027344 599.438475,220.991211 599.768555,220.918945 C600.098634,220.846679 600.453123,220.726563 600.832031,220.558594 L600.832031,221.677734 C600.496092,221.837891 600.156252,221.951172 599.8125,222.017578 C599.468748,222.083985 599.076174,222.117188 598.634766,222.117188 Z M598.382812,216.445312 C597.94531,216.445312 597.594728,216.583983 597.331055,216.861328 C597.067381,217.138673 596.910157,217.542966 596.859375,218.074219 L599.800781,218.074219 C599.792969,217.53906 599.664064,217.13379 599.414062,216.858398 C599.164061,216.583006 598.820315,216.445312 598.382812,216.445312 Z" id="June" fill="#454856" opacity="0.5"></path>
                <path d="M673.046875,224.390625 C672.664061,224.390625 672.343751,224.341797 672.085938,224.244141 L672.085938,223.066406 C672.414064,223.148438 672.699218,223.189453 672.941406,223.189453 C673.707035,223.189453 674.089844,222.705083 674.089844,221.736328 L674.089844,213.433594 L675.496094,213.433594 L675.496094,221.689453 C675.496094,222.564458 675.288088,223.233396 674.87207,223.696289 C674.456053,224.159182 673.84766,224.390625 673.046875,224.390625 Z M682.140625,222 L681.947266,221.150391 L681.876953,221.150391 C681.685546,221.451173 681.413088,221.687499 681.05957,221.859375 C680.706053,222.031251 680.302737,222.117188 679.849609,222.117188 C679.064449,222.117188 678.478518,221.921877 678.091797,221.53125 C677.705076,221.140623 677.511719,220.548832 677.511719,219.755859 L677.511719,215.519531 L678.900391,215.519531 L678.900391,219.515625 C678.900391,220.011721 679.001952,220.383788 679.205078,220.631836 C679.408204,220.879884 679.72656,221.003906 680.160156,221.003906 C680.738284,221.003906 681.163085,220.831056 681.43457,220.485352 C681.706056,220.139647 681.841797,219.560551 681.841797,218.748047 L681.841797,215.519531 L683.224609,215.519531 L683.224609,222 L682.140625,222 Z M686.564453,222 L685.1875,222 L685.1875,212.882812 L686.564453,212.882812 L686.564453,222 Z M687.548828,215.519531 L689.048828,215.519531 L690.367188,219.193359 C690.566407,219.716799 690.699218,220.208982 690.765625,220.669922 L690.8125,220.669922 C690.847656,220.455077 690.912109,220.194337 691.005859,219.887695 C691.09961,219.581053 691.595699,218.125013 692.494141,215.519531 L693.982422,215.519531 L691.210938,222.861328 C690.707029,224.208991 689.867193,224.882812 688.691406,224.882812 C688.386717,224.882812 688.089845,224.84961 687.800781,224.783203 L687.800781,223.693359 C688.007814,223.740235 688.244139,223.763672 688.509766,223.763672 C689.173831,223.763672 689.640624,223.37891 689.910156,222.609375 L690.150391,222 L687.548828,215.519531 Z" id="July" fill="#454856" opacity="0.5"></path>
                <path d="M771.445312,222 L770.589844,219.621094 L767.314453,219.621094 L766.476562,222 L765,222 L768.205078,213.398438 L769.728516,213.398438 L772.933594,222 L771.445312,222 Z M770.220703,218.414062 L769.417969,216.082031 C769.359375,215.92578 769.278321,215.679689 769.174805,215.34375 C769.071289,215.007811 769,214.76172 768.960938,214.605469 C768.855468,215.08594 768.701173,215.611325 768.498047,216.181641 L767.724609,218.414062 L770.220703,218.414062 Z M778.488281,222 L778.294922,221.150391 L778.224609,221.150391 C778.033202,221.451173 777.760744,221.687499 777.407227,221.859375 C777.053709,222.031251 776.650393,222.117188 776.197266,222.117188 C775.412105,222.117188 774.826174,221.921877 774.439453,221.53125 C774.052732,221.140623 773.859375,220.548832 773.859375,219.755859 L773.859375,215.519531 L775.248047,215.519531 L775.248047,219.515625 C775.248047,220.011721 775.349608,220.383788 775.552734,220.631836 C775.75586,220.879884 776.074217,221.003906 776.507812,221.003906 C777.08594,221.003906 777.510741,220.831056 777.782227,220.485352 C778.053712,220.139647 778.189453,219.560551 778.189453,218.748047 L778.189453,215.519531 L779.572266,215.519531 L779.572266,222 L778.488281,222 Z M787.007812,215.519531 L787.007812,216.275391 L785.900391,216.480469 C786.001954,216.617188 786.085937,216.785155 786.152344,216.984375 C786.21875,217.183595 786.251953,217.39453 786.251953,217.617188 C786.251953,218.28516 786.021487,218.810545 785.560547,219.193359 C785.099607,219.576174 784.464848,219.767578 783.65625,219.767578 C783.449218,219.767578 783.26172,219.751953 783.09375,219.720703 C782.796874,219.904298 782.648438,220.119139 782.648438,220.365234 C782.648438,220.513673 782.717773,220.625 782.856445,220.699219 C782.995118,220.773438 783.249998,220.810547 783.621094,220.810547 L784.751953,220.810547 C785.4668,220.810547 786.009764,220.962889 786.380859,221.267578 C786.751955,221.572267 786.9375,222.011716 786.9375,222.585938 C786.9375,223.320316 786.634769,223.886717 786.029297,224.285156 C785.423825,224.683596 784.548834,224.882812 783.404297,224.882812 C782.52148,224.882812 781.847659,224.726564 781.382812,224.414062 C780.917966,224.101561 780.685547,223.656253 780.685547,223.078125 C780.685547,222.679686 780.811522,222.344728 781.063477,222.073242 C781.315431,221.801756 781.667966,221.613282 782.121094,221.507812 C781.937499,221.429687 781.786133,221.303712 781.666992,221.129883 C781.547851,220.956054 781.488281,220.773438 781.488281,220.582031 C781.488281,220.339843 781.55664,220.134766 781.693359,219.966797 C781.830079,219.798827 782.033202,219.632813 782.302734,219.46875 C781.966795,219.324218 781.694337,219.088869 781.485352,218.762695 C781.276366,218.436522 781.171875,218.05469 781.171875,217.617188 C781.171875,216.914059 781.393552,216.369143 781.836914,215.982422 C782.280276,215.595701 782.912105,215.402344 783.732422,215.402344 C783.916017,215.402344 784.108397,215.415039 784.30957,215.44043 C784.510743,215.46582 784.662109,215.492187 784.763672,215.519531 L787.007812,215.519531 Z M781.916016,223.007812 C781.916016,223.304689 782.049803,223.533202 782.317383,223.693359 C782.584962,223.853516 782.960935,223.933594 783.445312,223.933594 C784.195316,223.933594 784.753904,223.826173 785.121094,223.611328 C785.488283,223.396483 785.671875,223.11133 785.671875,222.755859 C785.671875,222.474608 785.57129,222.274415 785.370117,222.155273 C785.168944,222.036132 784.794925,221.976562 784.248047,221.976562 L783.205078,221.976562 C782.810545,221.976562 782.497071,222.069335 782.264648,222.254883 C782.032225,222.440431 781.916016,222.691405 781.916016,223.007812 Z M782.507812,217.617188 C782.507812,218.02344 782.612304,218.335936 782.821289,218.554688 C783.030274,218.773439 783.330076,218.882812 783.720703,218.882812 C784.517582,218.882812 784.916016,218.457036 784.916016,217.605469 C784.916016,217.183592 784.817384,216.8584 784.620117,216.629883 C784.422851,216.401366 784.123049,216.287109 783.720703,216.287109 C783.322264,216.287109 783.020509,216.400389 782.81543,216.626953 C782.610351,216.853517 782.507812,217.183592 782.507812,217.617188 Z M792.779297,222 L792.585938,221.150391 L792.515625,221.150391 C792.324218,221.451173 792.05176,221.687499 791.698242,221.859375 C791.344725,222.031251 790.941409,222.117188 790.488281,222.117188 C789.703121,222.117188 789.117189,221.921877 788.730469,221.53125 C788.343748,221.140623 788.150391,220.548832 788.150391,219.755859 L788.150391,215.519531 L789.539062,215.519531 L789.539062,219.515625 C789.539062,220.011721 789.640624,220.383788 789.84375,220.631836 C790.046876,220.879884 790.365232,221.003906 790.798828,221.003906 C791.376956,221.003906 791.801756,220.831056 792.073242,220.485352 C792.344728,220.139647 792.480469,219.560551 792.480469,218.748047 L792.480469,215.519531 L793.863281,215.519531 L793.863281,222 L792.779297,222 Z M800.179688,220.154297 C800.179688,220.787113 799.949221,221.272459 799.488281,221.610352 C799.027341,221.948244 798.367192,222.117188 797.507812,222.117188 C796.644527,222.117188 795.951174,221.986329 795.427734,221.724609 L795.427734,220.535156 C796.189457,220.886721 796.898434,221.0625 797.554688,221.0625 C798.402348,221.0625 798.826172,220.806643 798.826172,220.294922 C798.826172,220.130859 798.779297,219.994141 798.685547,219.884766 C798.591796,219.77539 798.437501,219.66211 798.222656,219.544922 C798.007811,219.427734 797.708986,219.294923 797.326172,219.146484 C796.580074,218.85742 796.075197,218.568361 795.811523,218.279297 C795.54785,217.990233 795.416016,217.615237 795.416016,217.154297 C795.416016,216.599607 795.639646,216.168947 796.086914,215.862305 C796.534182,215.555663 797.142574,215.402344 797.912109,215.402344 C798.673832,215.402344 799.394528,215.556639 800.074219,215.865234 L799.628906,216.902344 C798.929684,216.61328 798.341799,216.46875 797.865234,216.46875 C797.138668,216.46875 796.775391,216.675779 796.775391,217.089844 C796.775391,217.29297 796.870116,217.464843 797.05957,217.605469 C797.249024,217.746094 797.662106,217.939452 798.298828,218.185547 C798.833987,218.392579 799.222655,218.58203 799.464844,218.753906 C799.707032,218.925782 799.886718,219.124022 800.003906,219.348633 C800.121094,219.573243 800.179688,219.841795 800.179688,220.154297 Z M804.082031,221.003906 C804.41797,221.003906 804.753905,220.951172 805.089844,220.845703 L805.089844,221.882812 C804.937499,221.949219 804.741212,222.004883 804.500977,222.049805 C804.260741,222.094727 804.01172,222.117188 803.753906,222.117188 C802.449212,222.117188 801.796875,221.429694 801.796875,220.054688 L801.796875,216.5625 L800.912109,216.5625 L800.912109,215.953125 L801.861328,215.449219 L802.330078,214.078125 L803.179688,214.078125 L803.179688,215.519531 L805.025391,215.519531 L805.025391,216.5625 L803.179688,216.5625 L803.179688,220.03125 C803.179688,220.363283 803.262694,220.608398 803.428711,220.766602 C803.594727,220.924805 803.812499,221.003906 804.082031,221.003906 Z" id="August" fill="#454856" opacity="0.5"></path>
                <path d="M883.070312,219.673828 C883.070312,220.435551 882.794925,221.033201 882.244141,221.466797 C881.693357,221.900393 880.933599,222.117188 879.964844,222.117188 C878.996089,222.117188 878.203128,221.966798 877.585938,221.666016 L877.585938,220.341797 C877.976564,220.525392 878.391599,220.669921 878.831055,220.775391 C879.27051,220.88086 879.679686,220.933594 880.058594,220.933594 C880.613284,220.933594 881.02246,220.828126 881.286133,220.617188 C881.549806,220.406249 881.681641,220.123049 881.681641,219.767578 C881.681641,219.447264 881.560548,219.175782 881.318359,218.953125 C881.076171,218.730468 880.576176,218.466798 879.818359,218.162109 C879.037105,217.845702 878.48633,217.484377 878.166016,217.078125 C877.845702,216.671873 877.685547,216.183597 877.685547,215.613281 C877.685547,214.898434 877.939451,214.33594 878.447266,213.925781 C878.955081,213.515623 879.636714,213.310547 880.492188,213.310547 C881.312504,213.310547 882.128902,213.490233 882.941406,213.849609 L882.496094,214.992188 C881.734371,214.671873 881.05469,214.511719 880.457031,214.511719 C880.003904,214.511719 879.660157,214.610351 879.425781,214.807617 C879.191405,215.004884 879.074219,215.265623 879.074219,215.589844 C879.074219,215.812501 879.121093,216.002929 879.214844,216.161133 C879.308594,216.319337 879.46289,216.468749 879.677734,216.609375 C879.892579,216.750001 880.279294,216.935546 880.837891,217.166016 C881.4668,217.427736 881.927733,217.671874 882.220703,217.898438 C882.513673,218.125001 882.728515,218.380858 882.865234,218.666016 C883.001954,218.951173 883.070312,219.287107 883.070312,219.673828 Z M887.412109,222.117188 C886.404292,222.117188 885.616214,221.823245 885.047852,221.235352 C884.479489,220.647458 884.195312,219.837896 884.195312,218.806641 C884.195312,217.748042 884.458982,216.916019 884.986328,216.310547 C885.513675,215.705075 886.238277,215.402344 887.160156,215.402344 C888.015629,215.402344 888.691404,215.662107 889.1875,216.181641 C889.683596,216.701174 889.931641,217.416011 889.931641,218.326172 L889.931641,219.070312 L885.613281,219.070312 C885.632813,219.699222 885.802733,220.182615 886.123047,220.520508 C886.443361,220.8584 886.894528,221.027344 887.476562,221.027344 C887.859377,221.027344 888.215819,220.991211 888.545898,220.918945 C888.875978,220.846679 889.230467,220.726563 889.609375,220.558594 L889.609375,221.677734 C889.273436,221.837891 888.933595,221.951172 888.589844,222.017578 C888.246092,222.083985 887.853518,222.117188 887.412109,222.117188 Z M887.160156,216.445312 C886.722654,216.445312 886.372072,216.583983 886.108398,216.861328 C885.844725,217.138673 885.6875,217.542966 885.636719,218.074219 L888.578125,218.074219 C888.570312,217.53906 888.441407,217.13379 888.191406,216.858398 C887.941405,216.583006 887.597658,216.445312 887.160156,216.445312 Z M894.783203,222.117188 C893.962887,222.117188 893.326174,221.822269 892.873047,221.232422 L892.791016,221.232422 C892.845703,221.7793 892.873047,222.111328 892.873047,222.228516 L892.873047,224.882812 L891.496094,224.882812 L891.496094,215.519531 L892.609375,215.519531 C892.640625,215.640626 892.705078,215.929685 892.802734,216.386719 L892.873047,216.386719 C893.302737,215.730465 893.947261,215.402344 894.806641,215.402344 C895.615238,215.402344 896.245115,215.69531 896.696289,216.28125 C897.147463,216.86719 897.373047,217.689448 897.373047,218.748047 C897.373047,219.806646 897.143557,220.63281 896.68457,221.226562 C896.225584,221.820315 895.591801,222.117188 894.783203,222.117188 Z M894.449219,216.527344 C893.902341,216.527344 893.502931,216.687498 893.250977,217.007812 C892.999022,217.328127 892.873047,217.83984 892.873047,218.542969 L892.873047,218.748047 C892.873047,219.537113 892.998046,220.108397 893.248047,220.461914 C893.498048,220.815431 893.906247,220.992188 894.472656,220.992188 C894.949221,220.992188 895.316405,220.796877 895.574219,220.40625 C895.832033,220.015623 895.960938,219.458988 895.960938,218.736328 C895.960938,218.009762 895.833009,217.459963 895.577148,217.086914 C895.321288,216.713865 894.945315,216.527344 894.449219,216.527344 Z M901.386719,221.003906 C901.722658,221.003906 902.058592,220.951172 902.394531,220.845703 L902.394531,221.882812 C902.242187,221.949219 902.0459,222.004883 901.805664,222.049805 C901.565428,222.094727 901.316408,222.117188 901.058594,222.117188 C899.7539,222.117188 899.101562,221.429694 899.101562,220.054688 L899.101562,216.5625 L898.216797,216.5625 L898.216797,215.953125 L899.166016,215.449219 L899.634766,214.078125 L900.484375,214.078125 L900.484375,215.519531 L902.330078,215.519531 L902.330078,216.5625 L900.484375,216.5625 L900.484375,220.03125 C900.484375,220.363283 900.567382,220.608398 900.733398,220.766602 C900.899415,220.924805 901.117186,221.003906 901.386719,221.003906 Z M906.519531,222.117188 C905.511714,222.117188 904.723636,221.823245 904.155273,221.235352 C903.586911,220.647458 903.302734,219.837896 903.302734,218.806641 C903.302734,217.748042 903.566404,216.916019 904.09375,216.310547 C904.621096,215.705075 905.345699,215.402344 906.267578,215.402344 C907.123051,215.402344 907.798826,215.662107 908.294922,216.181641 C908.791018,216.701174 909.039062,217.416011 909.039062,218.326172 L909.039062,219.070312 L904.720703,219.070312 C904.740234,219.699222 904.910155,220.182615 905.230469,220.520508 C905.550783,220.8584 906.00195,221.027344 906.583984,221.027344 C906.966799,221.027344 907.323241,220.991211 907.65332,220.918945 C907.9834,220.846679 908.337889,220.726563 908.716797,220.558594 L908.716797,221.677734 C908.380858,221.837891 908.041017,221.951172 907.697266,222.017578 C907.353514,222.083985 906.96094,222.117188 906.519531,222.117188 Z M906.267578,216.445312 C905.830076,216.445312 905.479494,216.583983 905.21582,216.861328 C904.952147,217.138673 904.794922,217.542966 904.744141,218.074219 L907.685547,218.074219 C907.677734,217.53906 907.548829,217.13379 907.298828,216.858398 C907.048827,216.583006 906.70508,216.445312 906.267578,216.445312 Z M916.064453,222 L914.681641,222 L914.681641,218.003906 C914.681641,217.50781 914.587892,217.137697 914.400391,216.893555 C914.21289,216.649413 913.919924,216.527344 913.521484,216.527344 C912.990232,216.527344 912.600587,216.700194 912.352539,217.045898 C912.104491,217.391603 911.980469,217.966793 911.980469,218.771484 L911.980469,222 L910.603516,222 L910.603516,215.519531 L911.681641,215.519531 L911.875,216.369141 L911.945312,216.369141 C912.125001,216.060545 912.38574,215.822266 912.727539,215.654297 C913.069338,215.486327 913.44531,215.402344 913.855469,215.402344 C914.851567,215.402344 915.511717,215.742184 915.835938,216.421875 L915.929688,216.421875 C916.121095,216.101561 916.390623,215.851563 916.738281,215.671875 C917.085939,215.492187 917.484373,215.402344 917.933594,215.402344 C918.707035,215.402344 919.270506,215.597654 919.624023,215.988281 C919.977541,216.378908 920.154297,216.974605 920.154297,217.775391 L920.154297,222 L918.777344,222 L918.777344,218.003906 C918.777344,217.50781 918.682618,217.137697 918.493164,216.893555 C918.30371,216.649413 918.009768,216.527344 917.611328,216.527344 C917.076169,216.527344 916.684572,216.694334 916.436523,217.02832 C916.188475,217.362306 916.064453,217.874997 916.064453,218.566406 L916.064453,222 Z M925.386719,215.402344 C926.195317,215.402344 926.825193,215.69531 927.276367,216.28125 C927.727541,216.86719 927.953125,217.689448 927.953125,218.748047 C927.953125,219.810552 927.724612,220.637692 927.267578,221.229492 C926.810545,221.821292 926.175785,222.117188 925.363281,222.117188 C924.542965,222.117188 923.906252,221.822269 923.453125,221.232422 L923.359375,221.232422 L923.107422,222 L922.076172,222 L922.076172,212.882812 L923.453125,212.882812 L923.453125,215.050781 C923.453125,215.210938 923.445313,215.449217 923.429688,215.765625 C923.414062,216.082033 923.402344,216.283203 923.394531,216.369141 L923.453125,216.369141 C923.890627,215.724606 924.535152,215.402344 925.386719,215.402344 Z M925.029297,216.527344 C924.474607,216.527344 924.075197,216.690428 923.831055,217.016602 C923.586913,217.342775 923.460938,217.888668 923.453125,218.654297 L923.453125,218.748047 C923.453125,219.537113 923.578124,220.108397 923.828125,220.461914 C924.078126,220.815431 924.486325,220.992188 925.052734,220.992188 C925.541018,220.992188 925.911132,220.79883 926.163086,220.412109 C926.41504,220.025389 926.541016,219.466801 926.541016,218.736328 C926.541016,217.263665 926.037114,216.527344 925.029297,216.527344 Z M932.382812,222.117188 C931.374995,222.117188 930.586917,221.823245 930.018555,221.235352 C929.450192,220.647458 929.166016,219.837896 929.166016,218.806641 C929.166016,217.748042 929.429685,216.916019 929.957031,216.310547 C930.484378,215.705075 931.20898,215.402344 932.130859,215.402344 C932.986332,215.402344 933.662107,215.662107 934.158203,216.181641 C934.654299,216.701174 934.902344,217.416011 934.902344,218.326172 L934.902344,219.070312 L930.583984,219.070312 C930.603516,219.699222 930.773436,220.182615 931.09375,220.520508 C931.414064,220.8584 931.865231,221.027344 932.447266,221.027344 C932.83008,221.027344 933.186522,220.991211 933.516602,220.918945 C933.846681,220.846679 934.20117,220.726563 934.580078,220.558594 L934.580078,221.677734 C934.244139,221.837891 933.904299,221.951172 933.560547,222.017578 C933.216795,222.083985 932.824221,222.117188 932.382812,222.117188 Z M932.130859,216.445312 C931.693357,216.445312 931.342775,216.583983 931.079102,216.861328 C930.815428,217.138673 930.658203,217.542966 930.607422,218.074219 L933.548828,218.074219 C933.541016,217.53906 933.412111,217.13379 933.162109,216.858398 C932.912108,216.583006 932.568362,216.445312 932.130859,216.445312 Z M939.753906,215.402344 C940.031251,215.402344 940.259765,215.421875 940.439453,215.460938 L940.304688,216.744141 C940.109374,216.697265 939.906251,216.673828 939.695312,216.673828 C939.144528,216.673828 938.698244,216.853514 938.356445,217.212891 C938.014647,217.572267 937.84375,218.03906 937.84375,218.613281 L937.84375,222 L936.466797,222 L936.466797,215.519531 L937.544922,215.519531 L937.726562,216.662109 L937.796875,216.662109 C938.01172,216.275389 938.29199,215.968751 938.637695,215.742188 C938.9834,215.515624 939.355467,215.402344 939.753906,215.402344 Z" id="September" fill="#454856" opacity="0.5"></path>
                <path d="M1020.73633,217.705078 C1020.73633,219.099616 1020.3877,220.18359 1019.69043,220.957031 C1018.99316,221.730473 1018.00587,222.117188 1016.72852,222.117188 C1015.43554,222.117188 1014.44239,221.733402 1013.74902,220.96582 C1013.05566,220.198238 1012.70898,219.107429 1012.70898,217.693359 C1012.70898,216.27929 1013.05761,215.193363 1013.75488,214.435547 C1014.45215,213.677731 1015.44726,213.298828 1016.74023,213.298828 C1018.01368,213.298828 1018.99804,213.68359 1019.69336,214.453125 C1020.38868,215.22266 1020.73633,216.306634 1020.73633,217.705078 Z M1014.19727,217.705078 C1014.19727,218.759771 1014.41015,219.559568 1014.83594,220.104492 C1015.26172,220.649417 1015.89257,220.921875 1016.72852,220.921875 C1017.56055,220.921875 1018.18847,220.652346 1018.6123,220.113281 C1019.03613,219.574216 1019.24805,218.77149 1019.24805,217.705078 C1019.24805,216.654292 1019.03809,215.857425 1018.61816,215.314453 C1018.19824,214.771482 1017.57227,214.5 1016.74023,214.5 C1015.90039,214.5 1015.2666,214.771482 1014.83887,215.314453 C1014.41113,215.857425 1014.19727,216.654292 1014.19727,217.705078 Z M1025.04297,222.117188 C1024.0625,222.117188 1023.31739,221.831058 1022.80762,221.258789 C1022.29785,220.686521 1022.04297,219.86524 1022.04297,218.794922 C1022.04297,217.705073 1022.30957,216.86719 1022.84277,216.28125 C1023.37598,215.69531 1024.14648,215.402344 1025.1543,215.402344 C1025.83789,215.402344 1026.45312,215.529296 1027,215.783203 L1026.58398,216.890625 C1026.00195,216.664061 1025.52149,216.550781 1025.14258,216.550781 C1024.02148,216.550781 1023.46094,217.294914 1023.46094,218.783203 C1023.46094,219.509769 1023.60058,220.055662 1023.87988,220.420898 C1024.15918,220.786135 1024.56836,220.96875 1025.10742,220.96875 C1025.72071,220.96875 1026.30078,220.816408 1026.84766,220.511719 L1026.84766,221.712891 C1026.60156,221.857423 1026.33887,221.960937 1026.05957,222.023438 C1025.78027,222.085938 1025.44141,222.117188 1025.04297,222.117188 Z M1030.78516,221.003906 C1031.1211,221.003906 1031.45703,220.951172 1031.79297,220.845703 L1031.79297,221.882812 C1031.64062,221.949219 1031.44434,222.004883 1031.2041,222.049805 C1030.96387,222.094727 1030.71485,222.117188 1030.45703,222.117188 C1029.15234,222.117188 1028.5,221.429694 1028.5,220.054688 L1028.5,216.5625 L1027.61523,216.5625 L1027.61523,215.953125 L1028.56445,215.449219 L1029.0332,214.078125 L1029.88281,214.078125 L1029.88281,215.519531 L1031.72852,215.519531 L1031.72852,216.5625 L1029.88281,216.5625 L1029.88281,220.03125 C1029.88281,220.363283 1029.96582,220.608398 1030.13184,220.766602 C1030.29785,220.924805 1030.51562,221.003906 1030.78516,221.003906 Z M1038.83594,218.748047 C1038.83594,219.806646 1038.56446,220.63281 1038.02148,221.226562 C1037.47851,221.820315 1036.72266,222.117188 1035.75391,222.117188 C1035.14843,222.117188 1034.61328,221.98047 1034.14844,221.707031 C1033.68359,221.433592 1033.32617,221.041018 1033.07617,220.529297 C1032.82617,220.017576 1032.70117,219.423832 1032.70117,218.748047 C1032.70117,217.69726 1032.9707,216.876956 1033.50977,216.287109 C1034.04883,215.697263 1034.80859,215.402344 1035.78906,215.402344 C1036.72657,215.402344 1037.46875,215.704099 1038.01562,216.307617 C1038.5625,216.911136 1038.83594,217.724604 1038.83594,218.748047 Z M1034.11914,218.748047 C1034.11914,220.244148 1034.67187,220.992188 1035.77734,220.992188 C1036.8711,220.992188 1037.41797,220.244148 1037.41797,218.748047 C1037.41797,217.267571 1036.86719,216.527344 1035.76562,216.527344 C1035.1875,216.527344 1034.76856,216.718748 1034.50879,217.101562 C1034.24902,217.484377 1034.11914,218.0332 1034.11914,218.748047 Z M1043.72852,215.402344 C1044.53711,215.402344 1045.16699,215.69531 1045.61816,216.28125 C1046.06934,216.86719 1046.29492,217.689448 1046.29492,218.748047 C1046.29492,219.810552 1046.06641,220.637692 1045.60938,221.229492 C1045.15234,221.821292 1044.51758,222.117188 1043.70508,222.117188 C1042.88476,222.117188 1042.24805,221.822269 1041.79492,221.232422 L1041.70117,221.232422 L1041.44922,222 L1040.41797,222 L1040.41797,212.882812 L1041.79492,212.882812 L1041.79492,215.050781 C1041.79492,215.210938 1041.78711,215.449217 1041.77148,215.765625 C1041.75586,216.082033 1041.74414,216.283203 1041.73633,216.369141 L1041.79492,216.369141 C1042.23242,215.724606 1042.87695,215.402344 1043.72852,215.402344 Z M1043.37109,216.527344 C1042.8164,216.527344 1042.41699,216.690428 1042.17285,217.016602 C1041.92871,217.342775 1041.80273,217.888668 1041.79492,218.654297 L1041.79492,218.748047 C1041.79492,219.537113 1041.91992,220.108397 1042.16992,220.461914 C1042.41992,220.815431 1042.82812,220.992188 1043.39453,220.992188 C1043.88281,220.992188 1044.25293,220.79883 1044.50488,220.412109 C1044.75684,220.025389 1044.88281,219.466801 1044.88281,218.736328 C1044.88281,217.263665 1044.37891,216.527344 1043.37109,216.527344 Z M1050.72461,222.117188 C1049.71679,222.117188 1048.92871,221.823245 1048.36035,221.235352 C1047.79199,220.647458 1047.50781,219.837896 1047.50781,218.806641 C1047.50781,217.748042 1047.77148,216.916019 1048.29883,216.310547 C1048.82617,215.705075 1049.55078,215.402344 1050.47266,215.402344 C1051.32813,215.402344 1052.0039,215.662107 1052.5,216.181641 C1052.9961,216.701174 1053.24414,217.416011 1053.24414,218.326172 L1053.24414,219.070312 L1048.92578,219.070312 C1048.94531,219.699222 1049.11523,220.182615 1049.43555,220.520508 C1049.75586,220.8584 1050.20703,221.027344 1050.78906,221.027344 C1051.17188,221.027344 1051.52832,220.991211 1051.8584,220.918945 C1052.18848,220.846679 1052.54297,220.726563 1052.92188,220.558594 L1052.92188,221.677734 C1052.58594,221.837891 1052.2461,221.951172 1051.90234,222.017578 C1051.55859,222.083985 1051.16602,222.117188 1050.72461,222.117188 Z M1050.47266,216.445312 C1050.03515,216.445312 1049.68457,216.583983 1049.4209,216.861328 C1049.15723,217.138673 1049,217.542966 1048.94922,218.074219 L1051.89062,218.074219 C1051.88281,217.53906 1051.75391,217.13379 1051.50391,216.858398 C1051.25391,216.583006 1050.91016,216.445312 1050.47266,216.445312 Z M1058.0957,215.402344 C1058.37305,215.402344 1058.60156,215.421875 1058.78125,215.460938 L1058.64648,216.744141 C1058.45117,216.697265 1058.24805,216.673828 1058.03711,216.673828 C1057.48633,216.673828 1057.04004,216.853514 1056.69824,217.212891 C1056.35644,217.572267 1056.18555,218.03906 1056.18555,218.613281 L1056.18555,222 L1054.80859,222 L1054.80859,215.519531 L1055.88672,215.519531 L1056.06836,216.662109 L1056.13867,216.662109 C1056.35352,216.275389 1056.63379,215.968751 1056.97949,215.742188 C1057.3252,215.515624 1057.69726,215.402344 1058.0957,215.402344 Z" id="October" fill="#454856" opacity="0.5"></path>
                <path d="M33.5,201.5 L1058.91016,201.5" id="Line-4" stroke="#DCD4F7" stroke-linecap="square"></path>
                <path d="M33,115.028222 L60.5301054,105.678283 L77.7223141,85.9409101 L104.172341,80.7465 L113.429277,80.7465 L130.621486,97.8873608 L146.397689,110.872693 L158.394058,119.18375 L179.553021,119.18375 L199.390321,107.756047 L231.129647,112.950457 L246.99931,135.109118 L286.67391,161.775835 L305.103139,161.775835 L325.025963,161.775835 L340.895627,155.542543 L355.443626,161.775835 L363.378017,176.664399 L373.95838,187.7465 L391.150589,176.664399 L416.277188,162.814717 L440.082124,140.998887 L469.17636,140.998887 L487.691114,151.387707 L509.998047,135.109118 L549.847222,125.417042 L574.974703,134.246846 L602.746394,149.309943 L622.514039,144.115533 L655.645565,125.417042 L697.965255,126.455231 L716.480009,117.105986 L753.509517,107.756047 L781.219489,113.989339 C781.219489,113.989339 803.763598,125.417042 807.731234,125.417042 C811.698871,125.417042 838.148016,124.37816 838.148016,124.37816 L860.630406,135.109118 L879.14516,149.309943 L910.884487,134.246846 L954.52584,120.222632 L986.996094,118.144868" id="Stroke-3-Copy" stroke="#5A3EC8" stroke-width="2" stroke-linecap="round" stroke-linejoin="round"></path>
                <path d="M33,152.187288 L60.5301054,156.029893 L77.7223141,164.141491 L104.172341,166.276272 L113.429277,152.424511 L130.621486,137.068963 L146.397689,141.428528 L158.394058,143.553583 L179.553021,150.479463 L199.390321,161.409273 L231.129647,159.274492 L246.99931,150.167802 L286.67391,139.208407 L325.025963,139.208407 L340.895627,141.770144 L355.443626,139.208407 L363.378017,133.089556 L373.95838,128.535073 L391.150589,133.089556 L416.277188,138.781451 L440.082124,147.747246 L469.17636,147.747246 L487.691114,143.477684 L509.998047,150.167802 L549.847222,154.151019 L574.974703,150.522176 L602.746394,144.331596 L622.514039,146.466377 L655.645565,154.151019 L697.965255,153.724347 L716.480009,157.566668 L753.509517,161.409273 L781.219489,158.847536 C781.219489,158.847536 803.763598,154.151019 807.731234,154.151019 C811.698871,154.151019 838.148016,154.577975 838.148016,154.577975 L860.630406,150.167802 L879.14516,158.875945 L910.884487,150.522176 L954.52584,156.285799 L986.996094,157.139712" id="Stroke-3-Copy-2" stroke="#5A3EC8" stroke-width="2" opacity="0.300000012" stroke-linecap="round" stroke-linejoin="round"></path>
                <g id="Group-2" transform="translate(191.000000, 33.000000)">
                    <path d="M36.3339844,13 L30.5273438,13 L30.5273438,11.9570312 L32.7363281,9.73632812 C33.3886751,9.06835604 33.821288,8.59472796 34.0341797,8.31542969 C34.2470714,8.03613142 34.4023433,7.77343873 34.5,7.52734375 C34.5976567,7.28124877 34.6464844,7.01757953 34.6464844,6.73632812 C34.6464844,6.34960744 34.5302746,6.04492299 34.2978516,5.82226562 C34.0654285,5.59960826 33.7441427,5.48828125 33.3339844,5.48828125 C33.0058577,5.48828125 32.6884781,5.54882752 32.3818359,5.66992188 C32.0751938,5.79101623 31.7207051,6.00976404 31.3183594,6.32617188 L30.5742188,5.41796875 C31.0507836,5.01562299 31.5136696,4.73046959 31.9628906,4.5625 C32.4121116,4.39453041 32.8906225,4.31054688 33.3984375,4.31054688 C34.1953165,4.31054688 34.833982,4.51855261 35.3144531,4.93457031 C35.7949243,5.35058802 36.0351562,5.91015273 36.0351562,6.61328125 C36.0351562,7.00000193 35.965821,7.36718576 35.8271484,7.71484375 C35.6884759,8.06250174 35.4755874,8.42089659 35.1884766,8.79003906 C34.9013658,9.15918153 34.4238315,9.65819998 33.7558594,10.2871094 L32.2675781,11.7285156 L32.2675781,11.7871094 L36.3339844,11.7871094 L36.3339844,13 Z M43.1835938,8.71679688 C43.1835938,10.2050856 42.9443383,11.3105433 42.4658203,12.0332031 C41.9873023,12.755863 41.2558643,13.1171875 40.2714844,13.1171875 C39.3183546,13.1171875 38.5957056,12.7441444 38.1035156,11.9980469 C37.6113257,11.2519494 37.3652344,10.1582103 37.3652344,8.71679688 C37.3652344,7.20507057 37.6044898,6.0908239 38.0830078,5.37402344 C38.5615258,4.65722298 39.2910107,4.29882812 40.2714844,4.29882812 C41.2285204,4.29882812 41.9531225,4.67382437 42.4453125,5.42382812 C42.9375025,6.17383187 43.1835938,7.27147715 43.1835938,8.71679688 Z M38.7597656,8.71679688 C38.7597656,9.88477146 38.8798816,10.7187475 39.1201172,11.21875 C39.3603528,11.7187525 39.744138,11.96875 40.2714844,11.96875 C40.7988308,11.96875 41.1845691,11.7148463 41.4287109,11.2070312 C41.6728528,10.6992162 41.7949219,9.86914639 41.7949219,8.71679688 C41.7949219,7.56835363 41.6728528,6.73730726 41.4287109,6.22363281 C41.1845691,5.70995837 40.7988308,5.453125 40.2714844,5.453125 C39.744138,5.453125 39.3603528,5.70507561 39.1201172,6.20898438 C38.8798816,6.71289314 38.7597656,7.54882229 38.7597656,8.71679688 Z M48.2695312,13 L46.8925781,13 L46.8925781,7.46875 C46.8925781,6.80859045 46.908203,6.28515818 46.9394531,5.8984375 C46.8496089,5.99218797 46.7392585,6.09570256 46.6083984,6.20898438 C46.4775384,6.32226619 46.0390662,6.6816376 45.2929688,7.28710938 L44.6015625,6.4140625 L47.1210938,4.43359375 L48.2695312,4.43359375 L48.2695312,13 Z M51.0996094,9.34960938 C51.0996094,5.99803012 52.4648301,4.32226562 55.1953125,4.32226562 C55.6250021,4.32226562 55.9882798,4.35546842 56.2851562,4.421875 L56.2851562,5.5703125 C55.9882798,5.48437457 55.6445332,5.44140625 55.2539062,5.44140625 C54.3359329,5.44140625 53.6464867,5.68749754 53.1855469,6.1796875 C52.7246071,6.67187746 52.4746096,7.46093207 52.4355469,8.546875 L52.5058594,8.546875 C52.689454,8.23046717 52.947264,7.98535243 53.2792969,7.81152344 C53.6113298,7.63769444 54.0019509,7.55078125 54.4511719,7.55078125 C55.2285195,7.55078125 55.8339822,7.78906012 56.2675781,8.265625 C56.701174,8.74218988 56.9179688,9.38866779 56.9179688,10.2050781 C56.9179688,11.1035201 56.6669947,11.813474 56.1650391,12.3349609 C55.6630834,12.8564479 54.97852,13.1171875 54.1113281,13.1171875 C53.4980438,13.1171875 52.964846,12.969728 52.5117188,12.6748047 C52.0585915,12.3798813 51.7099622,11.9501981 51.4658203,11.3857422 C51.2216785,10.8212862 51.0996094,10.1425821 51.0996094,9.34960938 Z M54.0878906,11.9804688 C54.5605492,11.9804688 54.9248034,11.8281265 55.1806641,11.5234375 C55.4365247,11.2187485 55.5644531,10.783206 55.5644531,10.2167969 C55.5644531,9.72460691 55.4443371,9.33789203 55.2041016,9.05664062 C54.963866,8.77538922 54.603518,8.63476562 54.1230469,8.63476562 C53.8261704,8.63476562 53.5527356,8.69824155 53.3027344,8.82519531 C53.0527331,8.95214907 52.8554695,9.12597546 52.7109375,9.34667969 C52.5664055,9.56738392 52.4941406,9.7929676 52.4941406,10.0234375 C52.4941406,10.5742215 52.6435532,11.0380841 52.9423828,11.4150391 C53.2412124,11.7919941 53.6230446,11.9804688 54.0878906,11.9804688 Z" id="2016" fill="#454856" opacity="0.5"></path>
                    <rect id="Rectangle-5" fill="#CDC5EE" x="0" y="2" width="15" height="15"></rect>
                </g>
                <g id="Group-2-Copy" transform="translate(279.000000, 33.000000)">
                    <path d="M36.3339844,13 L30.5273438,13 L30.5273438,11.9570312 L32.7363281,9.73632812 C33.3886751,9.06835604 33.821288,8.59472796 34.0341797,8.31542969 C34.2470714,8.03613142 34.4023433,7.77343873 34.5,7.52734375 C34.5976567,7.28124877 34.6464844,7.01757953 34.6464844,6.73632812 C34.6464844,6.34960744 34.5302746,6.04492299 34.2978516,5.82226562 C34.0654285,5.59960826 33.7441427,5.48828125 33.3339844,5.48828125 C33.0058577,5.48828125 32.6884781,5.54882752 32.3818359,5.66992188 C32.0751938,5.79101623 31.7207051,6.00976404 31.3183594,6.32617188 L30.5742188,5.41796875 C31.0507836,5.01562299 31.5136696,4.73046959 31.9628906,4.5625 C32.4121116,4.39453041 32.8906225,4.31054688 33.3984375,4.31054688 C34.1953165,4.31054688 34.833982,4.51855261 35.3144531,4.93457031 C35.7949243,5.35058802 36.0351562,5.91015273 36.0351562,6.61328125 C36.0351562,7.00000193 35.965821,7.36718576 35.8271484,7.71484375 C35.6884759,8.06250174 35.4755874,8.42089659 35.1884766,8.79003906 C34.9013658,9.15918153 34.4238315,9.65819998 33.7558594,10.2871094 L32.2675781,11.7285156 L32.2675781,11.7871094 L36.3339844,11.7871094 L36.3339844,13 Z M43.1835938,8.71679688 C43.1835938,10.2050856 42.9443383,11.3105433 42.4658203,12.0332031 C41.9873023,12.755863 41.2558643,13.1171875 40.2714844,13.1171875 C39.3183546,13.1171875 38.5957056,12.7441444 38.1035156,11.9980469 C37.6113257,11.2519494 37.3652344,10.1582103 37.3652344,8.71679688 C37.3652344,7.20507057 37.6044898,6.0908239 38.0830078,5.37402344 C38.5615258,4.65722298 39.2910107,4.29882812 40.2714844,4.29882812 C41.2285204,4.29882812 41.9531225,4.67382437 42.4453125,5.42382812 C42.9375025,6.17383187 43.1835938,7.27147715 43.1835938,8.71679688 Z M38.7597656,8.71679688 C38.7597656,9.88477146 38.8798816,10.7187475 39.1201172,11.21875 C39.3603528,11.7187525 39.744138,11.96875 40.2714844,11.96875 C40.7988308,11.96875 41.1845691,11.7148463 41.4287109,11.2070312 C41.6728528,10.6992162 41.7949219,9.86914639 41.7949219,8.71679688 C41.7949219,7.56835363 41.6728528,6.73730726 41.4287109,6.22363281 C41.1845691,5.70995837 40.7988308,5.453125 40.2714844,5.453125 C39.744138,5.453125 39.3603528,5.70507561 39.1201172,6.20898438 C38.8798816,6.71289314 38.7597656,7.54882229 38.7597656,8.71679688 Z M48.2695312,13 L46.8925781,13 L46.8925781,7.46875 C46.8925781,6.80859045 46.908203,6.28515818 46.9394531,5.8984375 C46.8496089,5.99218797 46.7392585,6.09570256 46.6083984,6.20898438 C46.4775384,6.32226619 46.0390662,6.6816376 45.2929688,7.28710938 L44.6015625,6.4140625 L47.1210938,4.43359375 L48.2695312,4.43359375 L48.2695312,13 Z M52.0488281,13 L55.4355469,5.65820312 L50.9824219,5.65820312 L50.9824219,4.4453125 L56.90625,4.4453125 L56.90625,5.40625 L53.5371094,13 L52.0488281,13 Z" id="2017" fill="#454856" opacity="0.5"></path>
                    <rect id="Rectangle-5" fill="#473793" x="0" y="2" width="15" height="15"></rect>
                </g>
            </g>
        </g>
    </g>
</svg>