<?xml version="1.0" encoding="UTF-8"?>
<svg width="71px" height="24px" viewBox="0 0 71 24" version="1.1" xmlns="http://www.w3.org/2000/svg" xmlns:xlink="http://www.w3.org/1999/xlink">
    <!-- Generator: Sketch 46.2 (44496) - http://www.bohemiancoding.com/sketch -->
    <title>prince</title>
    <desc>Created with Sketch.</desc>
    <defs></defs>
    <g id="Mobile-Scratch-3" stroke="none" stroke-width="1" fill="none" fill-rule="evenodd">
        <g id="prince">
            <path d="M0.608,6.336 L3.92,6.336 L3.92,7.872 L3.968,7.872 C4.11200072,7.66399896 4.29999884,7.45200108 4.532,7.236 C4.76400116,7.01999892 5.03599844,6.82400088 5.348,6.648 C5.66000156,6.47199912 5.99999816,6.32800056 6.368,6.216 C6.73600184,6.10399944 7.12799792,6.048 7.544,6.048 C8.40800432,6.048 9.19199648,6.19599852 9.896,6.492 C10.6000035,6.78800148 11.2039975,7.20399732 11.708,7.74 C12.2120025,8.27600268 12.5999986,8.91199632 12.872,9.648 C13.1440014,10.3840037 13.28,11.1919956 13.28,12.072 C13.28,12.8880041 13.1560012,13.6679963 12.908,14.412 C12.6599988,15.1560037 12.3080023,15.8159971 11.852,16.392 C11.3959977,16.9680029 10.8400033,17.4279983 10.184,17.772 C9.52799672,18.1160017 8.78400416,18.288 7.952,18.288 C7.19999624,18.288 6.50000324,18.1720012 5.852,17.94 C5.20399676,17.7079988 4.67200208,17.3120028 4.256,16.752 L4.208,16.752 L4.208,23.472 L0.608,23.472 L0.608,6.336 Z M3.92,12.168 C3.92,13.0480044 4.17199748,13.7599973 4.676,14.304 C5.18000252,14.8480027 5.88799544,15.12 6.8,15.12 C7.71200456,15.12 8.41999748,14.8480027 8.924,14.304 C9.42800252,13.7599973 9.68,13.0480044 9.68,12.168 C9.68,11.2879956 9.42800252,10.5760027 8.924,10.032 C8.41999748,9.48799728 7.71200456,9.216 6.8,9.216 C5.88799544,9.216 5.18000252,9.48799728 4.676,10.032 C4.17199748,10.5760027 3.92,11.2879956 3.92,12.168 Z" id="Combined-Shape" fill="#473793"></path>
            <path d="M15.872,6.336 L19.472,6.336 L19.472,8.208 L19.52,8.208 C19.9040019,7.4879964 20.3599974,6.9480018 20.888,6.588 C21.4160027,6.2279982 22.079996,6.048 22.88,6.048 C23.0880011,6.048 23.295999,6.05599992 23.504,6.072 C23.7120011,6.08800008 23.9039991,6.11999976 24.08,6.168 L24.08,9.456 C23.8239987,9.3759996 23.5720013,9.3160002 23.324,9.276 C23.0759988,9.2359998 22.8160014,9.216 22.544,9.216 C21.8559966,9.216 21.312002,9.31199904 20.912,9.504 C20.511998,9.69600096 20.2040011,9.96399828 19.988,10.308 C19.7719989,10.6520017 19.6320003,11.0639976 19.568,11.544 C19.5039997,12.0240024 19.472,12.5519971 19.472,13.128 L19.472,18 L15.872,18 L15.872,6.336 Z" id="Path" fill="#473793"></path>
            <polygon id="Path" fill="#DC267F" points="26.168 6.336 29.768 6.336 29.768 18 26.168 18"></polygon>
            <path d="M25.88,2.664 C25.88,2.08799712 26.083998,1.59600204 26.492,1.188 C26.9000021,0.77999796 27.3919972,0.576 27.968,0.576 C28.5440029,0.576 29.035998,0.77999796 29.444,1.188 C29.8520021,1.59600204 30.056,2.08799712 30.056,2.664 C30.056,3.24000288 29.8520021,3.73199796 29.444,4.14 C29.035998,4.54800204 28.5440029,4.752 27.968,4.752 C27.3919972,4.752 26.9000021,4.54800204 26.492,4.14 C26.083998,3.73199796 25.88,3.24000288 25.88,2.664 Z" id="Path" fill="#DC267F"></path>
            <path d="M32.8400001,6.336 L36.2960001,6.336 L36.2960001,7.92 L36.3440001,7.92 C36.4560006,7.69599888 36.615999,7.47200112 36.8240001,7.248 C37.0320011,7.02399888 37.2799986,6.82400088 37.5680001,6.648 C37.8560015,6.47199912 38.1839982,6.32800056 38.5520001,6.216 C38.9200019,6.10399944 39.3199979,6.048 39.7520001,6.048 C40.6640046,6.048 41.3999973,6.1879986 41.9600001,6.468 C42.5200029,6.7480014 42.9559985,7.13599752 43.2680001,7.632 C43.5800016,8.12800248 43.7919995,8.71199664 43.9040001,9.384 C44.0160006,10.0560034 44.0720001,10.7839961 44.0720001,11.568 L44.0720001,18 L40.4720001,18 L40.4720001,12.288 C40.4720001,11.9519983 40.4600002,11.6040018 40.4360001,11.244 C40.4119999,10.8839982 40.3400007,10.5520015 40.2200001,10.248 C40.0999995,9.94399848 39.9160013,9.69600096 39.6680001,9.504 C39.4199988,9.31199904 39.0640024,9.216 38.6000001,9.216 C38.1359977,9.216 37.7600015,9.29999916 37.4720001,9.468 C37.1839986,9.63600084 36.9640008,9.8599986 36.8120001,10.14 C36.6599993,10.4200014 36.5600003,10.7359982 36.5120001,11.088 C36.4639998,11.4400018 36.4400001,11.8079981 36.4400001,12.192 L36.4400001,18 L32.8400001,18 L32.8400001,6.336 Z" id="Path" fill="#473793"></path>
            <path d="M54.9920001,10.104 C54.8159992,9.84799872 54.5680017,9.63600084 54.2480001,9.468 C53.9279985,9.29999916 53.5840019,9.216 53.2160001,9.216 C52.3039955,9.216 51.5960026,9.48799728 51.0920001,10.032 C50.5879976,10.5760027 50.3360001,11.2879956 50.3360001,12.168 C50.3360001,13.0480044 50.5879976,13.7599973 51.0920001,14.304 C51.5960026,14.8480027 52.3039955,15.12 53.2160001,15.12 C53.6160021,15.12 53.9599986,15.0320009 54.2480001,14.856 C54.5360015,14.6799991 54.783999,14.4720012 54.9920001,14.232 L57.3680001,16.728 C56.8079973,17.3040029 56.1480039,17.7079988 55.3880001,17.94 C54.6279963,18.1720012 53.9040035,18.288 53.2160001,18.288 C52.3199956,18.288 51.476004,18.1440014 50.6840001,17.856 C49.8919961,17.5679986 49.204003,17.1560027 48.6200001,16.62 C48.0359972,16.0839973 47.5760018,15.4400038 47.2400001,14.688 C46.9039984,13.9359962 46.7360001,13.0960046 46.7360001,12.168 C46.7360001,11.2399954 46.9039984,10.4000038 47.2400001,9.648 C47.5760018,8.89599624 48.0359972,8.25200268 48.6200001,7.716 C49.204003,7.17999732 49.8919961,6.76800144 50.6840001,6.48 C51.476004,6.19199856 52.3199956,6.048 53.2160001,6.048 C53.9040035,6.048 54.6279963,6.16399884 55.3880001,6.396 C56.1480039,6.62800116 56.8079973,7.03199712 57.3680001,7.608 L54.9920001,10.104 Z" id="Path" fill="#473793"></path>
            <path d="M70.1840001,15.984 C69.6079972,16.7200037 68.8800045,17.287998 68.0000001,17.688 C67.1199957,18.088002 66.2080048,18.288 65.2640001,18.288 C64.3679956,18.288 63.5240041,18.1440014 62.7320001,17.856 C61.9399961,17.5679986 61.252003,17.1560027 60.6680001,16.62 C60.0839972,16.0839973 59.6240018,15.4400038 59.2880001,14.688 C58.9519984,13.9359962 58.7840001,13.0960046 58.7840001,12.168 C58.7840001,11.2399954 58.9519984,10.4000038 59.2880001,9.648 C59.6240018,8.89599624 60.0839972,8.25200268 60.6680001,7.716 C61.252003,7.17999732 61.9399961,6.76800144 62.7320001,6.48 C63.5240041,6.19199856 64.3679956,6.048 65.2640001,6.048 C66.0960043,6.048 66.8519967,6.19199856 67.5320001,6.48 C68.2120035,6.76800144 68.7879977,7.17999732 69.2600001,7.716 C69.7320025,8.25200268 70.0959988,8.89599624 70.3520001,9.648 C70.6080014,10.4000038 70.7360001,11.2399954 70.7360001,12.168 L70.7360001,13.296 L62.3840001,13.296 C62.5280008,13.9840034 62.8399977,14.531998 63.3200001,14.94 C63.8000025,15.348002 64.3919966,15.552 65.0960001,15.552 C65.6880031,15.552 66.1879981,15.4200013 66.5960001,15.156 C67.0040021,14.8919987 67.3599986,14.5520021 67.6640001,14.136 L70.1840001,15.984 Z M67.1360001,10.848 C67.1520002,10.239997 66.9520022,9.72000216 66.5360001,9.288 C66.119998,8.85599784 65.5840034,8.64 64.9280001,8.64 C64.5279981,8.64 64.1760016,8.70399936 63.8720001,8.832 C63.5679986,8.96000064 63.3080012,9.123999 63.0920001,9.324 C62.875999,9.524001 62.7080007,9.75599868 62.5880001,10.02 C62.4679995,10.2840013 62.4000002,10.5599986 62.3840001,10.848 L67.1360001,10.848 Z" id="Combined-Shape" fill="#473793"></path>
        </g>
    </g>
</svg>