<?xml version="1.0" encoding="UTF-8"?>
<svg width="15px" height="15px" viewBox="0 0 15 15" version="1.1" xmlns="http://www.w3.org/2000/svg" xmlns:xlink="http://www.w3.org/1999/xlink">
    <!-- Generator: Sketch 46.2 (44496) - http://www.bohemiancoding.com/sketch -->
    <title>5</title>
    <desc>Created with Sketch.</desc>
    <defs></defs>
    <g id="Mobile-Scratch-3" stroke="none" stroke-width="1" fill="none" fill-rule="evenodd">
        <path d="M10,12.9166667 C7.90833308,12.9166667 6.09999967,11.7333333 5.19999981,10 L10,10 L10,8.33333333 L4.64999993,8.33333333 C4.60833311,8.05833333 4.58333333,7.78333342 4.58333333,7.5 C4.58333333,7.2166665 4.60833311,6.94166658 4.64999993,6.66666667 L10,6.66666667 L10,5 L5.19999981,5 C6.09999967,3.26666672 7.91666667,2.08333333 10,2.08333333 C11.3416672,2.08333333 12.5750001,2.57500012 13.5249996,3.39166641 L15,1.91666683 C13.6749998,0.7249999 11.916666,0 10,0 C6.73333325,0 3.96666685,2.09166685 2.93333371,5 L0,5 L0,6.66666667 L2.54999995,6.66666667 C2.51666665,6.94166658 2.5,7.2166665 2.5,7.5 C2.5,7.78333342 2.51666665,8.05833333 2.54999995,8.33333333 L0,8.33333333 L0,10 L2.93333332,10 C3.96666685,12.9083331 6.73333325,15 10,15 C11.9249995,15 13.6749998,14.2749992 15,13.0833339 L13.5166661,11.6083336 C12.5750001,12.4249998 11.3499991,12.9166667 10,12.9166667 Z" id="5" fill="#473793"></path>
    </g>
</svg>