<?xml version="1.0" encoding="UTF-8"?>
<svg width="71px" height="61px" viewBox="0 0 15 13" version="1.1" xmlns="http://www.w3.org/2000/svg" xmlns:xlink="http://www.w3.org/1999/xlink">
    <!-- Generator: Sketch 46.2 (44496) - http://www.bohemiancoding.com/sketch -->
    <title>6</title>
    <desc>Created with Sketch.</desc>
    <defs></defs>
    <g id="Mobile-Scratch-3" stroke="none" stroke-width="1" fill="none" fill-rule="evenodd">
        <path d="M13.2666667,0.820625179 C13.0999994,0.341250057 12.6333332,0 12.0833333,0 L2.91666667,0 C2.36666679,0 1.9083333,0.341250057 1.73333327,0.820625179 L0,5.6875 L0,12.1875 C0,12.6343743 0.375000033,13 0.833333333,13 L1.66666667,13 C2.12500016,13 2.5,12.6343743 2.5,12.1875 L2.5,11.375 L12.5,11.375 L12.5,12.1875 C12.5,12.6343743 12.8750006,13 13.3333333,13 L14.1666667,13 C14.6249993,13 15,12.6343743 15,12.1875 L15,5.6875 L13.2666667,0.820625179 Z M2.91666667,8.9375 C2.22500006,8.9375 1.66666667,8.39312492 1.66666667,7.71875 C1.66666667,7.044375 2.22500006,6.5 2.91666667,6.5 C3.60833327,6.5 4.16666667,7.044375 4.16666667,7.71875 C4.16666667,8.39312492 3.60833327,8.9375 2.91666667,8.9375 Z M12.0833333,8.9375 C11.3916667,8.9375 10.8333333,8.39312492 10.8333333,7.71875 C10.8333333,7.044375 11.3916667,6.5 12.0833333,6.5 C12.7749999,6.5 13.3333333,7.044375 13.3333333,7.71875 C13.3333333,8.39312492 12.7749999,8.9375 12.0833333,8.9375 Z M1.66666667,4.875 L2.91666667,1.21875 L12.0833333,1.21875 L13.3333333,4.875 L1.66666667,4.875 Z" id="6" fill="#473793"></path>
    </g>
</svg>