<?xml version="1.0" encoding="UTF-8"?>
<svg width="16px" height="17px" viewBox="0 0 16 17" version="1.1" xmlns="http://www.w3.org/2000/svg" xmlns:xlink="http://www.w3.org/1999/xlink">
    <!-- Generator: Sketch 46.2 (44496) - http://www.bohemiancoding.com/sketch -->
    <title>7</title>
    <desc>Created with Sketch.</desc>
    <defs></defs>
    <g id="Mobile-Scratch-3" stroke="none" stroke-width="1" fill="none" fill-rule="evenodd">
        <path d="M14.1125644,9.33300051 C14.1454628,9.06100074 14.1701351,8.78900011 14.1701351,8.50000085 C14.1701351,8.2110015 14.1454613,7.93900088 14.1125644,7.66700111 L15.8479186,6.26450133 C16.0041831,6.13700165 16.0453046,5.90750124 15.9466124,5.72050099 L14.3017273,2.77950066 C14.2030336,2.59250082 13.9809752,2.52450047 13.8000369,2.59250082 L11.7521552,3.44250091 C11.3244848,3.10250079 10.8639174,2.82200083 10.3622269,2.6095008 L10.0496987,0.357000503 C10.0250249,0.153000066 9.85231193,0 9.6467013,0 L6.35693123,0 C6.1513206,0 5.97860764,0.153000066 5.95393458,0.357000095 L5.64140633,2.60950041 C5.13971668,2.82200043 4.67914852,3.11100058 4.25147843,3.44250051 L2.20359636,2.59250042 C2.01443458,2.51600028 1.80059972,2.59250042 1.70190632,2.77950026 L0.0570212886,5.72050018 C-0.049896329,5.90750042 -0.000549629963,6.13700003 0.1557143,6.26450052 L1.89106812,7.66700111 C1.85817045,7.93900088 1.833497,8.21950082 1.833497,8.50000085 C1.833497,8.78050079 1.85817045,9.06100074 1.89106812,9.33300051 L0.155714489,10.7355003 C-0.000549629963,10.863 -0.0416717146,11.0925004 0.0570212886,11.2795007 L1.70190632,14.220501 C1.80059933,14.4075004 2.02265879,14.4755003 2.20359636,14.4075004 L4.25147805,13.5575003 C4.67914814,13.8975 5.1397159,14.178 5.64140555,14.3905 L5.9539338,16.643 C5.97860685,16.8469997 6.15131981,17 6.35693044,17 L9.64670047,17 C9.8523111,17 10.025024,16.8469997 10.0496971,16.643 L10.3622254,14.3905 C10.863915,14.178 11.3244832,13.8889999 11.7521536,13.5575003 L13.8000353,14.4075004 C13.9891967,14.4840006 14.203032,14.4075004 14.3017258,14.220501 L15.9466108,11.2795007 C16.0453046,11.0925004 16.0041815,10.8630008 15.847917,10.7355003 L14.1125628,9.33300051 L14.1125644,9.33300051 Z M8.00181626,11.4750011 C6.41450188,11.4750011 5.12326746,10.1405013 5.12326746,8.50000085 C5.12326746,6.85950035 6.41450188,5.52500055 8.00181626,5.52500055 C9.58913057,5.52500055 10.8803651,6.85950035 10.8803651,8.50000085 C10.8803651,10.1405013 9.58913057,11.4750011 8.00181626,11.4750011 Z" id="7" fill="#473793"></path>
    </g>
</svg>