<svg xmlns="http://www.w3.org/2000/svg" xmlns:xlink="http://www.w3.org/1999/xlink" id="Layer_1" data-name="Layer 1" viewBox="0 0 802.43 987.26">
    <defs>
        <style>
            .cls-1 {
                fill:#fff;
            }
            .cls-2{
                fill:none;
            }
            .cls-3{
                clip-path:url(#clip-path);
            }
            .cls-4{
                fill:#bebebe;
            }
            .cls-5{
                fill:#d8d8d8;
            }
            .cls-6{
                fill:#3d3d3d;
            }
            .cls-7{
                fill:#8f8b8b;
            }
            .cls-8{
                clip-path:url(#clip-path-2);
            }
            .cls-9{
                fill:#f3f3f3;
            }
            .cls-10{
                fill:#03939f;
            }
            .cls-11{
                fill:#51f5eb;
            }
            .cls-12{
                fill:#50565c;
            }
            .cls-13{
                fill:#f7f3f1;
            }
            .cls-14{
                fill:#252525;
            }
        </style>
        <clipPath id="clip-path">
            <rect width="802.4" height="987.3" x="-895.3" class="cls-1"/>
        </clipPath>
        <clipPath id="clip-path-2">
            <rect width="802.4" height="987.3" class="cls-2"/>
        </clipPath>
    </defs>
    <title>
        car3 copy
    </title>
    <rect width="802.4" height="987.3" x="-895.3" class="cls-1"/>
    <g class="cls-3">
        <ellipse cx="-216.8" cy="885.8" class="cls-4" rx="552.2" ry="42.8"/>
        <path d="M -627.1 615.4 H 405.3 V 426 a 86.5 86.5 0 0 0 -85.7 -67.6 L 234 137.5 a 86.1 86.1 0 0 0 -54.1 -42.8 H -485.1 a 91.2 91.2 0 0 0 -27.1 13.5 c -2.9 2.1 -16 12 -27 31.6 C -552.9 164 -585.9 242.9 -624.8 351.6 c -9.8 1.7 -35.1 7.5 -56.4 29.3 a 101.5 101.5 0 0 0 -22.6 36 V 545.9 a 138.4 138.4 0 0 0 27.1 37.9 A 140.6 140.6 0 0 0 -627.1 615.4 Z" class="cls-5"/>
        <path d="M -591 353.9 l 76.6 -198.3 a 63.4 63.4 0 0 1 13.5 -18 A 63.9 63.9 0 0 1 -478.3 124 H 175.4 a 61.4 61.4 0 0 1 31.5 22.5 q 42.8 106 85.7 211.9 Z" class="cls-6"/>
        <path d="M -627.1 615.4 a 140.6 140.6 0 0 1 -49.6 -31.6 a 138.4 138.4 0 0 1 -27.1 -37.9 V 773.1 a 2869.4 2869.4 0 0 0 545.5 54.1 a 2870 2870 0 0 0 563.5 -54.1 V 615.4 Z" class="cls-7"/>
        <path d="M -645.1 457.6 H 342.2 a 0 0 0 0 1 0 0 V 583.8 a 0 0 0 0 1 0 0 h -909 a 78.3 78.3 0 0 1 -78.3 -78.3 v -48 A 0 0 0 0 1 -645.1 457.6 Z" class="cls-7"/>
        <path d="M -645.1 678.5 H 342.2 a 0 0 0 0 1 0 0 v 0 A 99.2 99.2 0 0 1 243 777.6 H -545.9 a 99.2 99.2 0 0 1 -99.2 -99.2 v 0 a 0 0 0 0 1 0 0 Z" class="cls-6"/>
    </g>
    <g class="cls-8">
        <rect width="802.4" height="987.3" x="0" y="0" class="cls-9"/>
        <ellipse cx="701" cy="885.8" class="cls-4" rx="579.3" ry="42.8"/>
        <path d="M 191.6 610.8 H 362.9 l 0 0 V 853 C 362.9 871.1 348.2 885.8 330.1 885.8 H 224.4 C 206.3 885.8 191.6 871.1 191.6 853 V 610.8 L 191.6 610.8 Z"/>
        <path d="M 313.3 281.8 H 178 c -1.4 0.8 -16.7 10 -18 27.1 c -1.1 15.5 9.9 30.9 27 36.1 H 313.6" class="cls-10"/>
        <path d="M 227.7 507.1 c -1.6 4.9 -17.1 53.7 13.5 94.7 c 18.8 25.2 44.7 33.5 54.1 36.1 H 1367.5 Q 1376.9 541 1386.2 444 l -112.7 -112.7 q -38.3 -94.7 -76.6 -189.3 C 1183.4 118.1 1160.5 100.9 1133.8 94.6 H 428.3 C 403.6 103.9 382.9 121.4 369.7 144.2 q -45.1 108.2 -90.2 216.4 q -2.5 1 -5.4 2.4 Q 270 413.7 266 464.3 Z" class="cls-11"/>
        <path d="M 295.3 637.9 c -9.4 -2.5 -35.3 -10.9 -54.1 -36.1 C 210.6 560.9 226 512 227.7 507.1 L 266 464.3 Q 270 413.7 274.1 363 C 228.9 383.4 195.3 423.1 182.6 471.1 q 11.3 160 22.5 320.1 C 210.8 804.6 222.5 814.7 236.7 818.2 H 1350.2 q 8.7 -90.2 17.4 -180.3 Z" class="cls-10"/>
        <path d="M 267.8 462.1 H 1350.2 l 0 0 V 583.8 l 0 0 h -1041 C 264.1 583.8 227.6 547.3 227.6 502.3 v 0 C 227.6 480.1 245.6 462.1 267.8 462.1 Z" class="cls-12"/>
        <circle cx="299.8" cy="520.7" r="45.1" class="cls-13"/>
        <circle cx="412.5" cy="520.7" r="45.1" class="cls-13"/>
        <circle cx="385.4" cy="741.6" r="31.6" class="cls-14"/>
        <path d="M 486.9 698.8 h 595.1 l 0 0 v 49.5 C 1081.9 759 1077.6 769.4 1070 777 C 1062.4 784.6 1052.1 788.9 1041.3 788.9 H 527.5 C 505.1 788.9 486.9 770.7 486.9 748.3 V 698.8 L 486.9 698.8 Z" class="cls-12"/>
        <rect width="270.5" height="22.5" x="493.6" y="493.6" class="cls-14"/>
        <rect width="270.5" height="22.5" x="493.6" y="529.7" class="cls-14"/>
        <path d="M 331.3 331.3 L 408 151 C 417.6 139.2 430 129.9 444 124 h 680.7 L 1242 331.3 Z" class="cls-6"/>
    </g>
</svg>
