<?xml version="1.0" encoding="UTF-8"?>
<svg width="17px" height="17px" viewBox="0 0 17 17" version="1.1" xmlns="http://www.w3.org/2000/svg" xmlns:xlink="http://www.w3.org/1999/xlink">
    <!-- Generator: Sketch 46.2 (44496) - http://www.bohemiancoding.com/sketch -->
    <title>4</title>
    <desc>Created with Sketch.</desc>
    <defs></defs>
    <g id="Mobile-Scratch-3" stroke="none" stroke-width="1" fill="none" fill-rule="evenodd">
        <path d="M5.95,8.2875 C5.36349954,8.2875 4.8875,8.76350034 4.8875,9.35 C4.8875,9.93649958 5.36350035,10.4125 5.95,10.4125 C6.53649964,10.4125 7.0125,9.93649958 7.0125,9.35 C7.0125,8.76350034 6.53649964,8.2875 5.95,8.2875 Z M11.05,8.2875 C10.4634995,8.2875 9.9875,8.76350034 9.9875,9.35 C9.9875,9.93649958 10.4635003,10.4125 11.05,10.4125 C11.6364996,10.4125 12.1125,9.93649958 12.1125,9.35 C12.1125,8.76350034 11.6364996,8.2875 11.05,8.2875 Z M8.5,0 C3.80800001,0 0,3.80800001 0,8.5 C0,13.1920003 3.80800001,17 8.5,17 C13.1920003,17 17,13.1920003 17,8.5 C17,3.80799961 13.1920003,0 8.5,0 Z M8.5,15.3 C4.75150013,15.3 1.7,12.2484998 1.7,8.5 C1.7,8.2535 1.71699998,8.007 1.74250016,7.76900026 C3.74850027,6.87650009 5.33800058,5.23599986 6.17100019,3.20450038 C7.70949966,5.38049993 10.2425001,6.8 13.107,6.8 C13.7700006,6.8 14.4075006,6.72349986 15.0195,6.5789998 C15.1979992,7.18249983 15.3,7.8285 15.3,8.5 C15.3,12.2484998 12.2484998,15.3 8.5,15.3 Z" id="4" fill="#DC267F"></path>
    </g>
</svg>